<?xml version="1.0" encoding="utf-8"?>
<!-- Generator: Adobe Illustrator 19.0.0, SVG Export Plug-In . SVG Version: 6.00 Build 0)  -->
<svg version="1.1" id="图层_1" xmlns="http://www.w3.org/2000/svg" xmlns:xlink="http://www.w3.org/1999/xlink" x="0px" y="0px"
	 width="800px" height="785px" viewBox="0 0 800 785" style="enable-background:new 0 0 800 785;" xml:space="preserve">
<style type="text/css">
	.st0{clip-path:url(#SVGID_2_);}
	.st1{clip-path:url(#SVGID_2_);fill:#9BB19A;}
	.st2{clip-path:url(#SVGID_2_);fill:#75A261;}
	.st3{clip-path:url(#SVGID_2_);fill:#375F2A;}
	.st4{clip-path:url(#SVGID_2_);fill:#4B7D38;}
	.st5{clip-path:url(#SVGID_2_);fill:#59873F;}
	.st6{clip-path:url(#SVGID_2_);fill:#477334;}
	.st7{clip-path:url(#SVGID_2_);fill:#456D2F;}
	.st8{clip-path:url(#SVGID_2_);fill:#556852;}
	.st9{clip-path:url(#SVGID_2_);fill:#6B7769;}
	.st10{clip-path:url(#SVGID_2_);fill:#4A7434;}
	.st11{clip-path:url(#SVGID_2_);fill:#3D662E;}
	.st12{clip-path:url(#SVGID_2_);fill:#81B563;}
	.st13{clip-path:url(#SVGID_2_);fill:#80B05C;}
	.st14{clip-path:url(#SVGID_2_);fill:#8BC26F;}
	.st15{clip-path:url(#SVGID_2_);fill:#659348;}
	.st16{clip-path:url(#SVGID_2_);fill:#84BA62;}
	.st17{clip-path:url(#SVGID_2_);fill:#51803C;}
	.st18{clip-path:url(#SVGID_2_);fill:#2A5520;}
	.st19{clip-path:url(#SVGID_2_);fill:#A1D277;}
	.st20{clip-path:url(#SVGID_2_);fill:#ABDC80;}
	.st21{clip-path:url(#SVGID_2_);fill:#A3E083;}
	.st22{clip-path:url(#SVGID_2_);fill:#E9FBE5;}
	.st23{clip-path:url(#SVGID_2_);fill:#FFFEFC;}
	.st24{clip-path:url(#SVGID_2_);fill:#8AA8A0;}
	.st25{clip-path:url(#SVGID_2_);fill:#1D331C;}
	.st26{clip-path:url(#SVGID_2_);fill:#325A38;}
	.st27{clip-path:url(#SVGID_2_);fill:#2A6127;}
	.st28{clip-path:url(#SVGID_2_);fill:#6A8A5B;}
	.st29{clip-path:url(#SVGID_2_);fill:#DCD6BE;}
	.st30{clip-path:url(#SVGID_2_);fill:#BCD1C0;}
	.st31{clip-path:url(#SVGID_2_);fill:#7A6A46;}
	.st32{clip-path:url(#SVGID_2_);fill:#90A390;}
	.st33{clip-path:url(#SVGID_2_);fill:#000300;}
	.st34{clip-path:url(#SVGID_2_);fill:#75A374;}
	.st35{clip-path:url(#SVGID_2_);fill:#83BB60;}
	.st36{clip-path:url(#SVGID_2_);fill:#235120;}
	.st37{clip-path:url(#SVGID_2_);fill:#67742F;}
	.st38{clip-path:url(#SVGID_2_);fill:#95DB83;}
	.st39{clip-path:url(#SVGID_2_);fill:#85AC7F;}
	.st40{clip-path:url(#SVGID_2_);fill:#4EA964;}
	.st41{clip-path:url(#SVGID_2_);fill:#6FBD81;}
	.st42{clip-path:url(#SVGID_2_);fill:#2B5E25;}
	.st43{clip-path:url(#SVGID_2_);fill:#74AE71;}
	.st44{clip-path:url(#SVGID_2_);fill:#583B13;}
	.st45{clip-path:url(#SVGID_2_);fill:#A29166;}
	.st46{clip-path:url(#SVGID_2_);fill:#386431;}
	.st47{clip-path:url(#SVGID_2_);fill:#7DC57C;}
	.st48{clip-path:url(#SVGID_2_);fill:#7CC97B;}
	.st49{clip-path:url(#SVGID_2_);fill:#F7E9E0;}
	.st50{clip-path:url(#SVGID_2_);fill:#070918;}
	.st51{clip-path:url(#SVGID_2_);fill:#85BA86;}
	.st52{clip-path:url(#SVGID_2_);fill:#66A966;}
	.st53{clip-path:url(#SVGID_2_);fill:#255521;}
	.st54{clip-path:url(#SVGID_2_);fill:#3B5C2D;}
	.st55{clip-path:url(#SVGID_2_);fill:#79C773;}
	.st56{clip-path:url(#SVGID_2_);fill:#FFFEFA;}
	.st57{clip-path:url(#SVGID_2_);fill:#73B971;}
	.st58{clip-path:url(#SVGID_2_);fill:#DEE5C4;}
	.st59{clip-path:url(#SVGID_2_);fill:#64A166;}
	.st60{clip-path:url(#SVGID_2_);fill:#72A56D;}
	.st61{clip-path:url(#SVGID_2_);fill:#70AE6B;}
	.st62{clip-path:url(#SVGID_2_);fill:#61AA59;}
	.st63{clip-path:url(#SVGID_2_);fill:#6D6139;}
	.st64{clip-path:url(#SVGID_2_);fill:#506A43;}
	.st65{clip-path:url(#SVGID_2_);fill:#6DBB67;}
	.st66{clip-path:url(#SVGID_2_);fill:#5EA756;}
	.st67{clip-path:url(#SVGID_2_);fill:#8EBA89;}
	.st68{clip-path:url(#SVGID_2_);fill:#498746;}
	.st69{clip-path:url(#SVGID_2_);fill:#4C8A4B;}
	.st70{clip-path:url(#SVGID_2_);fill:#40833C;}
	.st71{clip-path:url(#SVGID_2_);fill:#51A051;}
	.st72{clip-path:url(#SVGID_2_);fill:#66A264;}
	.st73{clip-path:url(#SVGID_2_);fill:#475D36;}
	.st74{clip-path:url(#SVGID_2_);fill:#594F2B;}
	.st75{clip-path:url(#SVGID_2_);fill:#58542E;}
	.st76{clip-path:url(#SVGID_2_);fill:#C9C69D;}
	.st77{clip-path:url(#SVGID_2_);fill:#56A552;}
	.st78{clip-path:url(#SVGID_2_);fill:#5B9153;}
	.st79{clip-path:url(#SVGID_2_);fill:#538747;}
	.st80{clip-path:url(#SVGID_2_);fill:#374D26;}
	.st81{clip-path:url(#SVGID_2_);fill:#445328;}
	.st82{clip-path:url(#SVGID_2_);fill:#6F975B;}
	.st83{clip-path:url(#SVGID_2_);fill:#90C67A;}
	.st84{clip-path:url(#SVGID_2_);fill:#CAC492;}
	.st85{clip-path:url(#SVGID_2_);fill:#B4A177;}
	.st86{clip-path:url(#SVGID_2_);fill:#40522A;}
	.st87{clip-path:url(#SVGID_2_);fill:#8B8A5A;}
	.st88{clip-path:url(#SVGID_2_);fill:#95CE7F;}
	.st89{clip-path:url(#SVGID_2_);fill:#6C964E;}
	.st90{clip-path:url(#SVGID_2_);fill:#35441D;}
	.st91{clip-path:url(#SVGID_2_);fill:#40502B;}
	.st92{clip-path:url(#SVGID_2_);fill:#3D4C21;}
	.st93{clip-path:url(#SVGID_2_);fill:#80B766;}
	.st94{clip-path:url(#SVGID_2_);fill:#82BD5F;}
	.st95{clip-path:url(#SVGID_2_);fill:#887B4E;}
	.st96{clip-path:url(#SVGID_2_);fill:#6E603B;}
	.st97{clip-path:url(#SVGID_2_);fill:#BCA66A;}
	.st98{clip-path:url(#SVGID_2_);fill:#92AA5C;}
	.st99{clip-path:url(#SVGID_2_);fill:#96B46A;}
	.st100{clip-path:url(#SVGID_2_);fill:#778D4D;}
	.st101{clip-path:url(#SVGID_2_);fill:#91B26D;}
	.st102{clip-path:url(#SVGID_2_);fill:#7C9F7F;}
	.st103{clip-path:url(#SVGID_2_);fill:#779359;}
	.st104{clip-path:url(#SVGID_2_);fill:#85C06C;}
	.st105{clip-path:url(#SVGID_2_);fill:#38471E;}
	.st106{clip-path:url(#SVGID_2_);fill:#5A6D35;}
	.st107{clip-path:url(#SVGID_2_);fill:#4E6B2B;}
	.st108{clip-path:url(#SVGID_2_);fill:#608341;}
	.st109{clip-path:url(#SVGID_2_);fill:#77B061;}
	.st110{clip-path:url(#SVGID_2_);fill:#658544;}
	.st111{clip-path:url(#SVGID_2_);fill:#789855;}
	.st112{clip-path:url(#SVGID_2_);fill:#566F2B;}
	.st113{clip-path:url(#SVGID_2_);fill:#84C865;}
	.st114{clip-path:url(#SVGID_2_);fill:#48652D;}
	.st115{clip-path:url(#SVGID_2_);fill:#496534;}
	.st116{clip-path:url(#SVGID_2_);fill:#4E7540;}
	.st117{clip-path:url(#SVGID_2_);fill:#6CA268;}
	.st118{clip-path:url(#SVGID_2_);fill:#80BA7D;}
	.st119{clip-path:url(#SVGID_2_);fill:#466E30;}
	.st120{clip-path:url(#SVGID_2_);fill:#83C875;}
	.st121{clip-path:url(#SVGID_2_);fill:#66A652;}
	.st122{clip-path:url(#SVGID_2_);fill:#50783A;}
	.st123{clip-path:url(#SVGID_2_);fill:#4D6F3D;}
	.st124{clip-path:url(#SVGID_2_);fill:#617749;}
	.st125{clip-path:url(#SVGID_2_);fill:#456C37;}
	.st126{clip-path:url(#SVGID_2_);fill:#70A66A;}
	.st127{clip-path:url(#SVGID_2_);fill:#536A3C;}
	.st128{clip-path:url(#SVGID_2_);fill:#5D9A55;}
	.st129{clip-path:url(#SVGID_2_);fill:#466A2D;}
	.st130{clip-path:url(#SVGID_2_);fill:#427532;}
	.st131{clip-path:url(#SVGID_2_);fill:#42652D;}
	.st132{clip-path:url(#SVGID_2_);fill:#618A4E;}
	.st133{clip-path:url(#SVGID_2_);fill:#4C6D34;}
	.st134{clip-path:url(#SVGID_2_);fill:#3D683A;}
	.st135{clip-path:url(#SVGID_2_);fill:#365E3B;}
	.st136{clip-path:url(#SVGID_2_);fill:#60B87B;}
	.st137{clip-path:url(#SVGID_2_);fill:#58865F;}
	.st138{clip-path:url(#SVGID_2_);fill:#3E5F32;}
	.st139{clip-path:url(#SVGID_2_);fill:#56934D;}
	.st140{clip-path:url(#SVGID_2_);fill:#5B904C;}
	.st141{clip-path:url(#SVGID_2_);fill:#467139;}
	.st142{clip-path:url(#SVGID_2_);fill:#375227;}
	.st143{clip-path:url(#SVGID_2_);fill:#4E5B30;}
	.st144{clip-path:url(#SVGID_2_);fill:#537F5B;}
	.st145{clip-path:url(#SVGID_2_);fill:#5A5337;}
	.st146{clip-path:url(#SVGID_2_);fill:#485D36;}
	.st147{clip-path:url(#SVGID_2_);fill:#545033;}
	.st148{clip-path:url(#SVGID_2_);fill:#52532B;}
	.st149{clip-path:url(#SVGID_2_);fill:#4B7754;}
	.st150{clip-path:url(#SVGID_2_);fill:#5A8B3A;}
	.st151{clip-path:url(#SVGID_2_);fill:#59883A;}
	.st152{clip-path:url(#SVGID_2_);fill:#476E42;}
	.st153{clip-path:url(#SVGID_2_);fill:#3B4C2C;}
	.st154{clip-path:url(#SVGID_2_);fill:#476F31;}
	.st155{clip-path:url(#SVGID_2_);fill:#66AB74;}
	.st156{clip-path:url(#SVGID_2_);fill:#6D7D4E;}
	.st157{clip-path:url(#SVGID_2_);fill:#7F6D47;}
	.st158{clip-path:url(#SVGID_2_);fill:#77653D;}
	.st159{clip-path:url(#SVGID_2_);fill:#4E7943;}
	.st160{clip-path:url(#SVGID_2_);fill:#496C36;}
	.st161{clip-path:url(#SVGID_2_);fill:#5B8851;}
	.st162{clip-path:url(#SVGID_2_);fill:#48703B;}
	.st163{clip-path:url(#SVGID_2_);fill:#234311;}
	.st164{clip-path:url(#SVGID_2_);fill:#59653F;}
	.st165{clip-path:url(#SVGID_2_);fill:#496439;}
	.st166{clip-path:url(#SVGID_2_);fill:#3A5E32;}
	.st167{clip-path:url(#SVGID_2_);fill:#817746;}
	.st168{clip-path:url(#SVGID_2_);fill:#504B2B;}
	.st169{clip-path:url(#SVGID_2_);fill:#426636;}
	.st170{clip-path:url(#SVGID_2_);fill:#80B567;}
	.st171{clip-path:url(#SVGID_2_);fill:#58643E;}
	.st172{clip-path:url(#SVGID_2_);fill:#2E5328;}
	.st173{clip-path:url(#SVGID_2_);fill:#233F0F;}
	.st174{clip-path:url(#SVGID_2_);fill:#60834D;}
	.st175{clip-path:url(#SVGID_2_);fill:#405625;}
	.st176{clip-path:url(#SVGID_2_);fill:#749350;}
	.st177{clip-path:url(#SVGID_2_);fill:#82A85F;}
	.st178{clip-path:url(#SVGID_2_);fill:#71864E;}
	.st179{clip-path:url(#SVGID_2_);fill:#65A956;}
	.st180{clip-path:url(#SVGID_2_);fill:#3B682D;}
	.st181{clip-path:url(#SVGID_2_);fill:#3D662A;}
	.st182{clip-path:url(#SVGID_2_);fill:#4D7F38;}
	.st183{clip-path:url(#SVGID_2_);fill:#75BE6F;}
	.st184{clip-path:url(#SVGID_2_);fill:#526434;}
	.st185{clip-path:url(#SVGID_2_);fill:#3C632E;}
	.st186{clip-path:url(#SVGID_2_);fill:#4D5E32;}
	.st187{clip-path:url(#SVGID_2_);fill:#92AC63;}
	.st188{clip-path:url(#SVGID_2_);fill:#607E48;}
	.st189{clip-path:url(#SVGID_2_);fill:#82AC6C;}
	.st190{clip-path:url(#SVGID_2_);fill:#9BB683;}
	.st191{clip-path:url(#SVGID_2_);fill:#516739;}
	.st192{clip-path:url(#SVGID_2_);fill:#406732;}
	.st193{clip-path:url(#SVGID_2_);fill:#698E4B;}
	.st194{clip-path:url(#SVGID_2_);fill:#99CB76;}
	.st195{clip-path:url(#SVGID_2_);fill:#739D55;}
	.st196{clip-path:url(#SVGID_2_);fill:#53613D;}
	.st197{clip-path:url(#SVGID_2_);fill:#519147;}
	.st198{clip-path:url(#SVGID_2_);fill:#4A7732;}
	.st199{clip-path:url(#SVGID_2_);fill:#71B562;}
	.st200{clip-path:url(#SVGID_2_);fill:#475D2F;}
	.st201{clip-path:url(#SVGID_2_);fill:#3C4B20;}
	.st202{clip-path:url(#SVGID_2_);fill:#33431C;}
	.st203{clip-path:url(#SVGID_2_);fill:#435F2F;}
	.st204{clip-path:url(#SVGID_2_);fill:#A6A6A8;}
	.st205{clip-path:url(#SVGID_2_);fill:#25491D;}
	.st206{clip-path:url(#SVGID_2_);fill:#47702E;}
	.st207{clip-path:url(#SVGID_2_);fill:#2B5025;}
	.st208{clip-path:url(#SVGID_2_);fill:#76B958;}
	.st209{clip-path:url(#SVGID_2_);fill:#52843D;}
	.st210{clip-path:url(#SVGID_2_);fill:#555732;}
	.st211{clip-path:url(#SVGID_2_);fill:#59844C;}
	.st212{clip-path:url(#SVGID_2_);fill:#81AB6C;}
	.st213{clip-path:url(#SVGID_2_);fill:#578D4F;}
	.st214{clip-path:url(#SVGID_2_);fill:#6AA761;}
	.st215{clip-path:url(#SVGID_2_);fill:#5F5937;}
	.st216{clip-path:url(#SVGID_2_);fill:#6E5F38;}
	.st217{clip-path:url(#SVGID_2_);fill:#545430;}
	.st218{clip-path:url(#SVGID_2_);fill:#516D3C;}
	.st219{clip-path:url(#SVGID_2_);fill:#98C485;}
	.st220{clip-path:url(#SVGID_2_);fill:#334E25;}
	.st221{clip-path:url(#SVGID_2_);fill:#415B2C;}
	.st222{clip-path:url(#SVGID_2_);fill:#59893D;}
	.st223{clip-path:url(#SVGID_2_);fill:#475B36;}
	.st224{clip-path:url(#SVGID_2_);fill:#5A6A43;}
	.st225{clip-path:url(#SVGID_2_);fill:#586645;}
	.st226{clip-path:url(#SVGID_2_);fill:#8ACB67;}
	.st227{clip-path:url(#SVGID_2_);fill:#68A24D;}
	.st228{clip-path:url(#SVGID_2_);fill:#508239;}
	.st229{clip-path:url(#SVGID_2_);fill:#609449;}
	.st230{clip-path:url(#SVGID_2_);fill:#629945;}
	.st231{clip-path:url(#SVGID_2_);fill:#6BA652;}
	.st232{clip-path:url(#SVGID_2_);fill:#927F55;}
	.st233{clip-path:url(#SVGID_2_);fill:#51561E;}
	.st234{clip-path:url(#SVGID_2_);fill:#6D9455;}
	.st235{clip-path:url(#SVGID_2_);fill:#637D3E;}
	.st236{clip-path:url(#SVGID_2_);fill:#4F6332;}
	.st237{clip-path:url(#SVGID_2_);fill:#708E52;}
	.st238{clip-path:url(#SVGID_2_);fill:#595530;}
	.st239{clip-path:url(#SVGID_2_);fill:#9A8252;}
	.st240{clip-path:url(#SVGID_2_);fill:#86B95D;}
	.st241{clip-path:url(#SVGID_2_);fill:#6BA551;}
	.st242{clip-path:url(#SVGID_2_);fill:#81A462;}
	.st243{clip-path:url(#SVGID_2_);fill:#65824A;}
	.st244{clip-path:url(#SVGID_2_);fill:#587137;}
	.st245{clip-path:url(#SVGID_2_);fill:#89AE69;}
	.st246{clip-path:url(#SVGID_2_);fill:#78AF5E;}
	.st247{clip-path:url(#SVGID_2_);fill:#2D5026;}
	.st248{clip-path:url(#SVGID_2_);fill:#3A5220;}
	.st249{clip-path:url(#SVGID_2_);fill:#4D7831;}
	.st250{clip-path:url(#SVGID_2_);fill:#416528;}
	.st251{clip-path:url(#SVGID_2_);fill:#4F843E;}
	.st252{clip-path:url(#SVGID_2_);fill:#415822;}
	.st253{clip-path:url(#SVGID_2_);fill:#7FBD5C;}
	.st254{clip-path:url(#SVGID_2_);fill:#2D5324;}
	.st255{clip-path:url(#SVGID_2_);fill:#8FB673;}
	.st256{clip-path:url(#SVGID_2_);fill:#90AF6B;}
	.st257{clip-path:url(#SVGID_2_);fill:#86AB65;}
	.st258{clip-path:url(#SVGID_2_);fill:#43613D;}
	.st259{clip-path:url(#SVGID_2_);fill:#506A2B;}
	.st260{clip-path:url(#SVGID_2_);fill:#6C8B47;}
	.st261{clip-path:url(#SVGID_2_);fill:#517D4C;}
	.st262{clip-path:url(#SVGID_2_);fill:#49713C;}
	.st263{clip-path:url(#SVGID_2_);fill:#507C47;}
	.st264{clip-path:url(#SVGID_2_);fill:#7AB559;}
	.st265{clip-path:url(#SVGID_2_);fill:#6DAB60;}
	.st266{clip-path:url(#SVGID_2_);fill:#63AA68;}
	.st267{clip-path:url(#SVGID_2_);fill:#4D6029;}
	.st268{clip-path:url(#SVGID_2_);fill:#597038;}
	.st269{clip-path:url(#SVGID_2_);fill:#5B7F42;}
	.st270{clip-path:url(#SVGID_2_);fill:#77AB61;}
	.st271{clip-path:url(#SVGID_2_);fill:#607F3C;}
	.st272{clip-path:url(#SVGID_2_);fill:#7EB24E;}
	.st273{clip-path:url(#SVGID_2_);fill:#4B6327;}
	.st274{clip-path:url(#SVGID_2_);fill:#415824;}
	.st275{clip-path:url(#SVGID_2_);fill:#89C669;}
	.st276{clip-path:url(#SVGID_2_);fill:#4B6130;}
	.st277{clip-path:url(#SVGID_2_);fill:#6A8F4C;}
	.st278{clip-path:url(#SVGID_2_);fill:#394F38;}
	.st279{clip-path:url(#SVGID_2_);fill:#36491B;}
	.st280{clip-path:url(#SVGID_2_);fill:#567040;}
	.st281{clip-path:url(#SVGID_2_);fill:#485A2A;}
	.st282{clip-path:url(#SVGID_2_);fill:#384C27;}
	.st283{clip-path:url(#SVGID_2_);fill:#4F4A2D;}
	.st284{clip-path:url(#SVGID_2_);fill:#78B16D;}
	.st285{clip-path:url(#SVGID_2_);fill:#7AA150;}
	.st286{clip-path:url(#SVGID_2_);fill:#718B44;}
	.st287{clip-path:url(#SVGID_2_);fill:#343C13;}
	.st288{clip-path:url(#SVGID_2_);fill:#68934B;}
	.st289{clip-path:url(#SVGID_2_);fill:#536F3E;}
	.st290{clip-path:url(#SVGID_2_);fill:#5F783E;}
	.st291{clip-path:url(#SVGID_2_);fill:#363107;}
	.st292{clip-path:url(#SVGID_2_);fill:#A18C5F;}
	.st293{clip-path:url(#SVGID_2_);fill:#53692B;}
	.st294{clip-path:url(#SVGID_2_);fill:#84BA6C;}
	.st295{clip-path:url(#SVGID_2_);fill:#87B45F;}
	.st296{clip-path:url(#SVGID_2_);fill:#667437;}
	.st297{clip-path:url(#SVGID_2_);fill:#75924F;}
	.st298{clip-path:url(#SVGID_2_);fill:#6B9E59;}
	.st299{clip-path:url(#SVGID_2_);fill:#535C23;}
	.st300{clip-path:url(#SVGID_2_);fill:#78A347;}
	.st301{clip-path:url(#SVGID_2_);fill:#80964B;}
	.st302{clip-path:url(#SVGID_2_);fill:#6AA257;}
	.st303{clip-path:url(#SVGID_2_);fill:#545E21;}
	.st304{clip-path:url(#SVGID_2_);fill:#84A554;}
	.st305{clip-path:url(#SVGID_2_);fill:#8AA852;}
	.st306{clip-path:url(#SVGID_2_);fill:#8EB566;}
	.st307{clip-path:url(#SVGID_2_);fill:#4C5619;}
	.st308{clip-path:url(#SVGID_2_);fill:#769140;}
	.st309{clip-path:url(#SVGID_2_);fill:#839D46;}
	.st310{clip-path:url(#SVGID_2_);fill:#799E50;}
	.st311{clip-path:url(#SVGID_2_);fill:#4C551E;}
	.st312{clip-path:url(#SVGID_2_);fill:#799642;}
	.st313{clip-path:url(#SVGID_2_);fill:#9DBA60;}
	.st314{clip-path:url(#SVGID_2_);fill:#5D7332;}
	.st315{clip-path:url(#SVGID_2_);fill:#93AD52;}
	.st316{clip-path:url(#SVGID_2_);fill:#4F6117;}
</style>
<g>
	<defs>
		<rect id="SVGID_1_" width="800" height="785"/>
	</defs>
	<clipPath id="SVGID_2_">
		<use xlink:href="#SVGID_1_"  style="overflow:visible;"/>
	</clipPath>
	<g class="st0">
		<defs>
			<rect id="SVGID_3_" width="800" height="785"/>
		</defs>
		<clipPath id="SVGID_4_">
			<use xlink:href="#SVGID_3_"  style="overflow:visible;"/>
		</clipPath>
		<image style="overflow:visible;clip-path:url(#SVGID_4_);" width="800" height="785" xlink:href="F371F82B.jpg" >
		</image>
	</g>
	<polygon class="st1" points="45,311 48,314 49,314 	"/>
	<polygon class="st2" points="53,281 46,288 54,291 	"/>
	<polygon class="st3" points="46,288 43,295 54,291 	"/>
	<polygon class="st4" points="43,295 43,306 57,297 	"/>
	<polygon class="st5" points="54,291 43,295 57,297 	"/>
	<polygon class="st6" points="43,306 45,311 57,297 	"/>
	<polygon class="st7" points="45,311 49,314 57,297 	"/>
	<polygon class="st8" points="49,314 48,314 60,317 	"/>
	<polygon class="st9" points="48,314 47,314 60,317 	"/>
	<polygon class="st10" points="57,297 49,314 64,300 	"/>
	<polygon class="st11" points="49,314 60,317 64,300 	"/>
	<polygon class="st12" points="54,291 57,297 64,283 	"/>
	<polygon class="st13" points="57,297 64,300 64,283 	"/>
	<polygon class="st14" points="53,281 54,291 64,283 	"/>
	<polygon class="st15" points="64,283 64,300 78,287 	"/>
	<polygon class="st16" points="78,287 64,300 83,311 	"/>
	<polygon class="st17" points="64,300 60,317 83,311 	"/>
	<polygon class="st18" points="60,317 80,321 83,311 	"/>
	<polygon class="st19" points="78,287 83,311 84,286 	"/>
	<polygon class="st20" points="64,283 78,287 87,277 	"/>
	<polygon class="st21" points="78,287 84,286 87,277 	"/>
	<polygon class="st22" points="53,281 64,283 90,269 	"/>
	<polygon class="st22" points="64,283 87,277 90,269 	"/>
	<line class="st23" x1="90" y1="269" x2="94" y2="263"/>
	<polygon class="st24" points="90,269 87,277 96,271 	"/>
	<polygon class="st25" points="94,263 90,269 96,271 	"/>
	<polygon class="st26" points="94,263 96,271 100,262 	"/>
	<polygon class="st27" points="83,311 80,321 101,326 	"/>
	<polygon class="st28" points="94,263 100,262 102,253 	"/>
	<polygon class="st29" points="100,262 96,271 103,270 	"/>
	<polygon class="st30" points="102,253 100,262 106,256 	"/>
	<polygon class="st31" points="96,271 87,277 106,277 	"/>
	<polygon class="st32" points="87,277 84,286 106,277 	"/>
	<polygon class="st33" points="103,270 96,271 106,277 	"/>
	<polygon class="st34" points="106,273 103,270 106,277 	"/>
	<polygon class="st35" points="84,286 83,311 106,308 	"/>
	<polygon class="st36" points="83,311 101,326 106,308 	"/>
	<polygon class="st37" points="106,277 84,286 109,282 	"/>
	<polygon class="st38" points="84,286 106,308 109,282 	"/>
	<polygon class="st39" points="103,270 106,273 111,262 	"/>
	<polygon class="st40" points="100,262 103,270 111,262 	"/>
	<polygon class="st41" points="106,256 100,262 111,262 	"/>
	<polygon class="st42" points="106,308 101,326 113,320 	"/>
	<polygon class="st43" points="106,256 111,262 116,251 	"/>
	<polygon class="st30" points="102,253 106,256 116,251 	"/>
	<polygon class="st44" points="106,273 106,277 120,282 	"/>
	<polygon class="st45" points="106,277 109,282 120,282 	"/>
	<polygon class="st46" points="106,308 113,320 121,301 	"/>
	<polygon class="st47" points="109,282 106,308 121,301 	"/>
	<polygon class="st48" points="120,282 109,282 121,301 	"/>
	<polygon class="st49" points="111,262 106,273 123,265 	"/>
	<polygon class="st50" points="106,273 120,282 123,265 	"/>
	<polygon class="st51" points="116,251 111,262 124,256 	"/>
	<polygon class="st52" points="111,262 123,265 124,256 	"/>
	<polygon class="st53" points="113,320 101,326 124,332 	"/>
	<polygon class="st54" points="101,326 118,346 124,332 	"/>
	<polygon class="st55" points="120,282 121,301 127,288 	"/>
	<polygon class="st56" points="123,265 120,282 130,272 	"/>
	<polygon class="st57" points="120,282 127,288 130,279 	"/>
	<polygon class="st58" points="130,272 120,282 130,279 	"/>
	<polygon class="st59" points="130,272 130,279 133,269 	"/>
	<polygon class="st60" points="124,256 123,265 133,269 	"/>
	<polygon class="st61" points="123,265 130,272 133,269 	"/>
	<polygon class="st62" points="127,288 121,301 133,294 	"/>
	<polygon class="st63" points="130,586 124,605 134,608 	"/>
	<polygon class="st64" points="124,605 131,625 134,608 	"/>
	<polygon class="st65" points="130,279 127,288 137,285 	"/>
	<polygon class="st66" points="127,288 133,294 137,285 	"/>
	<polygon class="st67" points="133,269 130,279 137,285 	"/>
	<polygon class="st68" points="121,301 113,320 138,318 	"/>
	<polygon class="st69" points="113,320 124,332 138,318 	"/>
	<polygon class="st70" points="133,294 121,301 140,297 	"/>
	<polygon class="st71" points="121,301 138,318 140,297 	"/>
	<polygon class="st72" points="137,285 133,294 140,297 	"/>
	<polygon class="st73" points="134,608 131,625 141,611 	"/>
	<polygon class="st74" points="134,608 141,611 142,590 	"/>
	<polygon class="st75" points="130,586 134,608 142,590 	"/>
	<polygon class="st76" points="141,586 130,586 142,590 	"/>
	<polygon class="st77" points="138,318 124,332 144,342 	"/>
	<polygon class="st78" points="124,332 118,346 144,342 	"/>
	<polygon class="st79" points="118,346 127,374 144,342 	"/>
	<polygon class="st80" points="131,625 136,637 148,624 	"/>
	<polygon class="st81" points="141,611 131,625 148,624 	"/>
	<polygon class="st82" points="127,374 141,401 151,370 	"/>
	<polygon class="st83" points="144,342 127,374 151,370 	"/>
	<polygon class="st84" points="141,586 142,590 153,593 	"/>
	<polygon class="st85" points="142,590 141,611 153,593 	"/>
	<polygon class="st86" points="148,624 136,637 154,629 	"/>
	<polygon class="st87" points="153,593 141,611 156,598 	"/>
	<polygon class="st88" points="151,370 141,401 158,391 	"/>
	<polygon class="st89" points="141,401 154,425 158,391 	"/>
	<polygon class="st90" points="148,624 154,629 160,627 	"/>
	<polygon class="st91" points="154,629 136,637 163,656 	"/>
	<polygon class="st92" points="160,627 154,629 163,656 	"/>
	<polygon class="st93" points="158,391 154,425 166,390 	"/>
	<polygon class="st94" points="151,370 158,391 166,390 	"/>
	<polygon class="st95" points="148,624 160,627 167,609 	"/>
	<polygon class="st96" points="141,611 148,624 167,609 	"/>
	<polygon class="st97" points="156,598 141,611 167,609 	"/>
	<polygon class="st98" points="153,593 156,598 168,594 	"/>
	<polygon class="st99" points="156,598 167,609 168,594 	"/>
	<polygon class="st100" points="167,609 160,627 169,620 	"/>
	<polygon class="st101" points="168,594 167,609 183,586 	"/>
	<polygon class="st102" points="168,594 183,586 185,570 	"/>
	<polygon class="st103" points="154,425 161,438 185,416 	"/>
	<polygon class="st104" points="166,390 154,425 185,416 	"/>
	<polygon class="st105" points="160,627 163,656 187,656 	"/>
	<polygon class="st106" points="169,620 160,627 187,656 	"/>
	<polygon class="st107" points="169,620 187,656 196,632 	"/>
	<polygon class="st108" points="161,438 185,466 198,437 	"/>
	<polygon class="st109" points="185,416 161,438 198,437 	"/>
	<polygon class="st110" points="183,586 167,609 203,611 	"/>
	<polygon class="st111" points="167,609 169,620 203,611 	"/>
	<polygon class="st112" points="169,620 196,632 203,611 	"/>
	<polygon class="st113" points="185,416 198,437 208,432 	"/>
	<polygon class="st114" points="183,586 203,611 223,582 	"/>
	<polygon class="st115" points="185,570 183,586 223,582 	"/>
	<polygon class="st116" points="194,557 185,570 223,582 	"/>
	<polygon class="st117" points="214,552 194,557 223,582 	"/>
	<polygon class="st118" points="214,552 223,582 235,549 	"/>
	<polygon class="st119" points="203,487 232,506 235,452 	"/>
	<polygon class="st120" points="208,432 198,437 235,452 	"/>
	<polygon class="st121" points="198,437 185,466 235,452 	"/>
	<polygon class="st122" points="185,466 203,487 235,452 	"/>
	<polygon class="st123" points="235,549 223,582 242,576 	"/>
	<polygon class="st124" points="248,519 263,529 264,524 	"/>
	<polygon class="st125" points="235,549 242,576 268,567 	"/>
	<polygon class="st126" points="235,549 268,567 270,537 	"/>
	<polygon class="st127" points="264,524 263,529 270,537 	"/>
	<polygon class="st128" points="235,452 232,506 271,463 	"/>
	<polygon class="st129" points="232,506 248,519 279,503 	"/>
	<polygon class="st130" points="271,463 232,506 279,503 	"/>
	<polygon class="st131" points="248,519 264,524 279,503 	"/>
	<polygon class="st132" points="264,524 270,537 279,503 	"/>
	<polygon class="st133" points="270,537 268,567 288,564 	"/>
	<polygon class="st134" points="292,624 289,638 294,639 	"/>
	<polygon class="st135" points="289,638 286,652 294,639 	"/>
	<polygon class="st136" points="271,463 279,503 296,466 	"/>
	<polygon class="st137" points="292,624 294,639 300,624 	"/>
	<polygon class="st138" points="294,639 286,652 300,654 	"/>
	<polygon class="st139" points="296,466 279,503 300,507 	"/>
	<polygon class="st140" points="279,503 270,537 300,507 	"/>
	<polygon class="st141" points="270,537 288,564 306,560 	"/>
	<polygon class="st142" points="288,564 295,570 306,560 	"/>
	<polygon class="st143" points="306,560 295,570 308,579 	"/>
	<polygon class="st144" points="292,624 300,624 309,606 	"/>
	<polygon class="st145" points="311,693 305,697 314,695 	"/>
	<polygon class="st146" points="311,693 314,695 315,690 	"/>
	<polygon class="st147" points="305,697 303,704 315,703 	"/>
	<polygon class="st148" points="314,695 305,697 315,703 	"/>
	<polygon class="st149" points="308,579 309,606 316,589 	"/>
	<polygon class="st150" points="300,507 270,537 316,527 	"/>
	<polygon class="st151" points="270,537 306,560 316,527 	"/>
	<polygon class="st152" points="311,693 315,690 317,680 	"/>
	<polygon class="st153" points="305,697 311,693 317,680 	"/>
	<polygon class="st154" points="316,527 306,560 322,546 	"/>
	<polygon class="st155" points="296,466 300,507 326,458 	"/>
	<polygon class="st156" points="317,680 315,690 326,692 	"/>
	<polygon class="st157" points="315,690 314,695 326,692 	"/>
	<polygon class="st158" points="314,695 315,703 326,692 	"/>
	<polygon class="st159" points="309,606 300,624 327,634 	"/>
	<polygon class="st160" points="300,654 313,666 327,634 	"/>
	<polygon class="st161" points="300,624 294,639 327,634 	"/>
	<polygon class="st162" points="294,639 300,654 327,634 	"/>
	<polygon class="st163" points="309,606 327,634 333,613 	"/>
	<polygon class="st164" points="308,579 316,589 333,567 	"/>
	<polygon class="st165" points="306,560 308,579 333,567 	"/>
	<polygon class="st166" points="322,546 306,560 333,567 	"/>
	<polygon class="st167" points="326,692 315,703 333,704 	"/>
	<polygon class="st168" points="315,703 303,704 333,704 	"/>
	<polygon class="st169" points="313,666 316,671 335,645 	"/>
	<polygon class="st170" points="327,634 313,666 335,645 	"/>
	<polygon class="st171" points="333,567 316,589 336,602 	"/>
	<polygon class="st172" points="316,589 309,606 336,602 	"/>
	<polygon class="st173" points="309,606 333,613 336,602 	"/>
	<polygon class="st174" points="326,692 333,704 348,681 	"/>
	<polygon class="st175" points="316,671 317,680 348,681 	"/>
	<polygon class="st176" points="317,680 326,692 348,681 	"/>
	<polygon class="st177" points="335,645 316,671 350,653 	"/>
	<polygon class="st178" points="316,671 348,681 350,653 	"/>
	<polygon class="st179" points="352,450 326,458 353,525 	"/>
	<polygon class="st180" points="316,527 322,546 353,525 	"/>
	<polygon class="st181" points="322,546 333,567 353,525 	"/>
	<polygon class="st182" points="300,507 316,527 353,525 	"/>
	<polygon class="st183" points="326,458 300,507 353,525 	"/>
	<polygon class="st184" points="333,567 336,602 353,580 	"/>
	<polygon class="st185" points="353,525 333,567 353,580 	"/>
	<polygon class="st186" points="353,580 336,602 355,601 	"/>
	<polygon class="st187" points="350,653 348,681 358,674 	"/>
	<polygon class="st188" points="348,681 333,704 368,701 	"/>
	<polygon class="st189" points="358,674 348,681 368,701 	"/>
	<polygon class="st190" points="350,653 358,674 372,661 	"/>
	<polygon class="st191" points="353,580 355,601 379,583 	"/>
	<polygon class="st192" points="353,525 353,580 379,583 	"/>
	<polygon class="st193" points="358,674 368,701 383,691 	"/>
	<polygon class="st194" points="372,661 358,674 386,672 	"/>
	<polygon class="st195" points="358,674 383,691 386,672 	"/>
	<polygon class="st196" points="379,583 355,601 387,605 	"/>
	<polygon class="st197" points="352,450 353,525 387,522 	"/>
	<polygon class="st198" points="353,525 379,583 387,522 	"/>
	<polygon class="st199" points="352,450 387,522 390,446 	"/>
	<polygon class="st200" points="379,583 387,605 400,583 	"/>
	<polygon class="st119" points="387,522 379,583 400,583 	"/>
	<polygon class="st201" points="400,583 387,605 405,605 	"/>
	<polygon class="st202" points="400,583 405,605 407,605 	"/>
	<polygon class="st203" points="399,635 399,651 412,659 	"/>
	<polygon class="st204" points="368,701 333,704 417,707 	"/>
	<polygon class="st205" points="400,583 407,605 419,579 	"/>
	<polygon class="st206" points="387,522 400,583 421,554 	"/>
	<polygon class="st207" points="400,583 419,579 421,554 	"/>
	<polygon class="st208" points="390,446 387,522 423,450 	"/>
	<polygon class="st209" points="387,522 421,554 424,540 	"/>
	<polygon class="st210" points="420,695 417,707 432,711 	"/>
	<polygon class="st211" points="407,605 402,618 435,616 	"/>
	<polygon class="st212" points="402,618 399,635 435,616 	"/>
	<polygon class="st213" points="419,579 407,605 436,604 	"/>
	<polygon class="st214" points="407,605 435,616 436,604 	"/>
	<polygon class="st215" points="431,691 420,695 438,700 	"/>
	<polygon class="st216" points="420,695 432,711 438,700 	"/>
	<polygon class="st217" points="438,700 432,711 438,705 	"/>
	<polygon class="st218" points="399,635 412,659 440,637 	"/>
	<polygon class="st219" points="435,616 399,635 440,637 	"/>
	<polygon class="st220" points="412,659 423,668 440,637 	"/>
	<polygon class="st221" points="423,668 435,676 440,637 	"/>
	<polygon class="st222" points="421,554 419,579 441,567 	"/>
	<polygon class="st223" points="438,700 438,705 447,694 	"/>
	<polygon class="st224" points="435,676 431,691 447,694 	"/>
	<polygon class="st225" points="431,691 438,700 447,694 	"/>
	<polygon class="st226" points="423,450 387,522 448,462 	"/>
	<polygon class="st227" points="387,522 424,540 448,462 	"/>
	<polygon class="st228" points="419,579 436,604 449,598 	"/>
	<polygon class="st229" points="441,567 419,579 449,598 	"/>
	<polygon class="st230" points="424,540 421,554 453,546 	"/>
	<polygon class="st231" points="421,554 441,567 453,546 	"/>
	<polygon class="st232" points="447,694 438,705 461,699 	"/>
	<polygon class="st233" points="456,692 447,694 461,699 	"/>
	<polygon class="st234" points="440,637 435,676 462,657 	"/>
	<polygon class="st235" points="462,657 435,676 462,677 	"/>
	<polygon class="st236" points="435,676 447,694 462,677 	"/>
	<polygon class="st237" points="447,694 456,692 462,677 	"/>
	<polygon class="st238" points="438,705 432,711 464,709 	"/>
	<polygon class="st239" points="461,699 438,705 464,709 	"/>
	<polygon class="st240" points="448,462 424,540 466,525 	"/>
	<polygon class="st241" points="424,540 453,546 466,525 	"/>
	<polygon class="st242" points="456,692 461,699 467,685 	"/>
	<polygon class="st243" points="462,677 456,692 467,685 	"/>
	<polygon class="st244" points="461,699 464,709 474,707 	"/>
	<polygon class="st245" points="467,685 461,699 474,707 	"/>
	<polygon class="st246" points="448,462 466,525 474,489 	"/>
	<polygon class="st247" points="449,598 459,612 476,587 	"/>
	<polygon class="st248" points="441,567 449,598 476,587 	"/>
	<polygon class="st249" points="453,546 441,567 477,550 	"/>
	<polygon class="st250" points="441,567 476,587 477,550 	"/>
	<polygon class="st251" points="466,525 453,546 477,550 	"/>
	<polygon class="st252" points="477,550 476,587 480,585 	"/>
	<polygon class="st253" points="474,489 466,525 482,507 	"/>
	<polygon class="st254" points="476,587 459,612 486,598 	"/>
	<polygon class="st255" points="467,685 474,707 487,682 	"/>
	<polygon class="st256" points="462,677 467,685 487,682 	"/>
	<polygon class="st257" points="462,657 462,677 487,682 	"/>
	<polygon class="st258" points="463,631 470,647 487,651 	"/>
	<polygon class="st259" points="477,550 480,585 489,566 	"/>
	<polygon class="st260" points="487,682 474,707 494,705 	"/>
	<polygon class="st261" points="463,631 487,651 495,609 	"/>
	<polygon class="st262" points="459,612 463,631 495,609 	"/>
	<polygon class="st263" points="486,598 459,612 495,609 	"/>
	<polygon class="st264" points="466,525 477,550 497,513 	"/>
	<polygon class="st265" points="482,507 466,525 497,513 	"/>
	<polygon class="st266" points="474,489 482,507 497,513 	"/>
	<polygon class="st267" points="474,707 464,709 501,706 	"/>
	<polygon class="st268" points="494,705 474,707 501,706 	"/>
	<polygon class="st269" points="495,609 487,651 504,651 	"/>
	<polygon class="st270" points="495,609 504,651 507,612 	"/>
	<polygon class="st271" points="477,550 489,566 509,558 	"/>
	<polygon class="st272" points="497,513 477,550 509,558 	"/>
	<polygon class="st273" points="509,558 489,566 521,582 	"/>
	<polygon class="st274" points="489,566 480,585 521,582 	"/>
	<polygon class="st275" points="497,513 509,558 525,523 	"/>
	<polygon class="st276" points="507,612 504,651 528,648 	"/>
	<polygon class="st277" points="523,610 507,612 528,648 	"/>
	<polygon class="st278" points="528,648 540,664 541,651 	"/>
	<polygon class="st279" points="523,610 528,648 541,651 	"/>
	<polygon class="st280" points="538,602 523,610 541,651 	"/>
	<polygon class="st281" points="509,558 521,582 548,577 	"/>
	<polygon class="st282" points="541,651 540,664 549,663 	"/>
	<polygon class="st283" points="549,663 540,664 552,672 	"/>
	<polygon class="st284" points="553,519 525,523 561,543 	"/>
	<polygon class="st285" points="525,523 509,558 561,543 	"/>
	<polygon class="st286" points="509,558 548,577 561,543 	"/>
	<polygon class="st287" points="541,651 549,663 568,639 	"/>
	<polygon class="st288" points="558,593 538,602 568,616 	"/>
	<polygon class="st289" points="538,602 541,651 568,616 	"/>
	<polygon class="st290" points="541,651 568,639 568,616 	"/>
	<polygon class="st291" points="549,663 552,672 569,660 	"/>
	<polygon class="st292" points="568,639 549,663 569,660 	"/>
	<polygon class="st293" points="561,543 548,577 572,568 	"/>
	<polygon class="st294" points="553,519 561,543 592,517 	"/>
	<polygon class="st295" points="592,517 561,543 593,535 	"/>
	<polygon class="st296" points="561,543 572,568 596,559 	"/>
	<polygon class="st297" points="593,535 561,543 596,559 	"/>
	<polygon class="st298" points="592,517 593,535 609,512 	"/>
	<polygon class="st299" points="593,535 596,559 617,556 	"/>
	<polygon class="st300" points="609,512 593,535 621,528 	"/>
	<polygon class="st301" points="593,535 617,556 621,528 	"/>
	<polygon class="st302" points="609,512 621,528 640,506 	"/>
	<polygon class="st303" points="621,528 617,556 648,538 	"/>
	<polygon class="st304" points="640,506 621,528 648,538 	"/>
	<polygon class="st305" points="640,506 648,538 657,517 	"/>
	<polygon class="st306" points="640,506 657,517 669,503 	"/>
	<polygon class="st307" points="657,517 648,538 679,528 	"/>
	<polygon class="st308" points="669,503 657,517 679,528 	"/>
	<polygon class="st309" points="669,503 679,528 681,507 	"/>
	<polygon class="st310" points="669,503 681,507 708,498 	"/>
	<polygon class="st311" points="681,507 679,528 712,518 	"/>
	<polygon class="st312" points="708,498 681,507 712,518 	"/>
	<polygon class="st313" points="708,498 712,518 741,496 	"/>
	<polygon class="st314" points="741,496 712,518 747,512 	"/>
	<polygon class="st315" points="741,496 747,512 777,509 	"/>
	<polygon class="st316" points="777,509 747,512 784,516 	"/>
</g>
</svg>
