<?xml version="1.0" encoding="utf-8"?>
<!-- Generator: Adobe Illustrator 19.0.0, SVG Export Plug-In . SVG Version: 6.00 Build 0)  -->
<svg version="1.1" id="图层_1" xmlns="http://www.w3.org/2000/svg" xmlns:xlink="http://www.w3.org/1999/xlink" x="0px" y="0px"
	 width="800px" height="760px" viewBox="0 0 800 760" style="enable-background:new 0 0 800 760;" xml:space="preserve">
<style type="text/css">
	.st0{clip-path:url(#SVGID_2_);}
	.st1{clip-path:url(#SVGID_2_);fill:#D48D71;}
	.st2{clip-path:url(#SVGID_2_);fill:#E2A5A4;}
	.st3{clip-path:url(#SVGID_2_);fill:#D9907F;}
	.st4{clip-path:url(#SVGID_2_);fill:#E99F94;}
	.st5{clip-path:url(#SVGID_2_);fill:#F0967E;}
	.st6{clip-path:url(#SVGID_2_);fill:#FEAC97;}
	.st7{clip-path:url(#SVGID_2_);fill:#C79F95;}
	.st8{clip-path:url(#SVGID_2_);fill:#F0A28C;}
	.st9{clip-path:url(#SVGID_2_);fill:#FFAB93;}
	.st10{clip-path:url(#SVGID_2_);fill:#BB6F58;}
	.st11{clip-path:url(#SVGID_2_);fill:#9B593F;}
	.st12{clip-path:url(#SVGID_2_);fill:#B17158;}
	.st13{clip-path:url(#SVGID_2_);fill:#76463A;}
	.st14{clip-path:url(#SVGID_2_);fill:#A7B3B1;}
	.st15{clip-path:url(#SVGID_2_);fill:#6C443A;}
	.st16{clip-path:url(#SVGID_2_);fill:#3E4442;}
	.st17{clip-path:url(#SVGID_2_);fill:#7B7B7B;}
	.st18{clip-path:url(#SVGID_2_);fill:#2C302F;}
	.st19{clip-path:url(#SVGID_2_);fill:#29322F;}
	.st20{clip-path:url(#SVGID_2_);fill:#283130;}
	.st21{clip-path:url(#SVGID_2_);fill:#7E6C68;}
	.st22{clip-path:url(#SVGID_2_);fill:#2E3430;}
	.st23{clip-path:url(#SVGID_2_);fill:#303936;}
	.st24{clip-path:url(#SVGID_2_);fill:#3A3F39;}
	.st25{clip-path:url(#SVGID_2_);fill:#985441;}
	.st26{clip-path:url(#SVGID_2_);fill:#63473B;}
	.st27{clip-path:url(#SVGID_2_);fill:#494F4B;}
	.st28{clip-path:url(#SVGID_2_);fill:#FD9383;}
	.st29{clip-path:url(#SVGID_2_);fill:#EE8774;}
	.st30{clip-path:url(#SVGID_2_);fill:#C3715B;}
	.st31{clip-path:url(#SVGID_2_);fill:#D6715D;}
	.st32{clip-path:url(#SVGID_2_);fill:#4D5F63;}
	.st33{clip-path:url(#SVGID_2_);fill:#FE9486;}
	.st34{clip-path:url(#SVGID_2_);fill:#C36750;}
	.st35{clip-path:url(#SVGID_2_);fill:#F39B85;}
	.st36{clip-path:url(#SVGID_2_);fill:#FE9A83;}
	.st37{clip-path:url(#SVGID_2_);fill:#262F2E;}
	.st38{clip-path:url(#SVGID_2_);fill:#2A2E2D;}
	.st39{clip-path:url(#SVGID_2_);fill:#BE634E;}
	.st40{clip-path:url(#SVGID_2_);fill:#1A2426;}
	.st41{clip-path:url(#SVGID_2_);fill:#85726E;}
	.st42{clip-path:url(#SVGID_2_);fill:#4C605F;}
	.st43{clip-path:url(#SVGID_2_);fill:#5F4439;}
	.st44{clip-path:url(#SVGID_2_);fill:#7A240D;}
	.st45{clip-path:url(#SVGID_2_);fill:#F88B6E;}
	.st46{clip-path:url(#SVGID_2_);fill:#F08D78;}
	.st47{clip-path:url(#SVGID_2_);fill:#3E4A4A;}
	.st48{clip-path:url(#SVGID_2_);fill:#333534;}
	.st49{clip-path:url(#SVGID_2_);fill:#FAA590;}
	.st50{clip-path:url(#SVGID_2_);fill:#415355;}
	.st51{clip-path:url(#SVGID_2_);fill:#3A4443;}
	.st52{clip-path:url(#SVGID_2_);fill:#273737;}
	.st53{clip-path:url(#SVGID_2_);fill:#3A4245;}
	.st54{clip-path:url(#SVGID_2_);fill:#BE8375;}
	.st55{clip-path:url(#SVGID_2_);fill:#B9826E;}
	.st56{clip-path:url(#SVGID_2_);fill:#83544C;}
	.st57{clip-path:url(#SVGID_2_);fill:#425456;}
	.st58{clip-path:url(#SVGID_2_);fill:#F28A7D;}
	.st59{clip-path:url(#SVGID_2_);fill:#50312E;}
	.st60{clip-path:url(#SVGID_2_);fill:#F2A08A;}
	.st61{clip-path:url(#SVGID_2_);fill:#AB7668;}
	.st62{clip-path:url(#SVGID_2_);fill:#EC947E;}
	.st63{clip-path:url(#SVGID_2_);fill:#E78C77;}
	.st64{clip-path:url(#SVGID_2_);fill:#3B3D3A;}
	.st65{clip-path:url(#SVGID_2_);fill:#636B6E;}
	.st66{clip-path:url(#SVGID_2_);fill:#6C5659;}
	.st67{clip-path:url(#SVGID_2_);fill:#874E3D;}
	.st68{clip-path:url(#SVGID_2_);fill:#D28B75;}
	.st69{clip-path:url(#SVGID_2_);fill:#B66F5D;}
	.st70{clip-path:url(#SVGID_2_);fill:#555D60;}
	.st71{clip-path:url(#SVGID_2_);fill:#434841;}
	.st72{clip-path:url(#SVGID_2_);fill:#57666D;}
	.st73{clip-path:url(#SVGID_2_);fill:#5C6061;}
	.st74{clip-path:url(#SVGID_2_);fill:#1F2827;}
	.st75{clip-path:url(#SVGID_2_);fill:#E88371;}
	.st76{clip-path:url(#SVGID_2_);fill:#CF6C55;}
	.st77{clip-path:url(#SVGID_2_);fill:#A27A72;}
	.st78{clip-path:url(#SVGID_2_);fill:#3E4742;}
	.st79{clip-path:url(#SVGID_2_);fill:#404A49;}
	.st80{clip-path:url(#SVGID_2_);fill:#2E3734;}
	.st81{clip-path:url(#SVGID_2_);fill:#4A5551;}
	.st82{clip-path:url(#SVGID_2_);fill:#959595;}
	.st83{clip-path:url(#SVGID_2_);fill:#47454A;}
	.st84{clip-path:url(#SVGID_2_);fill:#2B3944;}
	.st85{clip-path:url(#SVGID_2_);fill:#233B3F;}
	.st86{clip-path:url(#SVGID_2_);fill:#B3664C;}
	.st87{clip-path:url(#SVGID_2_);fill:#F79E8C;}
	.st88{clip-path:url(#SVGID_2_);fill:#2B3648;}
	.st89{clip-path:url(#SVGID_2_);fill:#2C343F;}
	.st90{clip-path:url(#SVGID_2_);fill:#172B2C;}
	.st91{clip-path:url(#SVGID_2_);fill:#293133;}
	.st92{clip-path:url(#SVGID_2_);fill:#8A5452;}
	.st93{clip-path:url(#SVGID_2_);fill:#232D2C;}
	.st94{clip-path:url(#SVGID_2_);fill:#353938;}
	.st95{clip-path:url(#SVGID_2_);fill:#51636F;}
	.st96{clip-path:url(#SVGID_2_);fill:#384A58;}
	.st97{clip-path:url(#SVGID_2_);fill:#24474D;}
	.st98{clip-path:url(#SVGID_2_);fill:#7B5C61;}
	.st99{clip-path:url(#SVGID_2_);fill:#7C423E;}
	.st100{clip-path:url(#SVGID_2_);fill:#3E3634;}
	.st101{clip-path:url(#SVGID_2_);fill:#412E32;}
	.st102{clip-path:url(#SVGID_2_);fill:#64737A;}
	.st103{clip-path:url(#SVGID_2_);fill:#7D8B8C;}
	.st104{clip-path:url(#SVGID_2_);fill:#64777B;}
	.st105{clip-path:url(#SVGID_2_);fill:#566062;}
	.st106{clip-path:url(#SVGID_2_);fill:#5E6669;}
	.st107{clip-path:url(#SVGID_2_);fill:#ADBBC8;}
	.st108{clip-path:url(#SVGID_2_);fill:#865652;}
	.st109{clip-path:url(#SVGID_2_);fill:#9B594D;}
	.st110{clip-path:url(#SVGID_2_);fill:#B19C97;}
	.st111{clip-path:url(#SVGID_2_);fill:#B9AC9C;}
	.st112{clip-path:url(#SVGID_2_);fill:#C6B4A6;}
	.st113{clip-path:url(#SVGID_2_);fill:#4B5556;}
	.st114{clip-path:url(#SVGID_2_);fill:#41545A;}
	.st115{clip-path:url(#SVGID_2_);fill:#434844;}
	.st116{clip-path:url(#SVGID_2_);fill:#2F342E;}
	.st117{clip-path:url(#SVGID_2_);fill:#CDCAB9;}
	.st118{clip-path:url(#SVGID_2_);fill:#D0C9B7;}
	.st119{clip-path:url(#SVGID_2_);fill:#F0E3DA;}
	.st120{clip-path:url(#SVGID_2_);fill:#584443;}
	.st121{clip-path:url(#SVGID_2_);fill:#364852;}
	.st122{clip-path:url(#SVGID_2_);fill:#5F7990;}
	.st123{clip-path:url(#SVGID_2_);fill:#232520;}
	.st124{clip-path:url(#SVGID_2_);fill:#4E5C5F;}
	.st125{clip-path:url(#SVGID_2_);fill:#BC9F91;}
	.st126{clip-path:url(#SVGID_2_);fill:#FDFDF1;}
	.st127{clip-path:url(#SVGID_2_);fill:#A56E67;}
	.st128{clip-path:url(#SVGID_2_);fill:#343631;}
	.st129{clip-path:url(#SVGID_2_);fill:#6A8694;}
	.st130{clip-path:url(#SVGID_2_);fill:#616C68;}
	.st131{clip-path:url(#SVGID_2_);fill:#3D423C;}
	.st132{clip-path:url(#SVGID_2_);fill:#FCFEF0;}
	.st133{clip-path:url(#SVGID_2_);fill:#525D5F;}
	.st134{clip-path:url(#SVGID_2_);fill:#535957;}
	.st135{clip-path:url(#SVGID_2_);fill:#496370;}
	.st136{clip-path:url(#SVGID_2_);fill:#839EB1;}
	.st137{clip-path:url(#SVGID_2_);fill:#F8FAF7;}
	.st138{clip-path:url(#SVGID_2_);fill:#4E627B;}
	.st139{clip-path:url(#SVGID_2_);fill:#000008;}
	.st140{clip-path:url(#SVGID_2_);fill:#020106;}
	.st141{clip-path:url(#SVGID_2_);fill:#BA9688;}
	.st142{clip-path:url(#SVGID_2_);fill:#705451;}
	.st143{clip-path:url(#SVGID_2_);fill:#7B6E80;}
	.st144{clip-path:url(#SVGID_2_);fill:#49545A;}
	.st145{clip-path:url(#SVGID_2_);fill:#A36967;}
	.st146{clip-path:url(#SVGID_2_);fill:#788B8F;}
	.st147{clip-path:url(#SVGID_2_);fill:#2C322E;}
	.st148{clip-path:url(#SVGID_2_);fill:#333736;}
	.st149{clip-path:url(#SVGID_2_);fill:#8991A8;}
	.st150{clip-path:url(#SVGID_2_);fill:#7690A9;}
	.st151{clip-path:url(#SVGID_2_);fill:#894731;}
	.st152{clip-path:url(#SVGID_2_);fill:#A2513C;}
	.st153{clip-path:url(#SVGID_2_);fill:#6F6A70;}
	.st154{clip-path:url(#SVGID_2_);fill:#D6CABE;}
	.st155{clip-path:url(#SVGID_2_);fill:#FFFAF4;}
	.st156{clip-path:url(#SVGID_2_);fill:#EFE3D3;}
	.st157{clip-path:url(#SVGID_2_);fill:#A97F73;}
	.st158{clip-path:url(#SVGID_2_);fill:#A66C68;}
	.st159{clip-path:url(#SVGID_2_);fill:#AB827E;}
	.st160{clip-path:url(#SVGID_2_);fill:#261617;}
	.st161{clip-path:url(#SVGID_2_);fill:#66788E;}
	.st162{clip-path:url(#SVGID_2_);fill:#82929F;}
	.st163{clip-path:url(#SVGID_2_);fill:#687A7E;}
	.st164{clip-path:url(#SVGID_2_);fill:#828D91;}
	.st165{clip-path:url(#SVGID_2_);fill:#718488;}
	.st166{clip-path:url(#SVGID_2_);fill:#F6F6EC;}
	.st167{clip-path:url(#SVGID_2_);fill:#FDFFFC;}
	.st168{clip-path:url(#SVGID_2_);fill:#5E5F71;}
	.st169{clip-path:url(#SVGID_2_);fill:#516E7E;}
	.st170{clip-path:url(#SVGID_2_);fill:#3B4648;}
	.st171{clip-path:url(#SVGID_2_);fill:#F78E79;}
	.st172{clip-path:url(#SVGID_2_);fill:#486177;}
	.st173{clip-path:url(#SVGID_2_);fill:#5F6B83;}
	.st174{clip-path:url(#SVGID_2_);fill:#B3C3D0;}
	.st175{clip-path:url(#SVGID_2_);fill:#56686A;}
	.st176{clip-path:url(#SVGID_2_);fill:#616C70;}
	.st177{clip-path:url(#SVGID_2_);fill:#587384;}
	.st178{clip-path:url(#SVGID_2_);fill:#718E94;}
	.st179{clip-path:url(#SVGID_2_);fill:#819CA3;}
	.st180{clip-path:url(#SVGID_2_);fill:#240A00;}
	.st181{clip-path:url(#SVGID_2_);fill:#FEFEFC;}
	.st182{clip-path:url(#SVGID_2_);fill:#83969D;}
	.st183{clip-path:url(#SVGID_2_);fill:#FFFFFF;}
	.st184{clip-path:url(#SVGID_2_);fill:#738997;}
	.st185{clip-path:url(#SVGID_2_);fill:#566E7A;}
	.st186{clip-path:url(#SVGID_2_);fill:#8A939A;}
	.st187{clip-path:url(#SVGID_2_);fill:#8D9296;}
	.st188{clip-path:url(#SVGID_2_);fill:#222625;}
	.st189{clip-path:url(#SVGID_2_);fill:#4F2320;}
	.st190{clip-path:url(#SVGID_2_);fill:#81776B;}
	.st191{clip-path:url(#SVGID_2_);fill:#B8A18F;}
	.st192{clip-path:url(#SVGID_2_);fill:#86898E;}
	.st193{clip-path:url(#SVGID_2_);fill:#BB8072;}
	.st194{clip-path:url(#SVGID_2_);fill:#723932;}
	.st195{clip-path:url(#SVGID_2_);fill:#0B0000;}
	.st196{clip-path:url(#SVGID_2_);fill:#F8F8F8;}
	.st197{clip-path:url(#SVGID_2_);fill:#F2FBF6;}
	.st198{clip-path:url(#SVGID_2_);fill:#FEFEFE;}
	.st199{clip-path:url(#SVGID_2_);fill:#E59B8E;}
	.st200{clip-path:url(#SVGID_2_);fill:#333D3E;}
	.st201{clip-path:url(#SVGID_2_);fill:#6B797C;}
	.st202{clip-path:url(#SVGID_2_);fill:#505D63;}
	.st203{clip-path:url(#SVGID_2_);fill:#FF9683;}
	.st204{clip-path:url(#SVGID_2_);fill:#D6B0AD;}
	.st205{clip-path:url(#SVGID_2_);fill:#E9F3F2;}
	.st206{clip-path:url(#SVGID_2_);fill:#596D78;}
	.st207{clip-path:url(#SVGID_2_);fill:#627383;}
	.st208{clip-path:url(#SVGID_2_);fill:#6D8994;}
	.st209{clip-path:url(#SVGID_2_);fill:#4B6572;}
	.st210{clip-path:url(#SVGID_2_);fill:#5D6E7E;}
	.st211{clip-path:url(#SVGID_2_);fill:#CBBAAA;}
	.st212{clip-path:url(#SVGID_2_);fill:#D7C9C0;}
	.st213{clip-path:url(#SVGID_2_);fill:#FCADA6;}
	.st214{clip-path:url(#SVGID_2_);fill:#C77F71;}
	.st215{clip-path:url(#SVGID_2_);fill:#394748;}
	.st216{clip-path:url(#SVGID_2_);fill:#3B4B4B;}
	.st217{clip-path:url(#SVGID_2_);fill:#2F4143;}
	.st218{clip-path:url(#SVGID_2_);fill:#374649;}
	.st219{clip-path:url(#SVGID_2_);fill:#5A6D71;}
	.st220{clip-path:url(#SVGID_2_);fill:#D9E3E4;}
	.st221{clip-path:url(#SVGID_2_);fill:#8496A2;}
	.st222{clip-path:url(#SVGID_2_);fill:#3A4E4F;}
	.st223{clip-path:url(#SVGID_2_);fill:#314C57;}
	.st224{clip-path:url(#SVGID_2_);fill:#5B6E7D;}
	.st225{clip-path:url(#SVGID_2_);fill:#465051;}
	.st226{clip-path:url(#SVGID_2_);fill:#63777E;}
	.st227{clip-path:url(#SVGID_2_);fill:#5B6C7E;}
	.st228{clip-path:url(#SVGID_2_);fill:#384B4F;}
	.st229{clip-path:url(#SVGID_2_);fill:#5A6A7A;}
	.st230{clip-path:url(#SVGID_2_);fill:#475150;}
	.st231{clip-path:url(#SVGID_2_);fill:#3B4547;}
	.st232{clip-path:url(#SVGID_2_);fill:#2C353C;}
	.st233{clip-path:url(#SVGID_2_);fill:#3B464C;}
	.st234{clip-path:url(#SVGID_2_);fill:#7D8F99;}
	.st235{clip-path:url(#SVGID_2_);fill:#595D66;}
	.st236{clip-path:url(#SVGID_2_);fill:#8E5452;}
	.st237{clip-path:url(#SVGID_2_);fill:#B47161;}
	.st238{clip-path:url(#SVGID_2_);fill:#202932;}
	.st239{clip-path:url(#SVGID_2_);fill:#CA7D6D;}
	.st240{clip-path:url(#SVGID_2_);fill:#415762;}
	.st241{clip-path:url(#SVGID_2_);fill:#374B54;}
	.st242{clip-path:url(#SVGID_2_);fill:#CA6E55;}
	.st243{clip-path:url(#SVGID_2_);fill:#D79684;}
	.st244{clip-path:url(#SVGID_2_);fill:#F19377;}
	.st245{clip-path:url(#SVGID_2_);fill:#FE8E80;}
	.st246{clip-path:url(#SVGID_2_);fill:#CC7C71;}
	.st247{clip-path:url(#SVGID_2_);fill:#DF857A;}
	.st248{clip-path:url(#SVGID_2_);fill:#FE9F89;}
	.st249{clip-path:url(#SVGID_2_);fill:#41545B;}
	.st250{clip-path:url(#SVGID_2_);fill:#FA947D;}
	.st251{clip-path:url(#SVGID_2_);fill:#FCAA94;}
	.st252{clip-path:url(#SVGID_2_);fill:#CD795F;}
	.st253{clip-path:url(#SVGID_2_);fill:#AD5643;}
	.st254{clip-path:url(#SVGID_2_);fill:#B08177;}
	.st255{clip-path:url(#SVGID_2_);fill:#CE7972;}
	.st256{clip-path:url(#SVGID_2_);fill:#DDA2A6;}
	.st257{clip-path:url(#SVGID_2_);fill:#FCBAA4;}
	.st258{clip-path:url(#SVGID_2_);fill:#EDE4D5;}
	.st259{clip-path:url(#SVGID_2_);fill:#B9654D;}
	.st260{clip-path:url(#SVGID_2_);fill:#FDA18A;}
	.st261{clip-path:url(#SVGID_2_);fill:#F7FFFF;}
	.st262{clip-path:url(#SVGID_2_);fill:#F8FEFA;}
	.st263{clip-path:url(#SVGID_2_);fill:#F29B87;}
	.st264{clip-path:url(#SVGID_2_);fill:#CB735D;}
	.st265{clip-path:url(#SVGID_2_);fill:#F59E8A;}
	.st266{clip-path:url(#SVGID_2_);fill:#ED957D;}
	.st267{clip-path:url(#SVGID_2_);fill:#F99C7D;}
	.st268{clip-path:url(#SVGID_2_);fill:#E8A48D;}
	.st269{clip-path:url(#SVGID_2_);fill:#DD8874;}
	.st270{clip-path:url(#SVGID_2_);fill:#C4917E;}
	.st271{clip-path:url(#SVGID_2_);fill:#DB7C68;}
	.st272{clip-path:url(#SVGID_2_);fill:#FEA994;}
	.st273{clip-path:url(#SVGID_2_);fill:#EF9175;}
	.st274{clip-path:url(#SVGID_2_);fill:#EE816A;}
</style>
<g>
	<defs>
		<rect id="SVGID_1_" width="800" height="760"/>
	</defs>
	<clipPath id="SVGID_2_">
		<use xlink:href="#SVGID_1_"  style="overflow:visible;"/>
	</clipPath>
	<g class="st0">
		<defs>
			<rect id="SVGID_3_" width="800" height="760"/>
		</defs>
		<clipPath id="SVGID_4_">
			<use xlink:href="#SVGID_3_"  style="overflow:visible;"/>
		</clipPath>
		<image style="overflow:visible;clip-path:url(#SVGID_4_);" width="800" height="760" xlink:href="98C694FD.jpg" >
		</image>
	</g>
	<polygon class="st1" points="117,691 126,709 135,695 	"/>
	<polygon class="st2" points="117,691 135,695 140,674 	"/>
	<polygon class="st3" points="135,695 126,709 148,701 	"/>
	<polygon class="st4" points="140,674 135,695 148,687 	"/>
	<polygon class="st5" points="148,701 126,709 164,718 	"/>
	<polygon class="st6" points="140,674 148,687 182,678 	"/>
	<polygon class="st7" points="148,701 164,718 186,709 	"/>
	<polygon class="st8" points="186,709 164,718 191,718 	"/>
	<polygon class="st9" points="140,674 182,678 206,660 	"/>
	<polygon class="st10" points="206,660 182,678 223,675 	"/>
	<polygon class="st11" points="206,660 223,675 270,668 	"/>
	<polygon class="st12" points="206,660 270,668 284,643 	"/>
	<polygon class="st13" points="284,643 270,668 297,661 	"/>
	<polygon class="st14" points="286,607 284,643 300,659 	"/>
	<polygon class="st15" points="284,643 297,661 300,659 	"/>
	<polygon class="st16" points="300,659 297,661 324,689 	"/>
	<polygon class="st17" points="297,661 270,668 324,689 	"/>
	<polygon class="st18" points="279,563 286,607 345,562 	"/>
	<polygon class="st19" points="277,525 279,563 345,562 	"/>
	<polygon class="st20" points="302,476 277,525 345,562 	"/>
	<polygon class="st21" points="337,232 332,249 350,227 	"/>
	<polygon class="st22" points="286,607 300,659 357,627 	"/>
	<polygon class="st23" points="345,562 286,607 357,627 	"/>
	<polygon class="st24" points="300,659 324,689 357,627 	"/>
	<polygon class="st25" points="336,698 345,707 359,699 	"/>
	<polygon class="st26" points="324,689 336,698 359,699 	"/>
	<polygon class="st27" points="357,627 324,689 359,699 	"/>
	<polygon class="st28" points="342,275 361,289 371,238 	"/>
	<polygon class="st29" points="332,249 342,275 371,238 	"/>
	<polygon class="st30" points="350,227 332,249 371,238 	"/>
	<polygon class="st31" points="359,699 345,707 371,724 	"/>
	<polygon class="st32" points="357,627 359,699 372,695 	"/>
	<polygon class="st33" points="359,699 371,724 382,716 	"/>
	<polygon class="st34" points="372,695 359,699 382,716 	"/>
	<polygon class="st35" points="371,238 361,289 385,246 	"/>
	<polygon class="st36" points="361,289 385,302 385,246 	"/>
	<polygon class="st37" points="365,388 327,429 385,441 	"/>
	<polygon class="st38" points="327,429 302,476 385,441 	"/>
	<polygon class="st39" points="372,695 382,716 389,695 	"/>
	<polygon class="st40" points="302,476 345,562 389,527 	"/>
	<polygon class="st41" points="382,716 371,724 392,722 	"/>
	<polygon class="st42" points="357,627 372,695 394,691 	"/>
	<polygon class="st43" points="372,695 389,695 394,691 	"/>
	<polygon class="st44" points="394,691 389,695 398,706 	"/>
	<polygon class="st45" points="389,695 382,716 398,706 	"/>
	<polygon class="st46" points="382,716 392,722 398,706 	"/>
	<polygon class="st47" points="385,441 302,476 403,491 	"/>
	<polygon class="st48" points="302,476 389,527 403,491 	"/>
	<polygon class="st49" points="398,706 392,722 404,721 	"/>
	<polygon class="st50" points="385,441 403,491 404,452 	"/>
	<polygon class="st51" points="384,360 365,388 404,368 	"/>
	<polygon class="st52" points="365,388 385,441 404,368 	"/>
	<polygon class="st53" points="384,360 404,368 407,328 	"/>
	<polygon class="st54" points="371,238 385,246 409,221 	"/>
	<polygon class="st55" points="350,227 371,238 409,221 	"/>
	<polygon class="st56" points="394,691 398,706 410,692 	"/>
	<polygon class="st57" points="357,627 394,691 410,692 	"/>
	<polygon class="st58" points="398,706 404,721 412,712 	"/>
	<polygon class="st59" points="410,692 398,706 412,700 	"/>
	<polygon class="st60" points="398,706 412,712 412,700 	"/>
	<polygon class="st61" points="409,221 385,246 421,257 	"/>
	<polygon class="st62" points="385,246 385,302 421,257 	"/>
	<polygon class="st63" points="385,302 412,305 421,257 	"/>
	<polygon class="st64" points="403,491 389,527 422,532 	"/>
	<polygon class="st65" points="412,305 407,328 426,302 	"/>
	<polygon class="st66" points="404,452 403,491 430,501 	"/>
	<polygon class="st67" points="403,491 422,532 430,501 	"/>
	<polygon class="st68" points="421,257 412,305 432,269 	"/>
	<polygon class="st69" points="412,305 426,302 432,269 	"/>
	<polygon class="st70" points="389,527 345,562 432,545 	"/>
	<polygon class="st71" points="422,532 389,527 432,545 	"/>
	<polygon class="st72" points="345,562 357,627 432,545 	"/>
	<polygon class="st73" points="409,221 421,257 442,212 	"/>
	<polygon class="st74" points="407,328 404,368 443,361 	"/>
	<polygon class="st75" points="430,501 422,532 444,537 	"/>
	<polygon class="st76" points="422,532 432,545 444,537 	"/>
	<polygon class="st77" points="404,452 430,501 448,492 	"/>
	<polygon class="st78" points="404,452 448,492 455,403 	"/>
	<polygon class="st79" points="443,361 404,368 455,403 	"/>
	<polygon class="st80" points="385,441 404,452 455,403 	"/>
	<polygon class="st81" points="404,368 385,441 455,403 	"/>
	<polygon class="st82" points="412,700 412,712 459,693 	"/>
	<polygon class="st83" points="410,692 412,700 459,693 	"/>
	<polygon class="st84" points="448,184 442,212 460,195 	"/>
	<polygon class="st85" points="460,195 442,212 460,208 	"/>
	<polygon class="st86" points="430,501 444,537 460,528 	"/>
	<polygon class="st87" points="448,492 430,501 460,528 	"/>
	<polygon class="st88" points="448,184 460,195 461,191 	"/>
	<polygon class="st89" points="460,208 442,212 463,227 	"/>
	<polygon class="st90" points="421,257 432,269 463,227 	"/>
	<polygon class="st91" points="442,212 421,257 463,227 	"/>
	<polygon class="st92" points="460,195 460,208 464,207 	"/>
	<polygon class="st93" points="426,302 407,328 466,326 	"/>
	<polygon class="st94" points="407,328 443,361 466,326 	"/>
	<polygon class="st95" points="463,163 447,174 470,175 	"/>
	<polygon class="st96" points="447,174 448,184 470,175 	"/>
	<polygon class="st97" points="448,184 461,191 470,175 	"/>
	<polygon class="st98" points="460,208 463,227 470,222 	"/>
	<polygon class="st99" points="464,207 460,208 470,222 	"/>
	<polygon class="st100" points="410,692 459,693 470,677 	"/>
	<polygon class="st101" points="470,222 463,227 471,230 	"/>
	<polygon class="st102" points="463,227 432,269 471,230 	"/>
	<polygon class="st103" points="432,545 357,627 471,637 	"/>
	<polygon class="st104" points="357,627 410,692 471,637 	"/>
	<polygon class="st105" points="410,692 470,677 471,637 	"/>
	<polygon class="st106" points="444,537 432,545 471,637 	"/>
	<polygon class="st107" points="447,174 463,163 473,147 	"/>
	<polygon class="st108" points="470,175 461,191 478,183 	"/>
	<polygon class="st109" points="461,191 460,195 478,183 	"/>
	<polygon class="st110" points="470,222 471,230 478,230 	"/>
	<polygon class="st111" points="470,222 478,230 481,212 	"/>
	<polygon class="st112" points="464,207 470,222 481,212 	"/>
	<polygon class="st113" points="471,230 432,269 484,277 	"/>
	<polygon class="st114" points="478,230 471,230 484,277 	"/>
	<polygon class="st115" points="432,269 426,302 484,277 	"/>
	<polygon class="st116" points="426,302 466,326 484,277 	"/>
	<polygon class="st117" points="464,207 481,212 488,198 	"/>
	<polygon class="st118" points="460,195 464,207 488,198 	"/>
	<polygon class="st119" points="478,183 460,195 488,198 	"/>
	<polygon class="st120" points="470,175 478,183 491,164 	"/>
	<polygon class="st121" points="463,163 470,175 491,164 	"/>
	<polygon class="st122" points="473,147 463,163 491,164 	"/>
	<polygon class="st123" points="484,277 466,326 491,288 	"/>
	<polygon class="st124" points="478,230 484,277 492,226 	"/>
	<polygon class="st125" points="481,212 478,230 492,226 	"/>
	<polygon class="st126" points="478,183 488,198 495,179 	"/>
	<polygon class="st127" points="491,164 478,183 495,179 	"/>
	<polygon class="st128" points="491,288 466,326 495,291 	"/>
	<polygon class="st129" points="473,147 491,164 497,144 	"/>
	<polygon class="st130" points="443,361 455,403 498,350 	"/>
	<polygon class="st131" points="466,326 443,361 498,350 	"/>
	<polygon class="st132" points="495,179 488,198 504,200 	"/>
	<polygon class="st133" points="448,492 460,528 504,464 	"/>
	<polygon class="st134" points="455,403 448,492 504,464 	"/>
	<polygon class="st135" points="491,164 495,179 505,165 	"/>
	<polygon class="st136" points="497,144 491,164 505,165 	"/>
	<polygon class="st137" points="495,179 504,200 507,176 	"/>
	<polygon class="st138" points="505,165 495,179 507,176 	"/>
	<polygon class="st139" points="481,212 492,226 507,209 	"/>
	<polygon class="st140" points="488,198 481,212 507,209 	"/>
	<polygon class="st141" points="504,200 488,198 507,209 	"/>
	<polygon class="st142" points="507,209 492,226 509,217 	"/>
	<polygon class="st143" points="497,144 505,165 511,152 	"/>
	<polygon class="st144" points="471,637 470,677 514,676 	"/>
	<polygon class="st145" points="511,152 505,165 515,155 	"/>
	<polygon class="st146" points="504,464 460,528 515,530 	"/>
	<polygon class="st147" points="495,291 466,326 517,313 	"/>
	<polygon class="st148" points="466,326 498,350 517,313 	"/>
	<polygon class="st149" points="511,152 515,155 518,148 	"/>
	<polygon class="st150" points="497,144 511,152 518,148 	"/>
	<polygon class="st151" points="470,677 459,693 518,694 	"/>
	<polygon class="st152" points="514,676 470,677 518,694 	"/>
	<polygon class="st153" points="507,209 509,217 520,201 	"/>
	<polygon class="st154" points="504,200 507,209 520,201 	"/>
	<polygon class="st155" points="507,176 504,200 521,187 	"/>
	<polygon class="st156" points="504,200 520,201 521,187 	"/>
	<polygon class="st157" points="484,277 491,288 521,284 	"/>
	<polygon class="st158" points="491,288 495,291 521,284 	"/>
	<polygon class="st159" points="495,291 517,313 521,294 	"/>
	<polygon class="st160" points="521,284 495,291 521,294 	"/>
	<polygon class="st161" points="518,148 515,155 522,156 	"/>
	<polygon class="st162" points="504,464 515,530 525,478 	"/>
	<polygon class="st163" points="515,530 460,528 525,588 	"/>
	<polygon class="st164" points="460,528 444,537 525,588 	"/>
	<polygon class="st165" points="444,537 471,637 525,588 	"/>
	<polygon class="st166" points="515,155 505,165 526,173 	"/>
	<polygon class="st167" points="522,156 515,155 526,173 	"/>
	<polygon class="st168" points="505,165 507,176 526,173 	"/>
	<polygon class="st169" points="507,176 521,187 526,173 	"/>
	<polygon class="st170" points="471,637 514,676 527,666 	"/>
	<polygon class="st171" points="514,676 518,694 527,666 	"/>
	<polygon class="st172" points="521,187 520,201 528,181 	"/>
	<polygon class="st173" points="526,173 521,187 528,181 	"/>
	<polygon class="st174" points="504,464 525,478 529,430 	"/>
	<polygon class="st175" points="498,350 455,403 529,430 	"/>
	<polygon class="st176" points="455,403 504,464 529,430 	"/>
	<polygon class="st177" points="520,201 509,217 531,223 	"/>
	<polygon class="st178" points="525,588 471,637 531,628 	"/>
	<polygon class="st179" points="471,637 527,666 531,628 	"/>
	<polygon class="st180" points="526,173 528,181 534,169 	"/>
	<polygon class="st181" points="522,156 526,173 534,169 	"/>
	<polygon class="st182" points="518,148 522,156 536,161 	"/>
	<polygon class="st183" points="522,156 534,169 536,161 	"/>
	<polygon class="st184" points="509,217 492,226 536,247 	"/>
	<polygon class="st185" points="531,223 509,217 536,247 	"/>
	<polygon class="st186" points="492,226 484,277 536,247 	"/>
	<polygon class="st187" points="484,277 521,284 536,247 	"/>
	<polygon class="st188" points="517,313 498,350 536,326 	"/>
	<polygon class="st189" points="521,294 517,313 538,300 	"/>
	<polygon class="st190" points="521,284 521,294 539,290 	"/>
	<polygon class="st191" points="521,294 538,300 539,290 	"/>
	<polygon class="st192" points="536,247 521,284 539,290 	"/>
	<polygon class="st193" points="517,313 536,326 539,309 	"/>
	<polygon class="st194" points="538,300 517,313 539,309 	"/>
	<polygon class="st195" points="534,169 528,181 543,176 	"/>
	<polygon class="st196" points="536,161 534,169 550,167 	"/>
	<polygon class="st197" points="534,169 543,176 550,167 	"/>
	<polygon class="st198" points="518,148 536,161 550,167 	"/>
	<polygon class="st199" points="539,309 536,326 552,332 	"/>
	<polygon class="st200" points="536,326 498,350 552,332 	"/>
	<polygon class="st201" points="498,350 529,430 552,413 	"/>
	<polygon class="st202" points="552,332 498,350 552,413 	"/>
	<polygon class="st203" points="527,666 518,694 552,687 	"/>
	<polygon class="st204" points="518,694 548,699 552,687 	"/>
	<polygon class="st205" points="550,167 543,176 557,176 	"/>
	<polygon class="st206" points="531,223 536,247 557,208 	"/>
	<polygon class="st207" points="557,176 543,176 557,208 	"/>
	<polygon class="st208" points="520,201 531,223 557,208 	"/>
	<polygon class="st209" points="528,181 520,201 557,208 	"/>
	<polygon class="st210" points="543,176 528,181 557,208 	"/>
	<polygon class="st211" points="538,300 539,309 565,297 	"/>
	<polygon class="st212" points="539,290 538,300 565,297 	"/>
	<polygon class="st213" points="539,309 552,332 566,317 	"/>
	<polygon class="st214" points="565,297 539,309 566,317 	"/>
	<polygon class="st215" points="557,208 536,247 571,259 	"/>
	<polygon class="st216" points="536,247 539,290 571,259 	"/>
	<polygon class="st217" points="539,290 565,297 571,259 	"/>
	<polygon class="st218" points="571,259 565,297 573,294 	"/>
	<polygon class="st219" points="552,332 552,413 578,341 	"/>
	<polygon class="st220" points="566,317 552,332 578,341 	"/>
	<polygon class="st221" points="550,167 557,176 583,171 	"/>
	<polygon class="st222" points="557,208 571,259 591,199 	"/>
	<polygon class="st223" points="557,176 557,208 591,199 	"/>
	<polygon class="st224" points="583,171 557,176 591,199 	"/>
	<polygon class="st225" points="571,259 573,294 591,276 	"/>
	<polygon class="st226" points="578,341 552,413 604,398 	"/>
	<polygon class="st227" points="583,171 591,199 608,175 	"/>
	<polygon class="st228" points="591,276 573,294 608,282 	"/>
	<polygon class="st229" points="608,175 591,199 610,200 	"/>
	<polygon class="st230" points="571,259 591,276 615,223 	"/>
	<polygon class="st231" points="591,199 571,259 615,223 	"/>
	<polygon class="st232" points="610,200 591,199 615,223 	"/>
	<polygon class="st233" points="591,276 608,282 615,223 	"/>
	<polygon class="st234" points="578,341 604,398 628,348 	"/>
	<polygon class="st235" points="608,175 610,200 629,180 	"/>
	<polygon class="st236" points="610,200 615,223 629,180 	"/>
	<polygon class="st237" points="629,180 615,223 636,234 	"/>
	<polygon class="st238" points="615,223 608,282 636,234 	"/>
	<polygon class="st239" points="629,180 636,234 649,181 	"/>
	<polygon class="st240" points="628,348 604,398 650,375 	"/>
	<polygon class="st241" points="642,339 628,348 650,375 	"/>
	<polygon class="st242" points="638,272 650,303 651,272 	"/>
	<polygon class="st243" points="653,258 651,272 660,267 	"/>
	<polygon class="st244" points="651,272 650,303 661,284 	"/>
	<polygon class="st245" points="660,267 651,272 661,284 	"/>
	<polygon class="st246" points="649,181 636,234 662,188 	"/>
	<polygon class="st247" points="636,234 656,236 662,188 	"/>
	<polygon class="st248" points="661,284 650,303 662,295 	"/>
	<polygon class="st249" points="642,339 650,375 666,349 	"/>
	<polygon class="st250" points="660,267 661,284 669,286 	"/>
	<polygon class="st251" points="662,295 650,303 670,303 	"/>
	<polygon class="st252" points="650,303 642,339 670,303 	"/>
	<polygon class="st253" points="642,339 666,349 670,303 	"/>
	<polygon class="st254" points="662,295 670,303 673,300 	"/>
	<polygon class="st255" points="662,188 656,236 677,206 	"/>
	<polygon class="st256" points="656,236 677,220 677,206 	"/>
	<polygon class="st257" points="660,267 669,286 682,274 	"/>
	<polygon class="st258" points="660,267 682,274 687,270 	"/>
	<polygon class="st259" points="669,286 673,300 687,287 	"/>
	<polygon class="st260" points="682,274 669,286 687,287 	"/>
	<polygon class="st261" points="687,270 682,274 688,282 	"/>
	<polygon class="st262" points="682,274 687,287 688,282 	"/>
	<polygon class="st263" points="670,303 666,349 688,336 	"/>
	<polygon class="st264" points="673,300 670,303 688,336 	"/>
	<polygon class="st265" points="687,287 673,300 701,295 	"/>
	<polygon class="st266" points="688,282 687,287 701,295 	"/>
	<polygon class="st267" points="690,253 687,270 702,259 	"/>
	<polygon class="st268" points="673,300 688,336 707,310 	"/>
	<polygon class="st269" points="701,295 673,300 707,310 	"/>
	<polygon class="st270" points="688,282 701,295 712,280 	"/>
	<polygon class="st271" points="687,270 688,282 712,280 	"/>
	<polygon class="st272" points="702,259 687,270 712,280 	"/>
	<polygon class="st273" points="701,295 707,310 714,286 	"/>
	<polygon class="st274" points="712,280 701,295 714,286 	"/>
</g>
</svg>
