<?xml version="1.0" encoding="utf-8"?>
<!-- Generator: Adobe Illustrator 19.0.0, SVG Export Plug-In . SVG Version: 6.00 Build 0)  -->
<svg version="1.1" id="图层_1" xmlns="http://www.w3.org/2000/svg" xmlns:xlink="http://www.w3.org/1999/xlink" x="0px" y="0px"
	 width="600px" height="200px" viewBox="0 0 600 200" style="enable-background:new 0 0 600 200;" xml:space="preserve">
<style type="text/css">
	.st0{fill:#E60012;}
</style>
<g id="XMLID_1_">
	<polygon id="XMLID_37_" class="st0" points="95.6,55 79.5,55 79.5,70.3 95.6,63.2 	"/>
	<polygon id="XMLID_38_" class="st0" points="79.5,118.2 95.6,114.8 95.6,110.4 79.5,105.2 	"/>
	<polygon id="XMLID_39_" class="st0" points="79.5,105.2 95.6,110.4 95.6,104.1 79.5,83.1 	"/>
	<polygon id="XMLID_40_" class="st0" points="79.5,130.6 95.6,130.6 95.6,114.8 79.5,118.2 	"/>
	<polygon id="XMLID_42_" class="st0" points="95.6,75.9 95.6,63.2 79.5,70.3 79.5,83.1 95.6,104.1 95.6,93.6 95.6,90.7 	"/>
	<path id="XMLID_43_" class="st0" d="M111.9,91.1l6.6-8.8L109.4,70L98,86.7c-0.7,1.1-1.4,2.5-2.1,4.1h-0.2v2.9h0.2l17.5-0.5
		L111.9,91.1z"/>
	<path id="XMLID_44_" class="st0" d="M113.4,93.1l-17.5,0.5c0.7,1.8,1.4,3.1,2,4l16.9,24.4l6.4-18.4L113.4,93.1z"/>
	<polygon id="XMLID_47_" class="st0" points="123.3,75.9 120.7,55 119.7,55 109.4,70 118.5,82.2 	"/>
</g>
<g id="XMLID_4_">
	<polygon id="XMLID_9_" class="st0" points="121.2,103.6 114.8,122 120.8,130.6 131,130.6 123.9,107.3 	"/>
	<polygon id="XMLID_30_" class="st0" points="138.9,55 120.7,55 123.3,75.9 	"/>
	<polygon id="XMLID_31_" class="st0" points="131,130.6 141.2,130.6 123.9,107.3 	"/>
	<path id="XMLID_36_" class="st0" d="M197.7,93.2c0,0.7,0,1.5-0.1,2.2l10,8.4V68.2c-0.9-1.3-1.9-2.5-3-3.7c-1.3-1.4-2.6-2.7-4.1-3.8
		l-8,13.9C196,79.2,197.7,85.4,197.7,93.2z"/>
	<path id="XMLID_41_" class="st0" d="M142.3,81.1c-1,3.9-1.6,8.2-1.6,12.7c0,2,0.1,4,0.3,5.8l7.2-1.7L142.3,81.1z"/>
	<path id="XMLID_45_" class="st0" d="M141.1,99.6c1,8.6,4.3,15.8,9.8,21.6c2.4,2.5,5,4.5,7.9,6.2l-10.5-29.5L141.1,99.6z"/>
	<path id="XMLID_46_" class="st0" d="M177.6,118c-4.1,0-7.6-1-10.5-3.1l-2,15.3c3.7,1.2,7.8,1.8,12.2,1.8c9.9,0,18.1-2.9,24.6-8.7
		l-11.6-9.8C187,116.4,182.8,118,177.6,118z"/>
	<path id="XMLID_48_" class="st0" d="M163,111c-3.1-4.1-4.8-9.2-5.2-15.3l-9.5,2.3l10.5,29.5c2,1.1,4.1,2,6.4,2.7l2-15.3
		C165.6,113.9,164.2,112.6,163,111z"/>
	<path id="XMLID_49_" class="st0" d="M157.8,95.7c-0.1-0.9-0.1-1.8-0.1-2.7c0-6.8,1.5-12.4,4.5-16.9l-16-4.6c-1.7,3-3,6.2-3.9,9.6
		l6,16.8L157.8,95.7z"/>
	<path id="XMLID_50_" class="st0" d="M197.6,95.4c-0.3,6.5-2,11.8-5.2,15.9c-0.6,0.8-1.3,1.5-2,2.2l11.6,9.8
		c0.8-0.7,1.6-1.5,2.4-2.3c1.2-1.3,2.3-2.7,3.4-4.2v-13L197.6,95.4z"/>
	<path id="XMLID_51_" class="st0" d="M163.2,74.7c2.5-3.3,5.8-5.4,9.7-6.4l-1-14.1c-8.3,1.2-15.2,4.8-20.7,10.7
		c-1.9,2-3.5,4.2-4.9,6.6l16,4.6C162.5,75.6,162.8,75.1,163.2,74.7z"/>
	<path id="XMLID_52_" class="st0" d="M178.1,67.7c6.2,0,11,2.3,14.5,6.9c0,0,0,0,0,0l8-13.9c-6-4.7-13.3-7-22-7
		c-2.3,0-4.6,0.2-6.7,0.5l1,14.1C174.4,67.9,176.2,67.7,178.1,67.7z"/>
</g>
<g id="XMLID_3_">
	<polygon id="XMLID_27_" class="st0" points="227.3,90.7 227.3,123.2 242.6,112.9 242.6,102.1 232.9,79.3 	"/>
	<path id="XMLID_28_" class="st0" d="M244.9,55h-0.2l-11.8,24.3l9.7,22.8V87.6c0-5.4-0.1-9.5-0.4-12.1h0.2c0.7,1.6,2,3.6,3.6,6.2
		l3.8,5.8l2.5-21L244.9,55z"/>
	<polygon id="XMLID_29_" class="st0" points="244.7,55 227.3,55 227.3,66.3 232.9,79.3 	"/>
	<polygon id="XMLID_34_" class="st0" points="227.3,130.6 242.6,130.6 242.6,112.9 227.3,123.2 	"/>
	<polygon id="XMLID_35_" class="st0" points="294.6,55 279.3,55 279.3,66.4 294.6,73.9 	"/>
	<polygon id="XMLID_53_" class="st0" points="227.3,66.3 227.3,90.7 232.9,79.3 	"/>
	<polygon id="XMLID_54_" class="st0" points="294.6,73.9 279.3,66.4 279.3,85.8 294.6,87.4 	"/>
	<polygon id="XMLID_55_" class="st0" points="285.6,124.9 294.6,122.8 294.6,112.1 281.5,113.2 	"/>
	<polygon id="XMLID_56_" class="st0" points="275.8,127.2 278.1,130.6 287.5,130.6 285.6,124.9 	"/>
	<polygon id="XMLID_57_" class="st0" points="294.6,122.8 285.6,124.9 287.5,130.6 294.6,130.6 	"/>
	<polygon id="XMLID_58_" class="st0" points="281.5,113.2 267.4,114.3 275.8,127.2 285.6,124.9 	"/>
	<path id="XMLID_59_" class="st0" d="M294.6,112.1V87.4l-15.3-1.6v12.3c0,4.5,0.1,7.7,0.4,9.7l1.8,5.4L294.6,112.1z"/>
	<path id="XMLID_60_" class="st0" d="M279.7,107.8c0,0.3,0.1,0.5,0.1,0.8h-0.2c-0.5-0.8-1.7-2.8-3.8-6l-23.4-36.1l-2.5,21l17.5,26.8
		l14.2-1.1L279.7,107.8z"/>
	<path id="XMLID_61_" class="st0" d="M207.6,68.2v35.6l4.6,3.8c1.6-4.6,2.4-9.7,2.4-15.3C214.5,82.8,212.2,74.8,207.6,68.2z"/>
	<path id="XMLID_62_" class="st0" d="M207.6,116.8c1.9-2.8,3.4-5.9,4.6-9.2l-4.6-3.8V116.8z"/>
</g>
<g id="XMLID_5_">
	<path id="XMLID_65_" class="st0" d="M370.4,72.4V57.1c-3.9-1.5-8.2-2.5-12.9-3l-4.7,13.3C359.6,67.9,365.4,69.5,370.4,72.4z"/>
	<path id="XMLID_66_" class="st0" d="M331.2,74.4c2.4-2.5,5.1-4.3,8.2-5.5l-5.3-13.1c-4.6,1.4-8.7,3.6-12.3,6.5l9.2,12.3
		C331,74.5,331.1,74.5,331.2,74.4z"/>
	<path id="XMLID_67_" class="st0" d="M348.9,67.3c1.3,0,2.7,0.1,3.9,0.1l4.7-13.3c-2.6-0.3-5.4-0.4-8.3-0.4
		c-5.5,0-10.5,0.7-15.1,2.2l5.3,13.1C342.2,67.9,345.4,67.3,348.9,67.3z"/>
	<polygon id="XMLID_69_" class="st0" points="342.2,87.9 342.2,100.9 349.4,100.9 353.6,87.9 	"/>
	<path id="XMLID_70_" class="st0" d="M326.5,105.5c-1.4-3.5-2.2-7.5-2.2-12.2c0-7.7,2.2-13.9,6.6-18.6l-9.2-12.3
		c-1,0.8-2,1.7-2.9,2.6c-3.7,3.6-6.5,7.7-8.4,12.4l6.4,26.7L326.5,105.5z"/>
	<path id="XMLID_73_" class="st0" d="M308.1,102.5c1.3,7.8,4.6,14.2,9.8,19.2c1.3,1.3,2.7,2.4,4.2,3.5l-5.1-21.3L308.1,102.5z"/>
	<path id="XMLID_74_" class="st0" d="M330.5,111.7c-1.7-1.8-3-3.9-3.9-6.3l-9.6-1.5l5.1,21.3c4.9,3.4,10.8,5.5,17.6,6.3l4.3-13.4
		C338.4,117.6,333.9,115.4,330.5,111.7z"/>
	<path id="XMLID_75_" class="st0" d="M310.5,77.3c-2.1,5-3.1,10.5-3.1,16.7c0,3,0.2,5.9,0.7,8.5l8.8,1.4L310.5,77.3z"/>
</g>
<g id="XMLID_6_">
	<polygon id="XMLID_108_" class="st0" points="349.4,100.9 357.5,100.9 357.5,103.4 373.6,98 373.6,87.9 353.6,87.9 	"/>
	<polygon id="XMLID_109_" class="st0" points="357.5,110.4 373.6,112.9 373.6,98 357.5,103.4 	"/>
	<path id="XMLID_110_" class="st0" d="M347.2,118.4c-1.1,0-2.2-0.1-3.3-0.2l-4.3,13.4c2.1,0.3,4.4,0.4,6.7,0.4
		c10.8,0,19.9-2.1,27.2-6.4v-0.3l-17.9-8.2C353.4,118,350.6,118.4,347.2,118.4z"/>
	<path id="XMLID_111_" class="st0" d="M357.5,116.4c-0.5,0.3-1.1,0.5-1.8,0.7l17.9,8.2v-12.4l-16.1-2.6V116.4z"/>
	<path id="XMLID_112_" class="st0" d="M412.1,119.8c-3.2,0-5.8-1.4-7.7-4.1c0,0,0-0.1-0.1-0.1l-3.8,13.9c3.4,1.6,7.2,2.4,11.6,2.4
		c3.3,0,6.3-0.5,9.1-1.4l-7.3-10.9C413.3,119.8,412.7,119.8,412.1,119.8z"/>
	<path id="XMLID_113_" class="st0" d="M431,87.2c-3.6-3.4-8.1-5.1-13.7-5.1l5.6,9.3L431,87.2z"/>
	<path id="XMLID_116_" class="st0" d="M420.2,65.8c4.5,0,8.7,1.1,12.5,3.3V55.8c-2.8-1.2-6.6-1.8-11.2-2l-3.4,12.2
		C418.8,65.9,419.5,65.8,420.2,65.8z"/>
	<path id="XMLID_117_" class="st0" d="M402.4,80c0.9-2.7,2.1-5.1,3.7-7.3c0.4-0.5,0.8-1,1.2-1.4L395,64.8c-0.2,0.3-0.5,0.6-0.7,0.9
		c-3.1,4.2-5.4,9-6.9,14.6l1.3,2L402.4,80z"/>
	<path id="XMLID_118_" class="st0" d="M415.6,66.4l-10.9-9.5c-3.7,1.8-6.9,4.5-9.7,7.9l12.4,6.5C409.7,68.8,412.4,67.2,415.6,66.4z"
		/>
	<path id="XMLID_119_" class="st0" d="M413.6,82.4L410.3,94c0.5-0.1,1.1-0.1,1.7-0.1c1.8,0,3.3,0.3,4.6,0.8l6.3-3.2l-5.6-9.3
		c0,0,0,0,0,0C416,82.1,414.7,82.2,413.6,82.4z"/>
	<path id="XMLID_120_" class="st0" d="M418.1,65.9l3.4-12.2c-0.8,0-1.5,0-2.3,0c-5.4,0-10.3,1.1-14.5,3.1l10.9,9.5
		C416.4,66.2,417.3,66,418.1,65.9z"/>
	<path id="XMLID_121_" class="st0" d="M401.9,102l-13.3-19.7l-1.9,0.3c-1,4.4-1.5,9.2-1.5,14.4c0,4.9,0.5,9.3,1.4,13.3l15.1-7.8
		C401.9,102.2,401.9,102.1,401.9,102z"/>
	<path id="XMLID_122_" class="st0" d="M410.3,94l3.2-11.6c-5.3,0.8-9.4,3.5-12.3,8h-0.3c0-3.9,0.5-7.4,1.5-10.5l-13.8,2.3l13.3,19.7
		c0.5-1.8,1.3-3.3,2.4-4.7C405.9,95.4,407.9,94.4,410.3,94z"/>
	<path id="XMLID_123_" class="st0" d="M401.5,105.8c0-1.2,0.1-2.4,0.4-3.4l-15.1,7.8c1.1,4.8,2.9,9,5.5,12.4c2.3,3.1,5,5.4,8.3,7
		l3.8-13.9C402.4,112.9,401.5,109.6,401.5,105.8z"/>
	<path id="XMLID_124_" class="st0" d="M387.3,80.3c-0.2,0.7-0.4,1.5-0.6,2.3l1.9-0.3L387.3,80.3z"/>
</g>
<g id="XMLID_2_">
	<path id="XMLID_82_" class="st0" d="M481.4,116.1c-1.9,2.5-4.4,3.8-7.6,3.8c-3.2,0-5.8-1.4-7.7-4.1c-0.1-0.2-0.3-0.4-0.4-0.6
		l-4.2,3.6l7.6,11.5l15-11.8l-1.9-3.6C481.9,115.3,481.7,115.7,481.4,116.1z"/>
	<path id="XMLID_83_" class="st0" d="M484.1,118.4l4.9,9c1.2-0.9,2.3-1.8,3.4-2.9c2.5-2.6,4.4-5.6,5.6-8.9l-2.6-6L484.1,118.4z"/>
	<path id="XMLID_84_" class="st0" d="M483.2,100.1c0.6,1.8,1,4,1,6.5c0,3.2-0.7,5.9-2,8.2l1.9,3.6l11.3-8.8l-6.3-14.5L483.2,100.1z"
		/>
	<path id="XMLID_85_" class="st0" d="M463.1,105.8c0-0.7,0.1-1.4,0.1-2.1l-5.6-6.7l-5.2,8l9,13.7l4.2-3.6
		C464,112.5,463.1,109.4,463.1,105.8z"/>
	<path id="XMLID_86_" class="st0" d="M466,97.3c1.3-1.5,2.8-2.5,4.7-3l-2.9-9c-1.9,1.3-3.6,3-5,5.2h-0.3c0-0.4,0-0.7,0-1.1l-5,7.7
		l5.6,6.7C463.6,101.2,464.5,99,466,97.3z"/>
	<path id="XMLID_87_" class="st0" d="M481.8,65.8c4.5,0,8.7,1.1,12.5,3.3V55.8c-2.3-1-5.2-1.6-8.7-1.9l-8,12.3
		C479,66,480.4,65.8,481.8,65.8z"/>
	<path id="XMLID_88_" class="st0" d="M468.6,71.8l-5.1-0.4l1.8,5.7c0.7-1.6,1.6-3,2.6-4.3C468.1,72.4,468.3,72.1,468.6,71.8z"/>
	<path id="XMLID_89_" class="st0" d="M495.4,109.6l2.6,6c1-2.8,1.6-6,1.6-9.3L495.4,109.6z"/>
	<path id="XMLID_90_" class="st0" d="M452.4,105l-3.8,5.9c1.1,4.5,2.9,8.4,5.3,11.7c0.4,0.5,0.8,1,1.2,1.5l6.3-5.4L452.4,105z"/>
	<path id="XMLID_91_" class="st0" d="M460.2,61c-1.5,1.4-3,2.9-4.3,4.7c-1.1,1.5-2.2,3.1-3.1,4.8l10.6,0.9L460.2,61z"/>
	<path id="XMLID_97_" class="st0" d="M468.6,71.8c2.2-2.6,4.9-4.4,8-5.3l-5.1-11.7c-4.3,1.2-8.1,3.2-11.3,6.1l3.3,10.3L468.6,71.8z"
		/>
	<path id="XMLID_98_" class="st0" d="M447,96.8c0,0,0,0.1,0,0.1c0,5.2,0.5,9.9,1.6,14l3.8-5.9L447,96.8z"/>
	<path id="XMLID_99_" class="st0" d="M477.7,66.3l8-12.3c-1.5-0.1-3.1-0.2-4.8-0.2c-3.3,0-6.4,0.4-9.3,1.2l5.1,11.7
		C477,66.5,477.3,66.3,477.7,66.3z"/>
	<path id="XMLID_100_" class="st0" d="M462.6,89.3c0.1-4.7,1-8.8,2.6-12.3l-1.8-5.7l-10.6-0.9c-2.4,4.4-4.1,9.4-5,15l9.8,11.5
		L462.6,89.3z"/>
	<path id="XMLID_114_" class="st0" d="M495.4,109.6l4.3-3.3c0-0.2,0-0.4,0-0.6c0-6.3-1.5-11.5-4.6-15.7l-6,5.1L495.4,109.6z"/>
	<path id="XMLID_115_" class="st0" d="M457.6,97l-9.8-11.5c-0.6,3.5-0.9,7.3-0.9,11.3l5.4,8.2L457.6,97z"/>
	<path id="XMLID_125_" class="st0" d="M495.1,90c-0.3-0.4-0.7-0.9-1-1.3c-2.8-3.2-6.3-5.2-10.5-6.1l5.5,12.5L495.1,90z"/>
	<path id="XMLID_126_" class="st0" d="M467.9,85.3l2.9,9c0.9-0.3,1.9-0.4,3-0.4c4.9,0,8.1,2.1,9.5,6.2l5.9-5l-5.5-12.5
		c-1.5-0.3-3-0.4-4.7-0.4C474.6,82.1,470.9,83.2,467.9,85.3z"/>
	<path id="XMLID_127_" class="st0" d="M461.5,118.7l-6.3,5.4c3.3,3.8,7.5,6.2,12.5,7.2l1.4-1.1L461.5,118.7z"/>
	<path id="XMLID_128_" class="st0" d="M467.7,131.4c0.8,0.2,1.6,0.3,2.4,0.4l-1-1.5L467.7,131.4z"/>
	<path id="XMLID_129_" class="st0" d="M469.1,130.2l1,1.5c1.2,0.1,2.4,0.2,3.7,0.2c5.9,0,11-1.5,15.2-4.5l-4.9-9L469.1,130.2z"/>
	<path id="XMLID_130_" class="st0" d="M438,105.6c0-7-1.9-12.6-5.6-17c-0.4-0.5-0.9-1-1.3-1.4l-8.2,4.2l13.8,23.2
		C437.5,111.9,438,108.9,438,105.6z"/>
	<path id="XMLID_131_" class="st0" d="M436.7,114.6l-13.8-23.2l-6.3,3.2c3.9,1.6,5.9,5.6,5.9,11.9c0,3.8-0.9,6.9-2.8,9.4
		c-1.5,2-3.5,3.2-5.9,3.6l7.3,10.9c3.6-1.2,6.8-3.2,9.5-6C433.5,121.6,435.5,118.4,436.7,114.6z"/>
</g>
</svg>
