<?xml version="1.0" encoding="utf-8"?>
<!-- Generator: Adobe Illustrator 19.0.0, SVG Export Plug-In . SVG Version: 6.00 Build 0)  -->
<svg version="1.1" id="图层_1" xmlns="http://www.w3.org/2000/svg" xmlns:xlink="http://www.w3.org/1999/xlink" x="0px" y="0px"
	 width="600px" height="300px" viewBox="0 0 600 300" style="enable-background:new 0 0 600 300;" xml:space="preserve">
<g id="XMLID_2_">
	<path id="XMLID_3_" d="M160.7,177.4h-20.4l-22.9-33.1c-0.6-0.8-1.3-2.2-2-4h-0.2v37l-56.1,1.3l40-77l7.9,18l8.2,17.7h0.2
		c0.7-1.6,1.4-2.9,2.1-4.1l21.7-31.7h19.2l-27.1,36.1L160.7,177.4z"/>
	<path id="XMLID_5_" d="M160.4,140.6c0-11.8,3.5-21.5,10.4-28.9c6.9-7.4,16.1-11.2,27.4-11.2c10.8,0,19.5,3.6,26.1,10.8
		c6.6,7.2,9.9,16.4,9.9,27.7c0,11.8-3.4,21.3-10.3,28.7c-6.9,7.3-15.8,11-26.9,11c-10.8,0-19.6-3.6-26.4-10.7
		C163.7,160.9,160.4,151.8,160.4,140.6z M177.3,139.7c0,7.4,1.8,13.4,5.3,18c3.5,4.7,8.4,7,14.6,7c6.3,0,11.2-2.2,14.7-6.7
		c3.5-4.5,5.3-10.5,5.3-18c0-7.9-1.7-14.1-5.1-18.7c-3.4-4.6-8.2-6.9-14.5-6.9c-6.3,0-11.3,2.3-14.9,7
		C179.1,126.2,177.3,132.2,177.3,139.7z"/>
	<path id="XMLID_8_" d="M314.2,177.4h-16.5l-32-48.9c-1.7-2.5-2.9-4.6-3.6-6.2h-0.2c0.3,2.6,0.4,6.6,0.4,12.1v43h-15.3v-75.6h17.6
		l30.9,47.6c2.1,3.2,3.3,5.2,3.8,6h0.2c-0.3-1.8-0.5-5.3-0.5-10.4v-43.1h15.3V177.4z"/>
	<path id="XMLID_10_" d="M393.2,172.3c-7.4,4.3-16.5,6.4-27.2,6.4c-12,0-21.5-3.4-28.5-10.2c-7-6.8-10.4-16-10.4-27.8
		c0-11.9,3.8-21.6,11.5-29.1s17.8-11.2,30.3-11.2c8.1,0,15.1,1.1,21.1,3.4v15.3c-5.9-3.4-13-5.1-21.5-5.1c-7.3,0-13.2,2.4-17.7,7.1
		c-4.5,4.8-6.8,11-6.8,18.8c0,7.9,2,14.1,6.1,18.5c4.1,4.4,9.7,6.6,16.7,6.6c4.2,0,7.6-0.7,10.3-2v-15.5h-15.3v-12.9h31.4V172.3z"/>
	<path id="XMLID_12_" d="M452.3,115.9c-3.8-2.2-8-3.3-12.5-3.3c-5.8,0-10.5,2.3-14,6.9c-3.5,4.6-5.2,10.5-5.2,17.7h0.3
		c3.6-5.5,9-8.3,16.1-8.3c6.3,0,11.4,2.2,15.1,6.5c3.7,4.3,5.6,10,5.6,17c0,7.6-2.4,13.9-7.3,18.9c-4.9,5-11.1,7.4-18.6,7.4
		c-8.7,0-15.3-3.1-19.9-9.4c-4.6-6.3-6.9-14.8-6.9-25.7c0-12.8,3-23.2,9-31.2c6-8,14.3-12,24.9-12c5.7,0,10.2,0.7,13.5,2.1V115.9z
		 M421,152.5c0,3.9,1,7.2,2.9,10s4.5,4.1,7.7,4.1c3.2,0,5.8-1.3,7.6-3.8c1.9-2.5,2.8-5.6,2.8-9.4c0-8.5-3.5-12.7-10.5-12.7
		c-3.2,0-5.7,1.1-7.6,3.4C422,146.3,421,149.1,421,152.5z"/>
	<path id="XMLID_15_" d="M514,115.9c-3.8-2.2-8-3.3-12.5-3.3c-5.8,0-10.5,2.3-14,6.9c-3.5,4.6-5.2,10.5-5.2,17.7h0.3
		c3.6-5.5,9-8.3,16.1-8.3c6.3,0,11.4,2.2,15.1,6.5c3.7,4.3,5.6,10,5.6,17c0,7.6-2.4,13.9-7.3,18.9c-4.9,5-11.1,7.4-18.6,7.4
		c-8.7,0-15.3-3.1-19.9-9.4c-4.6-6.3-6.9-14.8-6.9-25.7c0-12.8,3-23.2,9-31.2c6-8,14.3-12,24.9-12c5.7,0,10.2,0.7,13.5,2.1V115.9z
		 M482.7,152.5c0,3.9,1,7.2,2.9,10s4.5,4.1,7.7,4.1c3.2,0,5.8-1.3,7.6-3.8c1.9-2.5,2.8-5.6,2.8-9.4c0-8.5-3.5-12.7-10.5-12.7
		c-3.2,0-5.7,1.1-7.6,3.4C483.7,146.3,482.7,149.1,482.7,152.5z"/>
</g>
</svg>
