<?xml version="1.0" encoding="utf-8"?>
<!-- Generator: Adobe Illustrator 19.0.0, SVG Export Plug-In . SVG Version: 6.00 Build 0)  -->
<svg version="1.1" id="图层_1" xmlns="http://www.w3.org/2000/svg" xmlns:xlink="http://www.w3.org/1999/xlink" x="0px" y="0px"
	 width="1000px" height="1000px" viewBox="0 0 1000 1000" style="enable-background:new 0 0 1000 1000;" xml:space="preserve">
<g id="XMLID_2_">
	<path id="XMLID_25_" style="fill:none;" d="M104.8,275.4C88.2,361.3,77.9,448.5,74,535.9"/>
</g>
<g id="XMLID_3_">
	<path id="XMLID_23_" style="fill:none;" d="M214.5,378.2c-39.2,20.4-78.5,40.9-117.7,61.3c-8.1,4.2-17.5,11.2-15.3,20.1
		c1,3.9,4.1,6.8,7.1,9.4c33.6,28,78.6,37.1,121.6,45.3"/>
</g>
<g id="XMLID_61_">
	<path id="XMLID_21_" style="fill:none;" d="M297.7,399.5c-26.4,7.7-49.1,28.3-61,55.2c-4.7,10.7-7.7,23.7-2.8,34.6
		c5.2,11.5,17.4,16.9,28.7,19.9c12.2,3.3,24.6,5,37.1,5.1c17,0.2,35.6-3.6,45.5-18.4c7.7-11.5,8.3-27.8,3.7-41.6
		c-4.6-13.8-13.8-25.5-24.1-34.9c-12.1-11.1-26.1-19.6-40.9-25"/>
</g>
<g id="XMLID_75_">
	<path id="XMLID_19_" style="fill:none;" d="M394.1,414.7c-3,35.3-2.5,71.4,1.5,107.2c10.1-35.8,23-72.8,48.4-93.5
		c9.7-7.9,23-13,33.6-5c6.1,4.6,10,12.6,13.2,20.4c10.1,24.7,16.7,51.5,19.2,78.4"/>
</g>
<g id="XMLID_187_">
	<path id="XMLID_17_" style="fill:none;" d="M555.7,569.6c34.5-41,58-86.9,68.3-133.5c3.8-17.3,2.6-39-17.7-44.1
		c-17.7-4.5-38.1,7.8-48.7,21.3c-20.1,26-19,57.5-7.9,84c11,26.4,30.8,49.4,46.8,73.9c22.6,34.7,40.4,75.7,47.4,116.6
		c6.8,39.6-4.4,103.8-59.8,96.3c-15.8-2.1-29.2-13.2-37.9-26.6c-21.5-32.8-28.8-78-27.3-116.4"/>
</g>
<g id="XMLID_9_">
	<path id="XMLID_15_" style="fill:none;" d="M741.5,258.9c-40.2,61.4-69,131.3-81.1,203.8c-4.9,29.2-3.8,58.1,19.3,79.8
		c21.3,20.1,50.1,18.6,70.8-1.6c25.6-25.1,37.3-79.1,13.2-109.2c-19.9-24.9-59.7-23.4-83.2-5.1"/>
</g>
<g id="XMLID_4_">
	<path id="XMLID_13_" style="fill:none;" d="M898.1,258.9c-40.2,61.4-69,131.3-81.1,203.8c-4.9,29.2-3.8,58.1,19.3,79.8
		c21.3,20.1,50.1,18.6,70.8-1.6c25.6-25.1,37.3-79.1,13.2-109.2c-19.9-24.9-59.7-23.4-83.2-5.1"/>
</g>
</svg>
