<?xml version="1.0" encoding="utf-8"?>
<!-- Generator: Adobe Illustrator 19.0.0, SVG Export Plug-In . SVG Version: 6.00 Build 0)  -->
<svg version="1.1" id="图层_1" xmlns="http://www.w3.org/2000/svg" xmlns:xlink="http://www.w3.org/1999/xlink" x="0px" y="0px"
	 width="700px" height="764px" viewBox="250 -282 700 764" style="enable-background:new 250 -282 700 764;" xml:space="preserve">
<g>
	<polygon style="fill:#8CB82F;" points="314,101 320,138 353,111 	"/>
	<polygon style="fill:#9BC638;" points="320,88 314,101 353,111 	"/>
	<polygon style="fill:#B1D551;" points="350,75 320,88 353,111 	"/>
	<polygon style="fill:#9FC139;" points="320,138 332,172 354,137 	"/>
	<polygon style="fill:#BDDA7D;" points="353,111 320,138 354,137 	"/>
	<polygon style="fill:#0E4071;" points="353,111 354,137 358,121 	"/>
	<polygon style="fill:#224563;" points="358,234 352,224 361,304 	"/>
	<polygon style="fill:#AAD257;" points="354,137 332,172 364,161 	"/>
	<polygon style="fill:#064878;" points="358,121 354,137 365,121 	"/>
	<polygon style="fill:#0A4B75;" points="354,137 364,161 365,121 	"/>
	<polygon style="fill:#B9D767;" points="350,75 353,111 370,107 	"/>
	<polygon style="fill:#92BB2F;" points="332,172 352,224 371,189 	"/>
	<polygon style="fill:#A3CB44;" points="364,161 332,172 371,189 	"/>
	<polygon style="fill:#7EA731;" points="352,224 358,234 378,221 	"/>
	<polygon style="fill:#9EC840;" points="371,189 352,224 378,221 	"/>
	<polygon style="fill:#32353C;" points="371,189 378,221 383,211 	"/>
	<polygon style="fill:#ADD35C;" points="350,75 370,107 393,102 	"/>
	<polygon style="fill:#424844;" points="371,189 383,211 394,194 	"/>
	<polygon style="fill:#0A4571;" points="364,161 371,189 395,174 	"/>
	<polygon style="fill:#000002;" points="371,189 394,194 395,174 	"/>
	<polygon style="fill:#0A425D;" points="364,161 395,174 398,124 	"/>
	<polygon style="fill:#8D9FB5;" points="370,115 365,121 398,124 	"/>
	<polygon style="fill:#1C1826;" points="395,112 370,115 398,124 	"/>
	<polygon style="fill:#084267;" points="365,121 364,161 398,124 	"/>
	<polygon style="fill:#0D2E57;" points="383,211 378,221 402,228 	"/>
	<polygon style="fill:#96C32A;" points="378,221 358,234 404,242 	"/>
	<polygon style="fill:#2C3834;" points="402,228 378,221 404,242 	"/>
	<polygon style="fill:#6E912B;" points="358,234 361,304 404,242 	"/>
	<polygon style="fill:#171D1B;" points="402,228 404,242 407,228 	"/>
	<polygon style="fill:#000106;" points="395,174 394,194 408,186 	"/>
	<polygon style="fill:#A3C940;" points="350,75 393,102 409,64 	"/>
	<polygon style="fill:#0F313A;" points="408,186 394,194 409,209 	"/>
	<polygon style="fill:#1B1E17;" points="402,228 407,228 409,209 	"/>
	<polygon style="fill:#072C34;" points="394,194 383,211 409,209 	"/>
	<polygon style="fill:#022133;" points="383,211 402,228 409,209 	"/>
	<polygon style="fill:#ACCD58;" points="409,64 393,102 413,100 	"/>
	<polygon style="fill:#1C222E;" points="395,112 398,124 414,111 	"/>
	<polygon style="fill:#5D7F2B;" points="361,304 376,319 416,287 	"/>
	<polygon style="fill:#779E29;" points="404,242 361,304 416,287 	"/>
	<polygon style="fill:#799F32;" points="416,287 376,319 417,296 	"/>
	<polygon style="fill:#1F2813;" points="409,209 407,228 419,228 	"/>
	<polygon style="fill:#33342E;" points="407,228 404,242 419,228 	"/>
	<polygon style="fill:#557529;" points="382,328 396,343 421,314 	"/>
	<polygon style="fill:#567728;" points="376,319 382,328 421,314 	"/>
	<polygon style="fill:#81A239;" points="417,296 376,319 421,314 	"/>
	<polygon style="fill:#49671D;" points="396,343 407,346 421,314 	"/>
	<polygon style="fill:#516C25;" points="407,346 415,344 421,314 	"/>
	<polygon style="fill:#00374E;" points="408,186 409,209 422,188 	"/>
	<polygon style="fill:#030D0E;" points="395,174 408,186 422,188 	"/>
	<polygon style="fill:#021A26;" points="416,287 417,296 424,297 	"/>
	<polygon style="fill:#01151C;" points="417,296 421,314 424,297 	"/>
	<polygon style="fill:#93BD35;" points="404,242 416,287 425,263 	"/>
	<polygon style="fill:#031F2A;" points="419,228 404,242 425,263 	"/>
	<polygon style="fill:#BAD668;" points="409,64 413,100 428,96 	"/>
	<polygon style="fill:#075272;" points="398,124 395,174 428,124 	"/>
	<polygon style="fill:#151515;" points="414,111 398,124 428,124 	"/>
	<polygon style="fill:#0F6284;" points="409,209 419,228 433,198 	"/>
	<polygon style="fill:#012130;" points="422,188 409,209 433,198 	"/>
	<polygon style="fill:#505446;" points="414,111 428,124 433,111 	"/>
	<polygon style="fill:#6E7062;" points="428,96 414,111 433,111 	"/>
	<polygon style="fill:#35364B;" points="433,99 428,96 433,111 	"/>
	<polygon style="fill:#373751;" points="433,99 433,111 435,98 	"/>
	<polygon style="fill:#B2D463;" points="409,64 428,96 435,98 	"/>
	<polygon style="fill:#627A26;" points="428,96 433,99 435,98 	"/>
	<polygon style="fill:#91B44C;" points="421,314 415,344 437,322 	"/>
	<polygon style="fill:#011F3B;" points="424,297 421,314 444,308 	"/>
	<polygon style="fill:#0A3F67;" points="421,314 437,322 444,308 	"/>
	<polygon style="fill:#739827;" points="437,322 415,344 445,347 	"/>
	<polygon style="fill:#556541;" points="415,344 407,346 445,347 	"/>
	<polygon style="fill:#596A7C;" points="433,111 428,124 445,128 	"/>
	<polygon style="fill:#81A136;" points="416,287 424,297 449,277 	"/>
	<polygon style="fill:#9CC449;" points="425,263 416,287 449,277 	"/>
	<polygon style="fill:#47565D;" points="433,111 445,128 451,126 	"/>
	<polygon style="fill:#104C7E;" points="451,126 445,128 452,152 	"/>
	<polygon style="fill:#0C4B77;" points="445,128 428,124 452,152 	"/>
	<polygon style="fill:#054C76;" points="395,174 422,188 452,152 	"/>
	<polygon style="fill:#054C76;" points="428,124 395,174 452,152 	"/>
	<polygon style="fill:#688119;" points="424,297 444,308 455,298 	"/>
	<polygon style="fill:#D3D2A2;" points="449,277 424,297 455,298 	"/>
	<polygon style="fill:#0A4F79;" points="422,188 433,198 456,181 	"/>
	<polygon style="fill:#094E78;" points="452,152 422,188 456,181 	"/>
	<polygon style="fill:#0C4B76;" points="456,181 433,198 457,214 	"/>
	<polygon style="fill:#59694F;" points="433,198 419,228 457,214 	"/>
	<polygon style="fill:#0B4978;" points="455,298 444,308 459,322 	"/>
	<polygon style="fill:#064F82;" points="444,308 437,322 459,322 	"/>
	<polygon style="fill:#3B521E;" points="437,322 445,347 459,322 	"/>
	<polygon style="fill:#014256;" points="425,263 449,277 459,247 	"/>
	<polygon style="fill:#044959;" points="419,228 425,263 459,247 	"/>
	<polygon style="fill:#065077;" points="457,214 419,228 459,247 	"/>
	<polygon style="fill:#BFDA71;" points="409,64 435,98 462,93 	"/>
	<polygon style="fill:#094975;" points="459,247 449,277 463,269 	"/>
	<polygon style="fill:#5E7A2F;" points="459,322 445,347 465,340 	"/>
	<polygon style="fill:#F8F5D6;" points="457,574 455,591 465,587 	"/>
	<polygon style="fill:#09507C;" points="455,298 459,322 467,299 	"/>
	<polygon style="fill:#095376;" points="449,277 455,298 467,299 	"/>
	<polygon style="fill:#094E75;" points="463,269 449,277 467,299 	"/>
	<polygon style="fill:#2D2210;" points="433,111 451,126 468,110 	"/>
	<polygon style="fill:#949889;" points="435,98 433,111 468,110 	"/>
	<polygon style="fill:#BBBEC7;" points="462,93 435,98 468,110 	"/>
	<polygon style="fill:#F6F2D7;" points="457,574 465,587 470,583 	"/>
	<polygon style="fill:#D7DCB4;" points="468,572 457,574 470,583 	"/>
	<polygon style="fill:#2A3C4A;" points="452,152 456,181 471,184 	"/>
	<polygon style="fill:#4A4E4F;" points="456,181 457,214 471,184 	"/>
	<polygon style="fill:#307D97;" points="451,126 452,152 475,137 	"/>
	<polygon style="fill:#302921;" points="468,110 451,126 476,127 	"/>
	<polygon style="fill:#776648;" points="451,126 475,137 476,127 	"/>
	<polygon style="fill:#6D941D;" points="459,322 465,340 477,331 	"/>
	<polygon style="fill:#545255;" points="471,184 457,214 478,197 	"/>
	<polygon style="fill:#84898F;" points="457,214 459,247 478,217 	"/>
	<polygon style="fill:#838786;" points="478,197 457,214 478,217 	"/>
	<polygon style="fill:#557F2D;" points="470,583 465,587 481,591 	"/>
	<polygon style="fill:#5D8930;" points="465,587 455,591 481,591 	"/>
	<polygon style="fill:#78A9C9;" points="467,299 459,322 481,326 	"/>
	<polygon style="fill:#668B21;" points="459,322 477,331 481,326 	"/>
	<polygon style="fill:#9ACB3B;" points="409,64 462,93 482,58 	"/>
	<polygon style="fill:#5C7035;" points="457,574 468,572 484,557 	"/>
	<polygon style="fill:#838071;" points="459,247 463,269 485,242 	"/>
	<polygon style="fill:#242225;" points="478,217 459,247 485,242 	"/>
	<polygon style="fill:#586B67;" points="467,299 481,326 486,322 	"/>
	<polygon style="fill:#62502A;" points="452,152 471,184 488,156 	"/>
	<polygon style="fill:#776847;" points="475,137 452,152 488,156 	"/>
	<polygon style="fill:#AFB7BA;" points="463,269 467,299 490,269 	"/>
	<polygon style="fill:#37383C;" points="485,242 463,269 490,269 	"/>
	<polygon style="fill:#715E40;" points="471,184 478,197 493,189 	"/>
	<polygon style="fill:#635433;" points="488,156 471,184 493,189 	"/>
	<polygon style="fill:#699A2F;" points="484,557 468,572 495,572 	"/>
	<polygon style="fill:#6B9936;" points="468,572 470,583 495,572 	"/>
	<polygon style="fill:#335A23;" points="470,583 481,591 495,572 	"/>
	<polygon style="fill:#020307;" points="467,299 486,322 495,295 	"/>
	<polygon style="fill:#7C7E7B;" points="490,269 467,299 495,295 	"/>
	<polygon style="fill:#6E5C38;" points="478,197 478,217 497,207 	"/>
	<polygon style="fill:#60522F;" points="493,189 478,197 497,207 	"/>
	<polygon style="fill:#001F5F;" points="495,295 486,322 498,317 	"/>
	<polygon style="fill:#7FABD2;" points="498,317 486,322 502,323 	"/>
	<polygon style="fill:#669233;" points="484,557 495,572 503,563 	"/>
	<polygon style="fill:#668B2C;" points="503,563 495,572 505,577 	"/>
	<polygon style="fill:#71A6DA;" points="495,295 498,317 506,310 	"/>
	<polygon style="fill:#95B4C9;" points="498,317 502,323 506,310 	"/>
	<polygon style="fill:#5E5337;" points="485,242 490,269 507,258 	"/>
	<polygon style="fill:#CFCD9A;" points="495,572 481,591 507,592 	"/>
	<polygon style="fill:#C7BA8E;" points="505,577 495,572 507,592 	"/>
	<polygon style="fill:#6D5F3A;" points="485,242 507,258 507,241 	"/>
	<polygon style="fill:#90846E;" points="485,242 507,241 508,213 	"/>
	<polygon style="fill:#5F5F83;" points="493,189 497,207 508,213 	"/>
	<polygon style="fill:#726143;" points="478,217 485,242 508,213 	"/>
	<polygon style="fill:#796D53;" points="497,207 478,217 508,213 	"/>
	<polygon style="fill:#BAA272;" points="505,577 507,592 509,585 	"/>
	<polygon style="fill:#A8A39D;" points="468,110 476,127 513,112 	"/>
	<polygon style="fill:#545A58;" points="462,93 468,110 513,112 	"/>
	<polygon style="fill:#385924;" points="482,58 462,93 513,112 	"/>
	<polygon style="fill:#736646;" points="490,269 495,295 521,273 	"/>
	<polygon style="fill:#6A5830;" points="507,258 490,269 521,273 	"/>
	<polygon style="fill:#060918;" points="495,295 506,310 521,299 	"/>
	<polygon style="fill:#595033;" points="521,273 495,295 521,299 	"/>
	<polygon style="fill:#A6A4A7;" points="521,299 506,310 521,309 	"/>
	<polygon style="fill:#CED1C0;" points="513,112 476,127 522,143 	"/>
	<polygon style="fill:#A3A496;" points="476,127 475,137 522,143 	"/>
	<polygon style="fill:#CBC8C1;" points="475,137 488,156 522,143 	"/>
	<polygon style="fill:#898754;" points="516,-46 521,-30 528,-36 	"/>
	<polygon style="fill:#7A7D46;" points="521,-30 524,-27 528,-36 	"/>
	<polygon style="fill:#76A33A;" points="505,577 509,585 529,559 	"/>
	<polygon style="fill:#80AE32;" points="503,563 505,577 529,559 	"/>
	<polygon style="fill:#84B43E;" points="509,554 503,563 529,559 	"/>
	<polygon style="fill:#D8D9C9;" points="488,156 493,189 529,178 	"/>
	<polygon style="fill:#CED2C1;" points="522,143 488,156 529,178 	"/>
	<polygon style="fill:#ACB19A;" points="493,189 508,213 529,178 	"/>
	<polygon style="fill:#70952E;" points="482,58 513,112 530,92 	"/>
	<polygon style="fill:#6F8E40;" points="503,16 482,58 532,25 	"/>
	<polygon style="fill:#79A02B;" points="482,58 530,92 532,25 	"/>
	<polygon style="fill:#69853A;" points="524,-27 503,16 532,25 	"/>
	<polygon style="fill:#739D37;" points="509,585 507,592 533,593 	"/>
	<polygon style="fill:#74A32F;" points="529,559 509,585 533,593 	"/>
	<polygon style="fill:#ACAA6F;" points="522,-62 516,-46 533,-50 	"/>
	<polygon style="fill:#BEBE8C;" points="516,-46 528,-36 533,-50 	"/>
	<polygon style="fill:#C6BE97;" points="522,-62 533,-50 538,-55 	"/>
	<polygon style="fill:#D4D1A8;" points="533,-50 528,-36 542,-48 	"/>
	<polygon style="fill:#B2A885;" points="538,-55 533,-50 542,-48 	"/>
	<polygon style="fill:#51515D;" points="521,299 521,309 544,314 	"/>
	<polygon style="fill:#79A02B;" points="513,112 522,143 544,108 	"/>
	<polygon style="fill:#CAE489;" points="530,92 513,112 544,108 	"/>
	<polygon style="fill:#D1D5BC;" points="507,241 507,258 545,253 	"/>
	<polygon style="fill:#CDCEBE;" points="507,258 521,273 545,253 	"/>
	<polygon style="fill:#CBCDBF;" points="529,178 508,213 546,219 	"/>
	<polygon style="fill:#CCCFBE;" points="508,213 507,241 546,219 	"/>
	<polygon style="fill:#CED0C3;" points="507,241 545,253 546,219 	"/>
	<polygon style="fill:#D0D2C7;" points="545,253 521,273 556,282 	"/>
	<polygon style="fill:#BFC2B1;" points="521,273 521,299 556,282 	"/>
	<polygon style="fill:#B3B9AB;" points="521,299 544,314 556,282 	"/>
	<polygon style="fill:#95B633;" points="532,25 530,92 558,83 	"/>
	<polygon style="fill:#597B2F;" points="530,92 544,108 558,83 	"/>
	<polygon style="fill:#66892B;" points="558,83 544,108 559,105 	"/>
	<polygon style="fill:#7CA731;" points="529,559 533,593 560,543 	"/>
	<polygon style="fill:#686C91;" points="556,282 544,314 560,306 	"/>
	<polygon style="fill:#ACD056;" points="544,108 522,143 561,134 	"/>
	<polygon style="fill:#020403;" points="559,105 544,108 561,134 	"/>
	<polygon style="fill:#5C832A;" points="522,143 529,178 561,134 	"/>
	<polygon style="fill:#050744;" points="556,-123 546,-111 564,-106 	"/>
	<polygon style="fill:#000421;" points="535,-77 538,-55 566,-82 	"/>
	<polygon style="fill:#00012F;" points="546,-111 535,-77 566,-82 	"/>
	<polygon style="fill:#010334;" points="564,-106 546,-111 566,-82 	"/>
	<polygon style="fill:#05140F;" points="538,-55 542,-48 569,-57 	"/>
	<polygon style="fill:#020532;" points="566,-82 538,-55 569,-57 	"/>
	<polygon style="fill:#8DB835;" points="544,314 541,427 570,419 	"/>
	<polygon style="fill:#98BF30;" points="532,25 558,83 571,54 	"/>
	<polygon style="fill:#8DB731;" points="568,20 532,25 571,54 	"/>
	<polygon style="fill:#72902C;" points="524,-27 532,25 571,-5 	"/>
	<polygon style="fill:#698C28;" points="532,25 568,20 571,-5 	"/>
	<polygon style="fill:#698D2D;" points="528,-36 524,-27 571,-5 	"/>
	<polygon style="fill:#6A8C2E;" points="542,-48 528,-36 571,-5 	"/>
	<polygon style="fill:#000201;" points="559,105 561,134 573,117 	"/>
	<polygon style="fill:#050704;" points="561,134 570,140 573,117 	"/>
	<polygon style="fill:#83AC2A;" points="561,134 529,178 577,154 	"/>
	<polygon style="fill:#000407;" points="570,140 561,134 577,154 	"/>
	<polygon style="fill:#85B233;" points="541,427 567,517 578,448 	"/>
	<polygon style="fill:#9EBF3C;" points="570,419 541,427 578,448 	"/>
	<polygon style="fill:#759F2F;" points="571,-5 568,20 578,14 	"/>
	<polygon style="fill:#84AF22;" points="568,20 571,54 579,42 	"/>
	<polygon style="fill:#D1EA97;" points="578,14 568,20 579,42 	"/>
	<polygon style="fill:#030305;" points="570,140 577,154 579,151 	"/>
	<polygon style="fill:#4B6826;" points="569,-57 542,-48 581,-27 	"/>
	<polygon style="fill:#5C7C30;" points="542,-48 571,-5 581,-27 	"/>
	<polygon style="fill:#9EC653;" points="571,-5 578,14 584,-2 	"/>
	<polygon style="fill:#6D9825;" points="581,-27 571,-5 584,-2 	"/>
	<polygon style="fill:#02032F;" points="566,-82 569,-57 585,-58 	"/>
	<polygon style="fill:#4D6B2B;" points="569,-57 581,-27 585,-58 	"/>
	<polygon style="fill:#7C9D2A;" points="556,282 560,306 586,304 	"/>
	<polygon style="fill:#94B92D;" points="560,306 544,314 586,304 	"/>
	<polygon style="fill:#B8D056;" points="544,314 570,419 586,304 	"/>
	<polygon style="fill:#030B56;" points="564,-106 566,-82 586,-90 	"/>
	<polygon style="fill:#162157;" points="566,-82 585,-58 586,-90 	"/>
	<polygon style="fill:#688E2B;" points="529,178 546,219 588,169 	"/>
	<polygon style="fill:#779D2C;" points="577,154 529,178 588,169 	"/>
	<polygon style="fill:#9DCE3F;" points="578,448 567,517 589,513 	"/>
	<polygon style="fill:#87B83B;" points="567,517 560,543 589,513 	"/>
	<polygon style="fill:#010302;" points="579,151 577,154 589,149 	"/>
	<polygon style="fill:#000200;" points="577,154 588,169 589,149 	"/>
	<polygon style="fill:#78853F;" points="570,140 579,151 590,139 	"/>
	<polygon style="fill:#010000;" points="579,151 589,149 590,139 	"/>
	<polygon style="fill:#081061;" points="564,-106 586,-90 591,-116 	"/>
	<polygon style="fill:#0E1764;" points="556,-123 564,-106 591,-116 	"/>
	<polygon style="fill:#08115C;" points="577,-140 556,-123 591,-116 	"/>
	<polygon style="fill:#749925;" points="558,83 559,105 592,88 	"/>
	<polygon style="fill:#6D902A;" points="559,105 573,117 592,88 	"/>
	<polygon style="fill:#6A653B;" points="573,117 570,140 592,130 	"/>
	<polygon style="fill:#8B8A54;" points="570,140 590,139 592,130 	"/>
	<polygon style="fill:#9CC237;" points="571,54 558,83 594,67 	"/>
	<polygon style="fill:#9DC541;" points="558,83 592,88 594,67 	"/>
	<polygon style="fill:#90B937;" points="579,42 571,54 594,67 	"/>
	<polygon style="fill:#131C69;" points="577,-140 591,-116 596,-131 	"/>
	<polygon style="fill:#B0CD7D;" points="581,-27 584,-2 598,-33 	"/>
	<polygon style="fill:#B0D669;" points="585,-58 581,-27 598,-33 	"/>
	<polygon style="fill:#565536;" points="592,130 590,139 599,126 	"/>
	<polygon style="fill:#82A32E;" points="592,88 573,117 599,126 	"/>
	<polygon style="fill:#323516;" points="573,117 592,130 599,126 	"/>
	<polygon style="fill:#030305;" points="589,149 588,169 599,154 	"/>
	<polygon style="fill:#010109;" points="590,139 589,149 599,154 	"/>
	<polygon style="fill:#8E8A5B;" points="599,126 590,139 599,154 	"/>
	<polygon style="fill:#6A9931;" points="560,543 533,593 600,588 	"/>
	<polygon style="fill:#B1D768;" points="585,-58 598,-33 600,-52 	"/>
	<polygon style="fill:#626F29;" points="545,253 556,282 601,304 	"/>
	<polygon style="fill:#606D15;" points="556,282 586,304 601,304 	"/>
	<polygon style="fill:#010703;" points="586,-90 585,-58 601,-54 	"/>
	<polygon style="fill:#8BB434;" points="585,-58 600,-52 601,-54 	"/>
	<polygon style="fill:#09115C;" points="591,-116 586,-90 602,-104 	"/>
	<polygon style="fill:#0C1767;" points="596,-131 591,-116 602,-111 	"/>
	<polygon style="fill:#0A0C56;" points="591,-116 602,-104 602,-111 	"/>
	<polygon style="fill:#5D7F28;" points="588,169 546,219 602,177 	"/>
	<polygon style="fill:#040500;" points="599,154 588,169 602,177 	"/>
	<polygon style="fill:#90BC35;" points="589,513 560,543 603,547 	"/>
	<polygon style="fill:#8AB63B;" points="560,543 600,588 603,547 	"/>
	<polygon style="fill:#9AA5B9;" points="596,-131 602,-111 611,-121 	"/>
	<polygon style="fill:#2775C7;" points="596,-131 611,-121 612,-128 	"/>
	<polygon style="fill:#0B1867;" points="577,-140 596,-131 614,-138 	"/>
	<polygon style="fill:#9FC1F1;" points="596,-131 612,-128 614,-138 	"/>
	<polygon style="fill:#CBC89F;" points="599,126 599,154 614,155 	"/>
	<polygon style="fill:#020300;" points="599,154 602,177 614,155 	"/>
	<polygon style="fill:#91B730;" points="592,88 599,126 615,107 	"/>
	<polygon style="fill:#70932B;" points="546,219 545,253 615,188 	"/>
	<polygon style="fill:#597C2C;" points="602,177 546,219 615,188 	"/>
	<polygon style="fill:#DDE3D5;" points="584,-2 578,14 617,12 	"/>
	<polygon style="fill:#DCDED3;" points="578,14 579,42 617,12 	"/>
	<polygon style="fill:#709A2C;" points="603,547 600,588 618,576 	"/>
	<polygon style="fill:#78849C;" points="602,-111 602,-104 618,-107 	"/>
	<polygon style="fill:#377AC1;" points="611,-121 602,-111 618,-107 	"/>
	<polygon style="fill:#D8DED0;" points="579,42 594,67 618,44 	"/>
	<polygon style="fill:#DEE6DB;" points="617,12 579,42 618,44 	"/>
	<polygon style="fill:#253179;" points="618,-107 602,-104 619,-87 	"/>
	<polygon style="fill:#203725;" points="586,-90 601,-54 619,-87 	"/>
	<polygon style="fill:#142366;" points="602,-104 586,-90 619,-87 	"/>
	<polygon style="fill:#91A6D5;" points="612,-128 611,-121 621,-117 	"/>
	<polygon style="fill:#4C84A7;" points="611,-121 618,-107 621,-117 	"/>
	<polygon style="fill:#87B32C;" points="600,-52 598,-33 621,-50 	"/>
	<polygon style="fill:#7CA525;" points="601,-54 600,-52 621,-50 	"/>
	<polygon style="fill:#5188C0;" points="614,-138 612,-128 622,-133 	"/>
	<polygon style="fill:#CFCAA4;" points="599,126 614,155 622,153 	"/>
	<polygon style="fill:#010101;" points="614,155 602,177 623,183 	"/>
	<polygon style="fill:#F2F8CA;" points="602,177 615,188 623,183 	"/>
	<polygon style="fill:#F9F8F6;" points="612,-128 621,-117 624,-131 	"/>
	<polygon style="fill:#688ECC;" points="622,-133 612,-128 624,-131 	"/>
	<polygon style="fill:#A1CAEA;" points="622,-133 624,-131 625,-140 	"/>
	<polygon style="fill:#111449;" points="614,-138 622,-133 625,-140 	"/>
	<polygon style="fill:#82A736;" points="619,-87 601,-54 625,-67 	"/>
	<polygon style="fill:#7DA423;" points="601,-54 621,-50 625,-67 	"/>
	<polygon style="fill:#CADCF0;" points="624,-131 621,-117 627,-121 	"/>
	<polygon style="fill:#97C234;" points="594,67 592,88 629,90 	"/>
	<polygon style="fill:#9FC93F;" points="592,88 615,107 629,90 	"/>
	<polygon style="fill:#E2E5DA;" points="621,-50 598,-33 629,-12 	"/>
	<polygon style="fill:#DFE3D4;" points="598,-33 584,-2 629,-12 	"/>
	<polygon style="fill:#E6E9E0;" points="584,-2 617,12 629,-12 	"/>
	<polygon style="fill:#E8E7BB;" points="623,183 615,188 633,195 	"/>
	<polygon style="fill:#818D21;" points="545,253 601,304 633,195 	"/>
	<polygon style="fill:#728529;" points="615,188 545,253 633,195 	"/>
	<polygon style="fill:#106C57;" points="617,12 618,44 634,20 	"/>
	<polygon style="fill:#020609;" points="622,153 614,155 634,160 	"/>
	<polygon style="fill:#010101;" points="614,155 623,183 634,160 	"/>
	<polygon style="fill:#A0C73A;" points="629,90 615,107 635,135 	"/>
	<polygon style="fill:#CAC699;" points="622,153 634,160 635,135 	"/>
	<polygon style="fill:#95BE3E;" points="615,107 599,126 635,135 	"/>
	<polygon style="fill:#5D5933;" points="599,126 622,153 635,135 	"/>
	<polygon style="fill:#5B95C7;" points="625,-140 624,-131 636,-128 	"/>
	<polygon style="fill:#F3FFFF;" points="624,-131 627,-121 636,-128 	"/>
	<polygon style="fill:#B5CDF1;" points="636,-128 627,-121 638,-115 	"/>
	<polygon style="fill:#B9BDE3;" points="621,-117 618,-107 638,-115 	"/>
	<polygon style="fill:#558CCD;" points="627,-121 621,-117 638,-115 	"/>
	<polygon style="fill:#242F65;" points="618,-107 619,-87 638,-115 	"/>
	<polygon style="fill:#0C6350;" points="629,-12 617,12 638,10 	"/>
	<polygon style="fill:#318878;" points="617,12 634,20 638,10 	"/>
	<polygon style="fill:#5596D0;" points="625,-140 636,-128 639,-143 	"/>
	<polygon style="fill:#E1E7DB;" points="618,44 594,67 640,61 	"/>
	<polygon style="fill:#EAECE1;" points="594,67 629,90 640,61 	"/>
	<polygon style="fill:#4C9F8F;" points="634,20 618,44 640,36 	"/>
	<polygon style="fill:#0F6A59;" points="618,44 640,61 640,36 	"/>
	<polygon style="fill:#000201;" points="638,10 634,20 640,36 	"/>
	<polygon style="fill:#12287E;" points="625,-140 639,-143 642,-157 	"/>
	<polygon style="fill:#15267E;" points="577,-140 614,-138 642,-157 	"/>
	<polygon style="fill:#0F257B;" points="614,-138 625,-140 642,-157 	"/>
	<polygon style="fill:#4F93C4;" points="636,-128 638,-115 642,-130 	"/>
	<polygon style="fill:#6E88B9;" points="639,-143 636,-128 642,-130 	"/>
	<polygon style="fill:#79A333;" points="619,-87 625,-67 642,-80 	"/>
	<polygon style="fill:#2A441F;" points="638,-115 619,-87 642,-80 	"/>
	<polygon style="fill:#729F28;" points="642,-80 625,-67 644,-75 	"/>
	<polygon style="fill:#727FA2;" points="639,-143 642,-130 646,-137 	"/>
	<polygon style="fill:#1B2773;" points="639,-143 646,-137 646,-143 	"/>
	<polygon style="fill:#1B6F5F;" points="629,-12 638,10 646,-2 	"/>
	<polygon style="fill:#E5E3BC;" points="623,183 633,195 646,188 	"/>
	<polygon style="fill:#010101;" points="634,160 623,183 646,188 	"/>
	<polygon style="fill:#142A75;" points="642,-157 639,-143 648,-146 	"/>
	<polygon style="fill:#131E8A;" points="639,-143 646,-143 648,-146 	"/>
	<polygon style="fill:#C4C18C;" points="635,135 634,160 649,157 	"/>
	<polygon style="fill:#010101;" points="634,160 646,188 649,157 	"/>
	<polygon style="fill:#709F2B;" points="642,-80 644,-75 652,-76 	"/>
	<polygon style="fill:#EAEDE2;" points="621,-50 629,-12 652,-23 	"/>
	<polygon style="fill:#054A37;" points="629,-12 646,-2 652,-23 	"/>
	<polygon style="fill:#479B81;" points="640,36 640,61 653,45 	"/>
	<polygon style="fill:#010302;" points="638,10 640,36 653,45 	"/>
	<polygon style="fill:#6D9DDF;" points="642,-130 638,-115 654,-123 	"/>
	<polygon style="fill:#87AD22;" points="652,-76 644,-75 654,-59 	"/>
	<polygon style="fill:#E8ECDD;" points="621,-50 652,-23 654,-59 	"/>
	<polygon style="fill:#A1C94F;" points="625,-67 621,-50 654,-59 	"/>
	<polygon style="fill:#84AD21;" points="644,-75 625,-67 654,-59 	"/>
	<polygon style="fill:#112085;" points="646,-137 642,-130 655,-132 	"/>
	<polygon style="fill:#122067;" points="642,-130 654,-123 655,-132 	"/>
	<polygon style="fill:#8887B1;" points="646,-143 646,-137 655,-132 	"/>
	<polygon style="fill:#99B7D1;" points="648,-146 646,-143 655,-132 	"/>
	<polygon style="fill:#0D245A;" points="655,-132 654,-123 660,-120 	"/>
	<polygon style="fill:#D6E4ED;" points="654,-123 638,-115 660,-120 	"/>
	<polygon style="fill:#6E8C28;" points="633,195 601,304 660,203 	"/>
	<polygon style="fill:#FEFFED;" points="646,188 633,195 660,203 	"/>
	<polygon style="fill:#010101;" points="649,157 646,188 662,157 	"/>
	<polygon style="fill:#747867;" points="635,135 649,157 662,157 	"/>
	<polygon style="fill:#EAEDE4;" points="640,61 629,90 663,68 	"/>
	<polygon style="fill:#156E5A;" points="653,45 640,61 663,68 	"/>
	<polygon style="fill:#71692B;" points="646,188 660,203 663,193 	"/>
	<polygon style="fill:#7D8925;" points="660,203 601,304 665,308 	"/>
	<polygon style="fill:#6294D1;" points="655,-132 660,-120 666,-133 	"/>
	<polygon style="fill:#739E33;" points="642,-80 652,-76 666,-104 	"/>
	<polygon style="fill:#132C0F;" points="638,-115 642,-80 666,-104 	"/>
	<polygon style="fill:#19245A;" points="660,-120 638,-115 666,-104 	"/>
	<polygon style="fill:#A0CB3E;" points="629,90 635,135 667,96 	"/>
	<polygon style="fill:#F1F3E8;" points="663,68 629,90 667,96 	"/>
	<polygon style="fill:#63A2D7;" points="648,-146 655,-132 670,-143 	"/>
	<polygon style="fill:#81A4C4;" points="655,-132 666,-133 670,-143 	"/>
	<polygon style="fill:#1F2E89;" points="670,-143 666,-133 672,-124 	"/>
	<polygon style="fill:#283F73;" points="666,-133 660,-120 672,-124 	"/>
	<polygon style="fill:#0A174E;" points="660,-120 666,-104 672,-124 	"/>
	<polygon style="fill:#060604;" points="646,-2 638,10 672,-3 	"/>
	<polygon style="fill:#0D6652;" points="652,-23 646,-2 672,-3 	"/>
	<polygon style="fill:#308373;" points="653,45 663,68 673,47 	"/>
	<polygon style="fill:#FAFFD6;" points="663,193 660,203 673,201 	"/>
	<polygon style="fill:#71A328;" points="660,203 665,308 673,201 	"/>
	<polygon style="fill:#000200;" points="662,157 646,188 675,178 	"/>
	<polygon style="fill:#463E10;" points="646,188 663,193 675,178 	"/>
	<polygon style="fill:#FEFCE7;" points="663,193 673,201 675,188 	"/>
	<polygon style="fill:#72682B;" points="675,178 663,193 675,188 	"/>
	<polygon style="fill:#1F377D;" points="642,-157 648,-146 676,-150 	"/>
	<polygon style="fill:#17297B;" points="648,-146 670,-143 676,-150 	"/>
	<polygon style="fill:#655836;" points="635,135 662,157 680,135 	"/>
	<polygon style="fill:#B1D551;" points="667,96 635,135 680,135 	"/>
	<polygon style="fill:#010101;" points="653,45 673,47 682,8 	"/>
	<polygon style="fill:#010101;" points="638,10 653,45 682,8 	"/>
	<polygon style="fill:#020001;" points="672,-3 638,10 682,8 	"/>
	<polygon style="fill:#EEF8ED;" points="663,68 667,96 688,60 	"/>
	<polygon style="fill:#05503C;" points="673,47 663,68 688,60 	"/>
	<polygon style="fill:#020401;" points="682,8 673,47 688,35 	"/>
	<polygon style="fill:#025646;" points="673,47 688,60 688,35 	"/>
	<polygon style="fill:#E2E2BE;" points="662,157 675,178 688,176 	"/>
	<polygon style="fill:#4F481E;" points="675,178 675,188 688,176 	"/>
	<polygon style="fill:#004C3F;" points="672,-3 682,8 694,-16 	"/>
	<polygon style="fill:#064F3E;" points="652,-23 672,-3 694,-16 	"/>
	<polygon style="fill:#427CBC;" points="670,-143 672,-124 696,-136 	"/>
	<polygon style="fill:#101E5F;" points="676,-150 670,-143 696,-136 	"/>
	<polygon style="fill:#F1F4E3;" points="654,-59 652,-23 698,-58 	"/>
	<polygon style="fill:#F4F8EA;" points="652,-23 694,-16 698,-58 	"/>
	<polygon style="fill:#98BE44;" points="652,-76 654,-59 698,-58 	"/>
	<polygon style="fill:#749F2C;" points="666,-104 652,-76 699,-85 	"/>
	<polygon style="fill:#A69D5A;" points="675,188 673,201 699,199 	"/>
	<polygon style="fill:#8B8233;" points="688,176 675,188 699,199 	"/>
	<polygon style="fill:#93C121;" points="652,-76 698,-58 701,-67 	"/>
	<polygon style="fill:#96C246;" points="699,-85 652,-76 701,-67 	"/>
	<polygon style="fill:#ACCE5D;" points="667,96 680,135 703,94 	"/>
	<polygon style="fill:#F5F7EC;" points="688,60 667,96 703,94 	"/>
	<polygon style="fill:#084D3A;" points="688,35 688,60 703,41 	"/>
	<polygon style="fill:#4F5042;" points="680,135 662,157 703,156 	"/>
	<polygon style="fill:#FEFCE5;" points="662,157 688,176 703,156 	"/>
	<polygon style="fill:#0C1B52;" points="696,-136 672,-124 709,-100 	"/>
	<polygon style="fill:#081945;" points="672,-124 666,-104 709,-100 	"/>
	<polygon style="fill:#638330;" points="666,-104 699,-85 709,-100 	"/>
	<polygon style="fill:#074C39;" points="694,-16 682,8 709,16 	"/>
	<polygon style="fill:#004334;" points="682,8 688,35 709,16 	"/>
	<polygon style="fill:#024B38;" points="688,35 703,41 709,16 	"/>
	<polygon style="fill:#0E1A56;" points="696,-136 709,-100 710,-139 	"/>
	<polygon style="fill:#BAD761;" points="703,94 680,135 714,135 	"/>
	<polygon style="fill:#4B4A1E;" points="680,135 703,156 714,135 	"/>
	<polygon style="fill:#87792E;" points="688,176 699,199 715,189 	"/>
	<polygon style="fill:#8C9927;" points="673,201 665,308 716,303 	"/>
	<polygon style="fill:#7AA82B;" points="699,199 673,201 716,303 	"/>
	<polygon style="fill:#030303;" points="703,156 688,176 717,172 	"/>
	<polygon style="fill:#151201;" points="688,176 715,189 717,172 	"/>
	<polygon style="fill:#A19D70;" points="714,135 703,156 717,172 	"/>
	<polygon style="fill:#FDFFE9;" points="715,189 699,199 725,197 	"/>
	<polygon style="fill:#80A82B;" points="699,199 716,303 725,197 	"/>
	<polygon style="fill:#F4F8E9;" points="715,189 725,197 728,196 	"/>
	<polygon style="fill:#BCD874;" points="701,-67 698,-58 732,-42 	"/>
	<polygon style="fill:#F6F8EB;" points="698,-58 694,-16 732,-42 	"/>
	<polygon style="fill:#F9FAFE;" points="694,-16 709,16 732,-42 	"/>
	<polygon style="fill:#796C28;" points="717,172 715,189 735,177 	"/>
	<polygon style="fill:#988D3E;" points="715,189 728,196 735,177 	"/>
	<polygon style="fill:#B4D564;" points="703,94 714,135 736,83 	"/>
	<polygon style="fill:#F7F8F2;" points="688,60 703,94 736,83 	"/>
	<polygon style="fill:#F9FBFA;" points="703,41 688,60 736,83 	"/>
	<polygon style="fill:#0E1B50;" points="710,-139 709,-100 738,-132 	"/>
	<polygon style="fill:#7EB728;" points="699,-85 701,-67 739,-82 	"/>
	<polygon style="fill:#88AA39;" points="709,-100 699,-85 739,-82 	"/>
	<polygon style="fill:#9AC730;" points="701,-67 732,-42 745,-57 	"/>
	<polygon style="fill:#82B127;" points="739,-82 701,-67 745,-57 	"/>
	<polygon style="fill:#D6D9BA;" points="714,135 717,172 750,155 	"/>
	<polygon style="fill:#EDECCE;" points="717,172 735,177 750,155 	"/>
	<polygon style="fill:#A4CA51;" points="739,-82 745,-57 753,-66 	"/>
	<polygon style="fill:#FFFEFF;" points="739,-82 753,-66 756,-70 	"/>
	<polygon style="fill:#FFFFFF;" points="753,-87 739,-82 756,-70 	"/>
	<polygon style="fill:#89A92E;" points="725,197 716,303 757,290 	"/>
	<polygon style="fill:#81B030;" points="728,196 725,197 757,290 	"/>
	<polygon style="fill:#2D4164;" points="739,-82 753,-87 757,-112 	"/>
	<polygon style="fill:#091851;" points="738,-132 709,-100 757,-112 	"/>
	<polygon style="fill:#0B193E;" points="709,-100 739,-82 757,-112 	"/>
	<polygon style="fill:#F8FAF7;" points="703,41 736,83 760,69 	"/>
	<polygon style="fill:#F8F9F3;" points="732,-42 709,16 762,-18 	"/>
	<polygon style="fill:#A5CB54;" points="745,-57 732,-42 762,-18 	"/>
	<polygon style="fill:#010103;" points="750,155 735,177 765,171 	"/>
	<polygon style="fill:#736828;" points="735,177 728,196 765,171 	"/>
	<polygon style="fill:#020202;" points="750,155 765,171 765,159 	"/>
	<polygon style="fill:#A6CD4E;" points="760,69 736,83 767,137 	"/>
	<polygon style="fill:#6E7762;" points="750,155 765,159 767,137 	"/>
	<polygon style="fill:#B8D55F;" points="736,83 714,135 767,137 	"/>
	<polygon style="fill:#8F8255;" points="714,135 750,155 767,137 	"/>
	<polygon style="fill:#A9CC4C;" points="753,-66 745,-57 775,-37 	"/>
	<polygon style="fill:#BBD572;" points="745,-57 762,-18 775,-37 	"/>
	<polygon style="fill:#A9A487;" points="756,-70 753,-66 775,-71 	"/>
	<polygon style="fill:#EFEBE0;" points="753,-66 775,-37 775,-71 	"/>
	<polygon style="fill:#FEFEFE;" points="753,-87 756,-70 775,-71 	"/>
	<polygon style="fill:#A6CE4A;" points="775,-37 762,-18 775,6 	"/>
	<polygon style="fill:#F6F8EA;" points="762,-18 709,16 775,6 	"/>
	<polygon style="fill:#F7FAEF;" points="775,6 709,16 778,36 	"/>
	<polygon style="fill:#F9FBFA;" points="709,16 703,41 778,36 	"/>
	<polygon style="fill:#F9FAF4;" points="703,41 760,69 778,36 	"/>
	<polygon style="fill:#070506;" points="765,159 765,171 781,153 	"/>
	<polygon style="fill:#F5F2E1;" points="767,137 765,159 781,153 	"/>
	<polygon style="fill:#6F795E;" points="767,137 781,153 790,145 	"/>
	<polygon style="fill:#B5D357;" points="760,69 767,137 800,129 	"/>
	<polygon style="fill:#8C8453;" points="767,137 790,145 800,129 	"/>
	<polygon style="fill:#A0B125;" points="728,196 757,290 801,261 	"/>
	<polygon style="fill:#94BF32;" points="765,171 728,196 801,261 	"/>
	<polygon style="fill:#7D9A30;" points="757,290 784,371 804,315 	"/>
	<polygon style="fill:#AECD43;" points="801,261 757,290 804,315 	"/>
	<polygon style="fill:#A2C743;" points="804,315 784,371 813,372 	"/>
	<polygon style="fill:#88B330;" points="784,371 796,445 819,400 	"/>
	<polygon style="fill:#A7CB4F;" points="813,372 784,371 819,400 	"/>
	<polygon style="fill:#365B25;" points="785,565 790,577 821,581 	"/>
	<polygon style="fill:#FDFDFB;" points="775,-71 775,-37 821,28 	"/>
	<polygon style="fill:#9CC43F;" points="775,-37 775,6 821,28 	"/>
	<polygon style="fill:#A4C946;" points="775,6 778,36 821,28 	"/>
	<polygon style="fill:#709627;" points="794,467 804,508 824,491 	"/>
	<polygon style="fill:#86B438;" points="796,445 794,467 824,491 	"/>
	<polygon style="fill:#90C23D;" points="819,400 796,445 824,491 	"/>
	<polygon style="fill:#9FCD51;" points="824,491 804,508 836,522 	"/>
	<polygon style="fill:#6F9A2E;" points="804,508 785,565 836,522 	"/>
	<polygon style="fill:#466623;" points="785,565 821,581 836,522 	"/>
	<polygon style="fill:#687F55;" points="818,276 832,282 838,279 	"/>
	<polygon style="fill:#759F2F;" points="801,261 818,276 842,250 	"/>
	<polygon style="fill:#82B033;" points="818,276 838,279 842,250 	"/>
	<polygon style="fill:#BDD867;" points="760,69 800,129 845,92 	"/>
	<polygon style="fill:#BCD764;" points="778,36 760,69 845,92 	"/>
	<polygon style="fill:#B3D45F;" points="821,28 778,36 845,92 	"/>
	<polygon style="fill:#AAD64D;" points="790,145 781,153 845,191 	"/>
	<polygon style="fill:#9CC239;" points="765,171 801,261 845,191 	"/>
	<polygon style="fill:#8FBF37;" points="801,261 842,250 845,191 	"/>
	<polygon style="fill:#A2CF41;" points="781,153 765,171 845,191 	"/>
	<polygon style="fill:#9AC144;" points="842,250 838,279 848,255 	"/>
	<polygon style="fill:#A0C844;" points="800,129 790,145 852,138 	"/>
	<polygon style="fill:#99C13A;" points="790,145 845,191 852,138 	"/>
	<polygon style="fill:#A7CB47;" points="845,92 800,129 852,138 	"/>
	<polygon style="fill:#ACD062;" points="845,191 842,250 858,229 	"/>
	<polygon style="fill:#688C20;" points="842,250 848,255 858,229 	"/>
	<polygon style="fill:#1D1D1D;" points="790,577 600,588 860,591 	"/>
	<polygon style="fill:#6D962E;" points="836,522 821,581 864,544 	"/>
	<polygon style="fill:#416025;" points="821,581 860,591 864,544 	"/>
	<polygon style="fill:#95C438;" points="858,229 848,255 867,235 	"/>
	<polygon style="fill:#B4D65B;" points="848,255 838,279 869,271 	"/>
	<polygon style="fill:#AACE60;" points="867,235 848,255 869,271 	"/>
	<polygon style="fill:#BDD253;" points="845,92 852,138 871,121 	"/>
	<polygon style="fill:#A7D153;" points="845,191 858,229 872,210 	"/>
	<polygon style="fill:#96C030;" points="871,121 852,138 873,144 	"/>
	<polygon style="fill:#99C93F;" points="845,191 872,210 886,179 	"/>
	<polygon style="fill:#6A8E2A;" points="864,544 860,591 892,579 	"/>
	<polygon style="fill:#66972E;" points="892,579 860,591 897,588 	"/>
	<polygon style="fill:#B5CD53;" points="871,121 873,144 897,133 	"/>
	<polygon style="fill:#B0D64F;" points="845,92 871,121 897,133 	"/>
	<polygon style="fill:#7EA72F;" points="864,544 892,579 900,569 	"/>
	<polygon style="fill:#709A2C;" points="864,544 900,569 903,546 	"/>
	<polygon style="fill:#497224;" points="903,546 900,569 904,569 	"/>
	<polygon style="fill:#ADA36E;" points="892,579 897,588 904,569 	"/>
	<polygon style="fill:#B59D6F;" points="900,569 892,579 904,569 	"/>
	<polygon style="fill:#90B029;" points="897,133 873,144 911,161 	"/>
	<polygon style="fill:#6F9838;" points="897,588 860,591 911,590 	"/>
	<polygon style="fill:#4A7027;" points="903,546 904,569 915,576 	"/>
	<polygon style="fill:#E3DEB8;" points="904,569 897,588 915,576 	"/>
	<polygon style="fill:#FCFEE6;" points="897,588 911,590 915,576 	"/>
	<polygon style="fill:#638F36;" points="915,576 911,590 921,591 	"/>
	<polygon style="fill:#618339;" points="911,590 860,591 921,591 	"/>
	<polygon style="fill:#ABD44A;" points="886,179 872,210 922,169 	"/>
	<polygon style="fill:#BCD35E;" points="897,133 911,161 944,136 	"/>
	<polygon style="fill:#94BA2F;" points="911,161 922,169 944,136 	"/>
	<polygon style="fill:#B9DC5A;" points="845,92 897,133 944,136 	"/>
	<polygon style="fill:#658F2D;" points="903,546 915,576 948,542 	"/>
	<polygon style="fill:#547A2D;" points="915,576 921,591 949,580 	"/>
	<polygon style="fill:#679030;" points="949,570 915,576 949,580 	"/>
	<polygon style="fill:#6C9630;" points="948,542 915,576 952,560 	"/>
	<polygon style="fill:#669230;" points="915,576 949,570 952,560 	"/>
	<polygon style="fill:#95C130;" points="944,136 922,169 952,166 	"/>
	<polygon style="fill:#6E9D37;" points="948,542 952,560 961,560 	"/>
	<polygon style="fill:#988753;" points="952,560 949,570 961,560 	"/>
	<polygon style="fill:#A3D248;" points="952,166 922,169 962,195 	"/>
	<polygon style="fill:#98C841;" points="922,169 872,210 962,195 	"/>
	<polygon style="fill:#699536;" points="949,580 921,591 964,588 	"/>
	<polygon style="fill:#CDC7A3;" points="961,560 949,570 969,571 	"/>
	<polygon style="fill:#BEB780;" points="949,570 949,580 969,571 	"/>
	<polygon style="fill:#EADEB8;" points="949,580 964,588 969,571 	"/>
	<polygon style="fill:#6B9736;" points="964,588 921,591 970,590 	"/>
	<polygon style="fill:#FFFFEB;" points="969,571 964,588 975,581 	"/>
	<polygon style="fill:#FFFAEE;" points="964,588 970,590 975,581 	"/>
	<polygon style="fill:#BBB88D;" points="961,560 969,571 980,556 	"/>
	<polygon style="fill:#648735;" points="948,542 961,560 980,556 	"/>
	<polygon style="fill:#729845;" points="969,571 975,581 982,580 	"/>
	<polygon style="fill:#F4ECC8;" points="980,556 969,571 982,580 	"/>
	<polygon style="fill:#FBFFF5;" points="975,581 970,590 982,580 	"/>
	<polygon style="fill:#AFCF52;" points="944,136 952,166 986,175 	"/>
	<polygon style="fill:#9EC43D;" points="952,166 962,195 986,175 	"/>
</g>
</svg>
