<?xml version="1.0" encoding="utf-8"?>
<!-- Generator: Adobe Illustrator 19.0.0, SVG Export Plug-In . SVG Version: 6.00 Build 0)  -->
<svg version="1.1" id="图层_1" xmlns="http://www.w3.org/2000/svg" xmlns:xlink="http://www.w3.org/1999/xlink" x="0px" y="0px"
	 width="1200px" height="1000px" viewBox="0 0 1200 1000" style="enable-background:new 0 0 1200 1000;" xml:space="preserve">
<g>
	<polygon style="fill:#88B134;" points="264,383 270,420 303,393 	"/>
	<polygon style="fill:#96BE3E;" points="270,370 264,383 303,393 	"/>
	<polygon style="fill:#ABCD53;" points="300,357 270,370 303,393 	"/>
	<polygon style="fill:#9ABA3D;" points="270,420 282,454 304,419 	"/>
	<polygon style="fill:#B8D37C;" points="303,393 270,420 304,419 	"/>
	<polygon style="fill:#0C3F6D;" points="303,393 304,419 308,403 	"/>
	<polygon style="fill:#204461;" points="308,516 302,506 311,586 	"/>
	<polygon style="fill:#A5CA59;" points="304,419 282,454 314,443 	"/>
	<polygon style="fill:#054673;" points="308,403 304,419 315,403 	"/>
	<polygon style="fill:#074971;" points="304,419 314,443 315,403 	"/>
	<polygon style="fill:#B4CF68;" points="300,357 303,393 320,389 	"/>
	<polygon style="fill:#8DB336;" points="282,454 302,506 321,471 	"/>
	<polygon style="fill:#9DC248;" points="314,443 282,454 321,471 	"/>
	<polygon style="fill:#7BA134;" points="302,506 308,516 328,503 	"/>
	<polygon style="fill:#99C044;" points="321,471 302,506 328,503 	"/>
	<polygon style="fill:#32353C;" points="321,471 328,503 333,493 	"/>
	<polygon style="fill:#A7CB5D;" points="300,357 320,389 343,384 	"/>
	<polygon style="fill:#434844;" points="321,471 333,493 344,476 	"/>
	<polygon style="fill:#0A436D;" points="314,443 321,471 345,456 	"/>
	<polygon style="fill:#040102;" points="321,471 344,476 345,456 	"/>
	<polygon style="fill:#09415B;" points="314,443 345,456 348,406 	"/>
	<polygon style="fill:#8B9DB1;" points="320,397 315,403 348,406 	"/>
	<polygon style="fill:#1B1826;" points="345,394 320,397 348,406 	"/>
	<polygon style="fill:#064165;" points="315,403 314,443 348,406 	"/>
	<polygon style="fill:#102E55;" points="333,493 328,503 352,510 	"/>
	<polygon style="fill:#91BB31;" points="328,503 308,516 354,524 	"/>
	<polygon style="fill:#2C3834;" points="352,510 328,503 354,524 	"/>
	<polygon style="fill:#6C8D31;" points="308,516 311,586 354,524 	"/>
	<polygon style="fill:#161C1B;" points="352,510 354,524 357,510 	"/>
	<polygon style="fill:#040206;" points="345,456 344,476 358,468 	"/>
	<polygon style="fill:#9DC145;" points="300,357 343,384 359,346 	"/>
	<polygon style="fill:#0D313A;" points="358,468 344,476 359,491 	"/>
	<polygon style="fill:#1A1E17;" points="352,510 357,510 359,491 	"/>
	<polygon style="fill:#062B33;" points="344,476 333,493 359,491 	"/>
	<polygon style="fill:#002132;" points="333,493 352,510 359,491 	"/>
	<polygon style="fill:#A6C55A;" points="359,346 343,384 363,382 	"/>
	<polygon style="fill:#1B222E;" points="345,394 348,406 364,393 	"/>
	<polygon style="fill:#5B7C33;" points="311,586 326,601 366,569 	"/>
	<polygon style="fill:#74992F;" points="354,524 311,586 366,569 	"/>
	<polygon style="fill:#769934;" points="366,569 326,601 367,578 	"/>
	<polygon style="fill:#1F2813;" points="359,491 357,510 369,510 	"/>
	<polygon style="fill:#33342E;" points="357,510 354,524 369,510 	"/>
	<polygon style="fill:#547333;" points="332,610 346,625 371,596 	"/>
	<polygon style="fill:#557533;" points="326,601 332,610 371,596 	"/>
	<polygon style="fill:#7E9D3B;" points="367,578 326,601 371,596 	"/>
	<polygon style="fill:#496630;" points="346,625 357,628 371,596 	"/>
	<polygon style="fill:#506A30;" points="357,628 365,626 371,596 	"/>
	<polygon style="fill:#00364D;" points="358,468 359,491 372,470 	"/>
	<polygon style="fill:#040D0E;" points="345,456 358,468 372,470 	"/>
	<polygon style="fill:#001A26;" points="366,569 367,578 374,579 	"/>
	<polygon style="fill:#00151C;" points="367,578 371,596 374,579 	"/>
	<polygon style="fill:#8EB539;" points="354,524 366,569 375,545 	"/>
	<polygon style="fill:#011E29;" points="369,510 354,524 375,545 	"/>
	<polygon style="fill:#B4CE68;" points="359,346 363,382 378,378 	"/>
	<polygon style="fill:#0C506F;" points="348,406 345,456 378,406 	"/>
	<polygon style="fill:#141515;" points="364,393 348,406 378,406 	"/>
	<polygon style="fill:#125F7F;" points="359,491 369,510 383,480 	"/>
	<polygon style="fill:#00202F;" points="372,470 359,491 383,480 	"/>
	<polygon style="fill:#505446;" points="364,393 378,406 383,393 	"/>
	<polygon style="fill:#6D7062;" points="378,378 364,393 383,393 	"/>
	<polygon style="fill:#35354A;" points="383,381 378,378 383,393 	"/>
	<polygon style="fill:#373650;" points="383,381 383,393 385,380 	"/>
	<polygon style="fill:#ADCC64;" points="359,346 378,378 385,380 	"/>
	<polygon style="fill:#607732;" points="378,378 383,381 385,380 	"/>
	<polygon style="fill:#8DAE4D;" points="371,596 365,626 387,604 	"/>
	<polygon style="fill:#081F39;" points="374,579 371,596 394,590 	"/>
	<polygon style="fill:#0B3E64;" points="371,596 387,604 394,590 	"/>
	<polygon style="fill:#709330;" points="387,604 365,626 395,629 	"/>
	<polygon style="fill:#546441;" points="365,626 357,628 395,629 	"/>
	<polygon style="fill:#59697A;" points="383,393 378,406 395,410 	"/>
	<polygon style="fill:#7E9C38;" points="366,569 374,579 399,559 	"/>
	<polygon style="fill:#97BC4B;" points="375,545 366,569 399,559 	"/>
	<polygon style="fill:#47565C;" points="383,393 395,410 401,408 	"/>
	<polygon style="fill:#104A79;" points="401,408 395,410 402,434 	"/>
	<polygon style="fill:#0D4973;" points="395,410 378,406 402,434 	"/>
	<polygon style="fill:#064A72;" points="345,456 372,470 402,434 	"/>
	<polygon style="fill:#064A72;" points="378,406 345,456 402,434 	"/>
	<polygon style="fill:#667F32;" points="374,579 394,590 405,580 	"/>
	<polygon style="fill:#D0CFA0;" points="399,559 374,579 405,580 	"/>
	<polygon style="fill:#0B4D75;" points="372,470 383,480 406,463 	"/>
	<polygon style="fill:#084C74;" points="402,434 372,470 406,463 	"/>
	<polygon style="fill:#0D4972;" points="406,463 383,480 407,496 	"/>
	<polygon style="fill:#58684F;" points="383,480 369,510 407,496 	"/>
	<polygon style="fill:#0A4774;" points="405,580 394,590 409,604 	"/>
	<polygon style="fill:#084C7D;" points="394,590 387,604 409,604 	"/>
	<polygon style="fill:#3A5228;" points="387,604 395,629 409,604 	"/>
	<polygon style="fill:#024154;" points="375,545 399,559 409,529 	"/>
	<polygon style="fill:#034857;" points="369,510 375,545 409,529 	"/>
	<polygon style="fill:#074E73;" points="407,496 369,510 409,529 	"/>
	<polygon style="fill:#B9D270;" points="359,346 385,380 412,375 	"/>
	<polygon style="fill:#094771;" points="409,529 399,559 413,551 	"/>
	<polygon style="fill:#5D7732;" points="409,604 395,629 415,622 	"/>
	<polygon style="fill:#F5F3D5;" points="407,856 405,873 415,869 	"/>
	<polygon style="fill:#094E77;" points="405,580 409,604 417,581 	"/>
	<polygon style="fill:#0C5172;" points="399,559 405,580 417,581 	"/>
	<polygon style="fill:#0B4C71;" points="413,551 399,559 417,581 	"/>
	<polygon style="fill:#2D2110;" points="383,393 401,408 418,392 	"/>
	<polygon style="fill:#939788;" points="385,380 383,393 418,392 	"/>
	<polygon style="fill:#BABDC6;" points="412,375 385,380 418,392 	"/>
	<polygon style="fill:#F4F0D6;" points="407,856 415,869 420,865 	"/>
	<polygon style="fill:#D4D9B2;" points="418,854 407,856 420,865 	"/>
	<polygon style="fill:#2A3B49;" points="402,434 406,463 421,466 	"/>
	<polygon style="fill:#4A4E4F;" points="406,463 407,496 421,466 	"/>
	<polygon style="fill:#307991;" points="401,408 402,434 425,419 	"/>
	<polygon style="fill:#302921;" points="418,392 401,408 426,409 	"/>
	<polygon style="fill:#766548;" points="401,408 425,419 426,409 	"/>
	<polygon style="fill:#6B9031;" points="409,604 415,622 427,613 	"/>
	<polygon style="fill:#545255;" points="421,466 407,496 428,479 	"/>
	<polygon style="fill:#84898F;" points="407,496 409,529 428,499 	"/>
	<polygon style="fill:#838886;" points="428,479 407,496 428,499 	"/>
	<polygon style="fill:#547C35;" points="420,865 415,869 431,873 	"/>
	<polygon style="fill:#5C8634;" points="415,869 405,873 431,873 	"/>
	<polygon style="fill:#76A3C1;" points="417,581 409,604 431,608 	"/>
	<polygon style="fill:#648833;" points="409,604 427,613 431,608 	"/>
	<polygon style="fill:#95C341;" points="359,346 412,375 432,340 	"/>
	<polygon style="fill:#5B6E34;" points="407,856 418,854 434,839 	"/>
	<polygon style="fill:#827F71;" points="409,529 413,551 435,524 	"/>
	<polygon style="fill:#242225;" points="428,499 409,529 435,524 	"/>
	<polygon style="fill:#576B66;" points="417,581 431,608 436,604 	"/>
	<polygon style="fill:#615029;" points="402,434 421,466 438,438 	"/>
	<polygon style="fill:#766747;" points="425,419 402,434 438,438 	"/>
	<polygon style="fill:#AFB6B9;" points="413,551 417,581 440,551 	"/>
	<polygon style="fill:#37383C;" points="435,524 413,551 440,551 	"/>
	<polygon style="fill:#705D40;" points="421,466 428,479 443,471 	"/>
	<polygon style="fill:#635433;" points="438,438 421,466 443,471 	"/>
	<polygon style="fill:#679532;" points="434,839 418,854 445,854 	"/>
	<polygon style="fill:#699437;" points="418,854 420,865 445,854 	"/>
	<polygon style="fill:#33592D;" points="420,865 431,873 445,854 	"/>
	<polygon style="fill:#050307;" points="417,581 436,604 445,577 	"/>
	<polygon style="fill:#7C7E7B;" points="440,551 417,581 445,577 	"/>
	<polygon style="fill:#6D5C38;" points="428,479 428,499 447,489 	"/>
	<polygon style="fill:#60522F;" points="443,471 428,479 447,489 	"/>
	<polygon style="fill:#1A2A50;" points="445,577 436,604 448,599 	"/>
	<polygon style="fill:#7DA5C9;" points="448,599 436,604 452,605 	"/>
	<polygon style="fill:#648E35;" points="434,839 445,854 453,845 	"/>
	<polygon style="fill:#648833;" points="453,845 445,854 455,859 	"/>
	<polygon style="fill:#709FCF;" points="445,577 448,599 456,592 	"/>
	<polygon style="fill:#93B0C4;" points="448,599 452,605 456,592 	"/>
	<polygon style="fill:#5E5337;" points="435,524 440,551 457,540 	"/>
	<polygon style="fill:#CBC998;" points="445,854 431,873 457,874 	"/>
	<polygon style="fill:#C4B78D;" points="455,859 445,854 457,874 	"/>
	<polygon style="fill:#6C5F3A;" points="435,524 457,540 457,523 	"/>
	<polygon style="fill:#90836E;" points="435,524 457,523 458,495 	"/>
	<polygon style="fill:#5E5D80;" points="443,471 447,489 458,495 	"/>
	<polygon style="fill:#716043;" points="428,499 435,524 458,495 	"/>
	<polygon style="fill:#786D53;" points="447,489 428,499 458,495 	"/>
	<polygon style="fill:#B7A071;" points="455,859 457,874 459,867 	"/>
	<polygon style="fill:#A8A39D;" points="418,392 426,409 463,394 	"/>
	<polygon style="fill:#545A58;" points="412,375 418,392 463,394 	"/>
	<polygon style="fill:#38582C;" points="432,340 412,375 463,394 	"/>
	<polygon style="fill:#726546;" points="440,551 445,577 471,555 	"/>
	<polygon style="fill:#695730;" points="457,540 440,551 471,555 	"/>
	<polygon style="fill:#060A18;" points="445,577 456,592 471,581 	"/>
	<polygon style="fill:#595033;" points="471,555 445,577 471,581 	"/>
	<polygon style="fill:#A6A4A7;" points="471,581 456,592 471,591 	"/>
	<polygon style="fill:#CDCFBF;" points="463,394 426,409 472,425 	"/>
	<polygon style="fill:#A3A495;" points="426,409 425,419 472,425 	"/>
	<polygon style="fill:#CAC7C0;" points="425,419 438,438 472,425 	"/>
	<polygon style="fill:#878654;" points="466,236 471,252 478,246 	"/>
	<polygon style="fill:#797B46;" points="471,252 474,255 478,246 	"/>
	<polygon style="fill:#749D3B;" points="455,859 459,867 479,841 	"/>
	<polygon style="fill:#7CA735;" points="453,845 455,859 479,841 	"/>
	<polygon style="fill:#80AD41;" points="459,836 453,845 479,841 	"/>
	<polygon style="fill:#D6D7C8;" points="438,438 443,471 479,460 	"/>
	<polygon style="fill:#CDD1C0;" points="472,425 438,438 479,460 	"/>
	<polygon style="fill:#ABAF99;" points="443,471 458,495 479,460 	"/>
	<polygon style="fill:#6E9131;" points="432,340 463,394 480,374 	"/>
	<polygon style="fill:#6D8B40;" points="453,298 432,340 482,307 	"/>
	<polygon style="fill:#769A2E;" points="432,340 480,374 482,307 	"/>
	<polygon style="fill:#67823A;" points="474,255 453,298 482,307 	"/>
	<polygon style="fill:#709837;" points="459,867 457,874 483,875 	"/>
	<polygon style="fill:#729D32;" points="479,841 459,867 483,875 	"/>
	<polygon style="fill:#AAA86E;" points="472,220 466,236 483,232 	"/>
	<polygon style="fill:#BBBB8A;" points="466,236 478,246 483,232 	"/>
	<polygon style="fill:#C3BC96;" points="472,220 483,232 488,227 	"/>
	<polygon style="fill:#D1CEA6;" points="483,232 478,246 492,234 	"/>
	<polygon style="fill:#B0A684;" points="488,227 483,232 492,234 	"/>
	<polygon style="fill:#50515D;" points="471,581 471,591 494,596 	"/>
	<polygon style="fill:#769A2E;" points="463,394 472,425 494,390 	"/>
	<polygon style="fill:#C4DC88;" points="480,374 463,394 494,390 	"/>
	<polygon style="fill:#CFD3BA;" points="457,523 457,540 495,535 	"/>
	<polygon style="fill:#CCCCBD;" points="457,540 471,555 495,535 	"/>
	<polygon style="fill:#CACCBE;" points="479,460 458,495 496,501 	"/>
	<polygon style="fill:#CBCDBD;" points="458,495 457,523 496,501 	"/>
	<polygon style="fill:#CDCFC2;" points="457,523 495,535 496,501 	"/>
	<polygon style="fill:#CFD1C6;" points="495,535 471,555 506,564 	"/>
	<polygon style="fill:#BDC0B0;" points="471,555 471,581 506,564 	"/>
	<polygon style="fill:#B2B8AA;" points="471,581 494,596 506,564 	"/>
	<polygon style="fill:#90AF38;" points="482,307 480,374 508,365 	"/>
	<polygon style="fill:#587933;" points="480,374 494,390 508,365 	"/>
	<polygon style="fill:#658633;" points="508,365 494,390 509,387 	"/>
	<polygon style="fill:#79A134;" points="479,841 483,875 510,825 	"/>
	<polygon style="fill:#666A8D;" points="506,564 494,596 510,588 	"/>
	<polygon style="fill:#A6C857;" points="494,390 472,425 511,416 	"/>
	<polygon style="fill:#060303;" points="509,387 494,390 511,416 	"/>
	<polygon style="fill:#5B8034;" points="472,425 479,460 511,416 	"/>
	<polygon style="fill:#121C3B;" points="506,159 496,171 514,176 	"/>
	<polygon style="fill:#02071F;" points="485,205 488,227 516,200 	"/>
	<polygon style="fill:#08102A;" points="496,171 485,205 516,200 	"/>
	<polygon style="fill:#0A132E;" points="514,176 496,171 516,200 	"/>
	<polygon style="fill:#05140F;" points="488,227 492,234 519,225 	"/>
	<polygon style="fill:#0A132E;" points="516,200 488,227 519,225 	"/>
	<polygon style="fill:#89B13A;" points="494,596 491,709 520,701 	"/>
	<polygon style="fill:#93B736;" points="482,307 508,365 521,336 	"/>
	<polygon style="fill:#89B036;" points="518,302 482,307 521,336 	"/>
	<polygon style="fill:#708C31;" points="474,255 482,307 521,277 	"/>
	<polygon style="fill:#668832;" points="482,307 518,302 521,277 	"/>
	<polygon style="fill:#668932;" points="478,246 474,255 521,277 	"/>
	<polygon style="fill:#688832;" points="492,234 478,246 521,277 	"/>
	<polygon style="fill:#050101;" points="509,387 511,416 523,399 	"/>
	<polygon style="fill:#070604;" points="511,416 520,422 523,399 	"/>
	<polygon style="fill:#7FA52E;" points="511,416 479,460 527,436 	"/>
	<polygon style="fill:#040407;" points="520,422 511,416 527,436 	"/>
	<polygon style="fill:#82AB37;" points="491,709 517,799 528,730 	"/>
	<polygon style="fill:#99B83F;" points="520,701 491,709 528,730 	"/>
	<polygon style="fill:#729932;" points="521,277 518,302 528,296 	"/>
	<polygon style="fill:#81A829;" points="518,302 521,336 529,324 	"/>
	<polygon style="fill:#CBE195;" points="528,296 518,302 529,324 	"/>
	<polygon style="fill:#060305;" points="520,422 527,436 529,433 	"/>
	<polygon style="fill:#4B6630;" points="519,225 492,234 531,255 	"/>
	<polygon style="fill:#5B7933;" points="492,234 521,277 531,255 	"/>
	<polygon style="fill:#99BE55;" points="521,277 528,296 534,280 	"/>
	<polygon style="fill:#6A9331;" points="531,255 521,277 534,280 	"/>
	<polygon style="fill:#09102B;" points="516,200 519,225 535,224 	"/>
	<polygon style="fill:#4C6931;" points="519,225 531,255 535,224 	"/>
	<polygon style="fill:#79982E;" points="506,564 510,588 536,586 	"/>
	<polygon style="fill:#8FB233;" points="510,588 494,596 536,586 	"/>
	<polygon style="fill:#B2C858;" points="494,596 520,701 536,586 	"/>
	<polygon style="fill:#182447;" points="514,176 516,200 536,192 	"/>
	<polygon style="fill:#1A2650;" points="516,200 535,224 536,192 	"/>
	<polygon style="fill:#668A33;" points="479,460 496,501 538,451 	"/>
	<polygon style="fill:#74982F;" points="527,436 479,460 538,451 	"/>
	<polygon style="fill:#97C544;" points="528,730 517,799 539,795 	"/>
	<polygon style="fill:#83B13F;" points="517,799 510,825 539,795 	"/>
	<polygon style="fill:#050202;" points="529,433 527,436 539,431 	"/>
	<polygon style="fill:#050101;" points="527,436 538,451 539,431 	"/>
	<polygon style="fill:#76833F;" points="520,422 529,433 540,421 	"/>
	<polygon style="fill:#050000;" points="529,433 539,431 540,421 	"/>
	<polygon style="fill:#1B284F;" points="514,176 536,192 541,166 	"/>
	<polygon style="fill:#1C2A52;" points="506,159 514,176 541,166 	"/>
	<polygon style="fill:#1A274C;" points="527,142 506,159 541,166 	"/>
	<polygon style="fill:#719430;" points="508,365 509,387 542,370 	"/>
	<polygon style="fill:#6B8C32;" points="509,387 523,399 542,370 	"/>
	<polygon style="fill:#6A643B;" points="523,399 520,422 542,412 	"/>
	<polygon style="fill:#898854;" points="520,422 540,421 542,412 	"/>
	<polygon style="fill:#96BA3C;" points="521,336 508,365 544,349 	"/>
	<polygon style="fill:#98BD45;" points="508,365 542,370 544,349 	"/>
	<polygon style="fill:#8CB23C;" points="529,324 521,336 544,349 	"/>
	<polygon style="fill:#1D2B57;" points="527,142 541,166 546,151 	"/>
	<polygon style="fill:#ACC77B;" points="531,255 534,280 548,249 	"/>
	<polygon style="fill:#ABCE69;" points="535,224 531,255 548,249 	"/>
	<polygon style="fill:#565536;" points="542,412 540,421 549,408 	"/>
	<polygon style="fill:#7E9D32;" points="542,370 523,399 549,408 	"/>
	<polygon style="fill:#313518;" points="523,399 542,412 549,408 	"/>
	<polygon style="fill:#060305;" points="539,431 538,451 549,436 	"/>
	<polygon style="fill:#05040A;" points="540,421 539,431 549,436 	"/>
	<polygon style="fill:#8C885B;" points="549,408 540,421 549,436 	"/>
	<polygon style="fill:#689432;" points="510,825 483,875 550,870 	"/>
	<polygon style="fill:#ACD068;" points="535,224 548,249 550,230 	"/>
	<polygon style="fill:#606D2F;" points="495,535 506,564 551,586 	"/>
	<polygon style="fill:#5F6C2E;" points="506,564 536,586 551,586 	"/>
	<polygon style="fill:#050504;" points="536,192 535,224 551,228 	"/>
	<polygon style="fill:#87AD39;" points="535,224 550,230 551,228 	"/>
	<polygon style="fill:#1A274C;" points="541,166 536,192 552,178 	"/>
	<polygon style="fill:#1C2A54;" points="546,151 541,166 552,171 	"/>
	<polygon style="fill:#192548;" points="541,166 552,178 552,171 	"/>
	<polygon style="fill:#5B7C33;" points="538,451 496,501 552,459 	"/>
	<polygon style="fill:#060403;" points="549,436 538,451 552,459 	"/>
	<polygon style="fill:#8CB539;" points="539,795 510,825 553,829 	"/>
	<polygon style="fill:#87AF3F;" points="510,825 550,870 553,829 	"/>
	<polygon style="fill:#98A2B6;" points="546,151 552,171 561,161 	"/>
	<polygon style="fill:#2B6FB7;" points="546,151 561,161 562,154 	"/>
	<polygon style="fill:#1C2A54;" points="527,142 546,151 564,144 	"/>
	<polygon style="fill:#9EBBE2;" points="546,151 562,154 564,144 	"/>
	<polygon style="fill:#C8C59D;" points="549,408 549,436 564,437 	"/>
	<polygon style="fill:#050201;" points="549,436 552,459 564,437 	"/>
	<polygon style="fill:#8DB035;" points="542,370 549,408 565,389 	"/>
	<polygon style="fill:#6E8F31;" points="496,501 495,535 565,470 	"/>
	<polygon style="fill:#587934;" points="552,459 496,501 565,470 	"/>
	<polygon style="fill:#DCE1D3;" points="534,280 528,296 567,294 	"/>
	<polygon style="fill:#DBDDD2;" points="528,296 529,324 567,294 	"/>
	<polygon style="fill:#6D9531;" points="553,829 550,870 568,858 	"/>
	<polygon style="fill:#768198;" points="552,171 552,178 568,175 	"/>
	<polygon style="fill:#3774B4;" points="561,161 552,171 568,175 	"/>
	<polygon style="fill:#D7DCCE;" points="529,324 544,349 568,326 	"/>
	<polygon style="fill:#DDE4D9;" points="567,294 529,324 568,326 	"/>
	<polygon style="fill:#223073;" points="568,175 552,178 569,195 	"/>
	<polygon style="fill:#213724;" points="536,192 551,228 569,195 	"/>
	<polygon style="fill:#1D2A59;" points="552,178 536,192 569,195 	"/>
	<polygon style="fill:#8EA2CD;" points="562,154 561,161 571,165 	"/>
	<polygon style="fill:#4D7FA0;" points="561,161 568,175 571,165 	"/>
	<polygon style="fill:#83AC30;" points="550,230 548,249 571,232 	"/>
	<polygon style="fill:#79A02D;" points="551,228 550,230 571,232 	"/>
	<polygon style="fill:#4F82B5;" points="564,144 562,154 572,149 	"/>
	<polygon style="fill:#CDC7A2;" points="549,408 564,437 572,435 	"/>
	<polygon style="fill:#040000;" points="564,437 552,459 573,465 	"/>
	<polygon style="fill:#EEF3C8;" points="552,459 565,470 573,465 	"/>
	<polygon style="fill:#F9F9F6;" points="562,154 571,165 574,151 	"/>
	<polygon style="fill:#6588C1;" points="572,149 562,154 574,151 	"/>
	<polygon style="fill:#9EC5E3;" points="572,149 574,151 575,142 	"/>
	<polygon style="fill:#162142;" points="564,144 572,149 575,142 	"/>
	<polygon style="fill:#7FA13A;" points="569,195 551,228 575,215 	"/>
	<polygon style="fill:#7A9F2D;" points="551,228 571,232 575,215 	"/>
	<polygon style="fill:#C8D9EC;" points="574,151 571,165 577,161 	"/>
	<polygon style="fill:#92BA3A;" points="544,349 542,370 579,372 	"/>
	<polygon style="fill:#9AC143;" points="542,370 565,389 579,372 	"/>
	<polygon style="fill:#E2E4D9;" points="571,232 548,249 579,270 	"/>
	<polygon style="fill:#DEE1D3;" points="548,249 534,280 579,270 	"/>
	<polygon style="fill:#E5E8DF;" points="534,280 567,294 579,270 	"/>
	<polygon style="fill:#E5E4B9;" points="573,465 565,470 583,477 	"/>
	<polygon style="fill:#7E8A2D;" points="495,535 551,586 583,477 	"/>
	<polygon style="fill:#708230;" points="565,470 495,535 583,477 	"/>
	<polygon style="fill:#0F6A55;" points="567,294 568,326 584,302 	"/>
	<polygon style="fill:#060509;" points="572,435 564,437 584,442 	"/>
	<polygon style="fill:#040000;" points="564,437 573,465 584,442 	"/>
	<polygon style="fill:#9ABF3F;" points="579,372 565,389 585,417 	"/>
	<polygon style="fill:#C7C398;" points="572,435 584,442 585,417 	"/>
	<polygon style="fill:#90B642;" points="565,389 549,408 585,417 	"/>
	<polygon style="fill:#5C5833;" points="549,408 572,435 585,417 	"/>
	<polygon style="fill:#5A8EBC;" points="575,142 574,151 586,154 	"/>
	<polygon style="fill:#F3FAFB;" points="574,151 577,161 586,154 	"/>
	<polygon style="fill:#B3C9E8;" points="586,154 577,161 588,167 	"/>
	<polygon style="fill:#B7BADE;" points="571,165 568,175 588,167 	"/>
	<polygon style="fill:#5385C1;" points="577,161 571,165 588,167 	"/>
	<polygon style="fill:#212E62;" points="568,175 569,195 588,167 	"/>
	<polygon style="fill:#0C614F;" points="579,270 567,294 588,292 	"/>
	<polygon style="fill:#318475;" points="567,294 584,302 588,292 	"/>
	<polygon style="fill:#548EC3;" points="575,142 586,154 589,139 	"/>
	<polygon style="fill:#E0E5D9;" points="568,326 544,349 590,343 	"/>
	<polygon style="fill:#E9EBE0;" points="544,349 579,372 590,343 	"/>
	<polygon style="fill:#4C9A8A;" points="584,302 568,326 590,318 	"/>
	<polygon style="fill:#126857;" points="568,326 590,343 590,318 	"/>
	<polygon style="fill:#050101;" points="588,292 584,302 590,318 	"/>
	<polygon style="fill:#1B2E6E;" points="575,142 589,139 592,125 	"/>
	<polygon style="fill:#1C2D6E;" points="527,142 564,144 592,125 	"/>
	<polygon style="fill:#1C2E69;" points="564,144 575,142 592,125 	"/>
	<polygon style="fill:#4E8CB9;" points="586,154 588,167 592,152 	"/>
	<polygon style="fill:#6C83B1;" points="589,139 586,154 592,152 	"/>
	<polygon style="fill:#769D36;" points="569,195 575,215 592,202 	"/>
	<polygon style="fill:#2A4322;" points="588,167 569,195 592,202 	"/>
	<polygon style="fill:#6F9A30;" points="592,202 575,215 594,207 	"/>
	<polygon style="fill:#707C9D;" points="589,139 592,152 596,145 	"/>
	<polygon style="fill:#1E2B66;" points="589,139 596,145 596,139 	"/>
	<polygon style="fill:#1C6C5D;" points="579,270 588,292 596,280 	"/>
	<polygon style="fill:#E2E0BA;" points="573,465 583,477 596,470 	"/>
	<polygon style="fill:#040000;" points="584,442 573,465 596,470 	"/>
	<polygon style="fill:#1B2E68;" points="592,125 589,139 598,136 	"/>
	<polygon style="fill:#1C2B73;" points="589,139 596,139 598,136 	"/>
	<polygon style="fill:#C0BD8B;" points="585,417 584,442 599,439 	"/>
	<polygon style="fill:#040000;" points="584,442 596,470 599,439 	"/>
	<polygon style="fill:#6D9A30;" points="592,202 594,207 602,206 	"/>
	<polygon style="fill:#E9ECE1;" points="571,232 579,270 602,259 	"/>
	<polygon style="fill:#054936;" points="579,270 596,280 602,259 	"/>
	<polygon style="fill:#47967D;" points="590,318 590,343 603,327 	"/>
	<polygon style="fill:#050202;" points="588,292 590,318 603,327 	"/>
	<polygon style="fill:#6B96CF;" points="592,152 588,167 604,159 	"/>
	<polygon style="fill:#84A729;" points="602,206 594,207 604,223 	"/>
	<polygon style="fill:#E6EADC;" points="571,232 602,259 604,223 	"/>
	<polygon style="fill:#9CC151;" points="575,215 571,232 604,223 	"/>
	<polygon style="fill:#80A72A;" points="594,207 575,215 604,223 	"/>
	<polygon style="fill:#1C2D6D;" points="596,145 592,152 605,150 	"/>
	<polygon style="fill:#1D2A58;" points="592,152 604,159 605,150 	"/>
	<polygon style="fill:#8584AB;" points="596,139 596,145 605,150 	"/>
	<polygon style="fill:#97B3CC;" points="598,136 596,139 605,150 	"/>
	<polygon style="fill:#192851;" points="605,150 604,159 610,162 	"/>
	<polygon style="fill:#D5E2EA;" points="604,159 588,167 610,162 	"/>
	<polygon style="fill:#6C8931;" points="583,477 551,586 610,485 	"/>
	<polygon style="fill:#FCFCED;" points="596,470 583,477 610,485 	"/>
	<polygon style="fill:#040000;" points="599,439 596,470 612,439 	"/>
	<polygon style="fill:#747867;" points="585,417 599,439 612,439 	"/>
	<polygon style="fill:#E9ECE3;" points="590,343 579,372 613,350 	"/>
	<polygon style="fill:#166B58;" points="603,327 590,343 613,350 	"/>
	<polygon style="fill:#6F682A;" points="596,470 610,485 613,475 	"/>
	<polygon style="fill:#7B862E;" points="610,485 551,586 615,590 	"/>
	<polygon style="fill:#608DC6;" points="605,150 610,162 616,149 	"/>
	<polygon style="fill:#709834;" points="592,202 602,206 616,178 	"/>
	<polygon style="fill:#142C14;" points="588,167 592,202 616,178 	"/>
	<polygon style="fill:#1B2654;" points="610,162 588,167 616,178 	"/>
	<polygon style="fill:#9AC344;" points="579,372 585,417 617,378 	"/>
	<polygon style="fill:#F0F2E7;" points="613,350 579,372 617,378 	"/>
	<polygon style="fill:#629ACB;" points="598,136 605,150 620,139 	"/>
	<polygon style="fill:#7F9FBD;" points="605,150 616,149 620,139 	"/>
	<polygon style="fill:#1A2F7F;" points="620,139 616,149 622,158 	"/>
	<polygon style="fill:#273D6F;" points="616,149 610,162 622,158 	"/>
	<polygon style="fill:#172245;" points="610,162 616,178 622,158 	"/>
	<polygon style="fill:#070505;" points="596,280 588,292 622,279 	"/>
	<polygon style="fill:#0D6450;" points="602,259 596,280 622,279 	"/>
	<polygon style="fill:#318070;" points="603,327 613,350 623,329 	"/>
	<polygon style="fill:#F5F7D5;" points="613,475 610,485 623,483 	"/>
	<polygon style="fill:#6F9D30;" points="610,485 615,590 623,483 	"/>
	<polygon style="fill:#050101;" points="612,439 596,470 625,460 	"/>
	<polygon style="fill:#463E1C;" points="596,470 613,475 625,460 	"/>
	<polygon style="fill:#FDFBE7;" points="613,475 623,483 625,470 	"/>
	<polygon style="fill:#71672B;" points="625,460 613,475 625,470 	"/>
	<polygon style="fill:#1C3677;" points="592,125 598,136 626,132 	"/>
	<polygon style="fill:#1C2D6D;" points="598,136 620,139 626,132 	"/>
	<polygon style="fill:#645836;" points="585,417 612,439 630,417 	"/>
	<polygon style="fill:#ABCD53;" points="617,378 585,417 630,417 	"/>
	<polygon style="fill:#040000;" points="603,327 623,329 632,290 	"/>
	<polygon style="fill:#040000;" points="588,292 603,327 632,290 	"/>
	<polygon style="fill:#050001;" points="622,279 588,292 632,290 	"/>
	<polygon style="fill:#EDF6EB;" points="613,350 617,378 638,342 	"/>
	<polygon style="fill:#024F3B;" points="623,329 613,350 638,342 	"/>
	<polygon style="fill:#060302;" points="632,290 623,329 638,317 	"/>
	<polygon style="fill:#025545;" points="623,329 638,342 638,317 	"/>
	<polygon style="fill:#DFDFBC;" points="612,439 625,460 638,458 	"/>
	<polygon style="fill:#4E4821;" points="625,460 625,470 638,458 	"/>
	<polygon style="fill:#004B3E;" points="622,279 632,290 644,266 	"/>
	<polygon style="fill:#024E3D;" points="602,259 622,279 644,266 	"/>
	<polygon style="fill:#4276B1;" points="620,139 622,158 646,146 	"/>
	<polygon style="fill:#1B2952;" points="626,132 620,139 646,146 	"/>
	<polygon style="fill:#F0F3E2;" points="604,223 602,259 648,224 	"/>
	<polygon style="fill:#F2F7E9;" points="602,259 644,266 648,224 	"/>
	<polygon style="fill:#93B747;" points="602,206 604,223 648,224 	"/>
	<polygon style="fill:#719A2F;" points="616,178 602,206 649,197 	"/>
	<polygon style="fill:#A39A5A;" points="625,470 623,483 649,481 	"/>
	<polygon style="fill:#888034;" points="638,458 625,470 649,481 	"/>
	<polygon style="fill:#8EB82A;" points="602,206 648,224 651,215 	"/>
	<polygon style="fill:#92BA48;" points="649,197 602,206 651,215 	"/>
	<polygon style="fill:#A7C75E;" points="617,378 630,417 653,376 	"/>
	<polygon style="fill:#F4F6EB;" points="638,342 617,378 653,376 	"/>
	<polygon style="fill:#074C39;" points="638,317 638,342 653,323 	"/>
	<polygon style="fill:#4F5042;" points="630,417 612,439 653,438 	"/>
	<polygon style="fill:#FDFBE5;" points="612,439 638,458 653,438 	"/>
	<polygon style="fill:#182449;" points="646,146 622,158 659,182 	"/>
	<polygon style="fill:#141E40;" points="622,158 616,178 659,182 	"/>
	<polygon style="fill:#618033;" points="616,178 649,197 659,182 	"/>
	<polygon style="fill:#034C39;" points="644,266 632,290 659,298 	"/>
	<polygon style="fill:#004333;" points="632,290 638,317 659,298 	"/>
	<polygon style="fill:#014A37;" points="638,317 653,323 659,298 	"/>
	<polygon style="fill:#19264B;" points="646,146 659,182 660,143 	"/>
	<polygon style="fill:#B4CF62;" points="653,376 630,417 664,417 	"/>
	<polygon style="fill:#4B4A22;" points="630,417 653,438 664,417 	"/>
	<polygon style="fill:#84772E;" points="638,458 649,481 665,471 	"/>
	<polygon style="fill:#88952B;" points="623,483 615,590 666,585 	"/>
	<polygon style="fill:#77A12F;" points="649,481 623,483 666,585 	"/>
	<polygon style="fill:#060203;" points="653,438 638,458 667,454 	"/>
	<polygon style="fill:#161406;" points="638,458 665,471 667,454 	"/>
	<polygon style="fill:#9F9B6F;" points="664,417 653,438 667,454 	"/>
	<polygon style="fill:#FAFBE8;" points="665,471 649,481 675,479 	"/>
	<polygon style="fill:#7CA22F;" points="649,481 666,585 675,479 	"/>
	<polygon style="fill:#F2F7E8;" points="665,471 675,479 678,478 	"/>
	<polygon style="fill:#B6D072;" points="651,215 648,224 682,240 	"/>
	<polygon style="fill:#F5F7EA;" points="648,224 644,266 682,240 	"/>
	<polygon style="fill:#F9FAFD;" points="644,266 659,298 682,240 	"/>
	<polygon style="fill:#776B2A;" points="667,454 665,471 685,459 	"/>
	<polygon style="fill:#958B3F;" points="665,471 678,478 685,459 	"/>
	<polygon style="fill:#AFCE66;" points="653,376 664,417 686,365 	"/>
	<polygon style="fill:#F7F8F2;" points="638,342 653,376 686,365 	"/>
	<polygon style="fill:#FAFCFB;" points="653,323 638,342 686,365 	"/>
	<polygon style="fill:#182448;" points="660,143 659,182 688,150 	"/>
	<polygon style="fill:#7BB02E;" points="649,197 651,215 689,200 	"/>
	<polygon style="fill:#84A43C;" points="659,182 649,197 689,200 	"/>
	<polygon style="fill:#95BE38;" points="651,215 682,240 695,225 	"/>
	<polygon style="fill:#7EAA2C;" points="689,200 651,215 695,225 	"/>
	<polygon style="fill:#D4D7B9;" points="664,417 667,454 700,437 	"/>
	<polygon style="fill:#EBEACD;" points="667,454 685,459 700,437 	"/>
	<polygon style="fill:#9FC252;" points="689,200 695,225 703,216 	"/>
	<polygon style="fill:#FFFFFF;" points="689,200 703,216 706,212 	"/>
	<polygon style="fill:#FFFFFF;" points="703,195 689,200 706,212 	"/>
	<polygon style="fill:#85A331;" points="675,479 666,585 707,572 	"/>
	<polygon style="fill:#7DA934;" points="678,478 675,479 707,572 	"/>
	<polygon style="fill:#2C4062;" points="689,200 703,195 707,170 	"/>
	<polygon style="fill:#182347;" points="688,150 659,182 707,170 	"/>
	<polygon style="fill:#111A3B;" points="659,182 689,200 707,170 	"/>
	<polygon style="fill:#F9FAF7;" points="653,323 686,365 710,351 	"/>
	<polygon style="fill:#F8F9F3;" points="682,240 659,298 712,264 	"/>
	<polygon style="fill:#A0C356;" points="695,225 682,240 712,264 	"/>
	<polygon style="fill:#050203;" points="700,437 685,459 715,453 	"/>
	<polygon style="fill:#72672A;" points="685,459 678,478 715,453 	"/>
	<polygon style="fill:#050101;" points="700,437 715,453 715,441 	"/>
	<polygon style="fill:#A0C451;" points="710,351 686,365 717,419 	"/>
	<polygon style="fill:#6D7762;" points="700,437 715,441 717,419 	"/>
	<polygon style="fill:#B2CD60;" points="686,365 664,417 717,419 	"/>
	<polygon style="fill:#8E8154;" points="664,417 700,437 717,419 	"/>
	<polygon style="fill:#A3C44F;" points="703,216 695,225 725,245 	"/>
	<polygon style="fill:#B5CE71;" points="695,225 712,264 725,245 	"/>
	<polygon style="fill:#A8A386;" points="706,212 703,216 725,211 	"/>
	<polygon style="fill:#EFEADF;" points="703,216 725,245 725,211 	"/>
	<polygon style="fill:#FFFFFF;" points="703,195 706,212 725,211 	"/>
	<polygon style="fill:#A0C54D;" points="725,245 712,264 725,288 	"/>
	<polygon style="fill:#F5F7E9;" points="712,264 659,298 725,288 	"/>
	<polygon style="fill:#F7F9EF;" points="725,288 659,298 728,318 	"/>
	<polygon style="fill:#FAFCFB;" points="659,298 653,323 728,318 	"/>
	<polygon style="fill:#F9FAF4;" points="653,323 710,351 728,318 	"/>
	<polygon style="fill:#090506;" points="715,441 715,453 731,435 	"/>
	<polygon style="fill:#F3F1E0;" points="717,419 715,441 731,435 	"/>
	<polygon style="fill:#6E785E;" points="717,419 731,435 740,427 	"/>
	<polygon style="fill:#AFCB59;" points="710,351 717,419 750,411 	"/>
	<polygon style="fill:#8A8353;" points="717,419 740,427 750,411 	"/>
	<polygon style="fill:#9BAB2B;" points="678,478 707,572 751,543 	"/>
	<polygon style="fill:#8FB738;" points="715,453 678,478 751,543 	"/>
	<polygon style="fill:#7A9531;" points="707,572 734,653 754,597 	"/>
	<polygon style="fill:#A8C548;" points="751,543 707,572 754,597 	"/>
	<polygon style="fill:#9CBF47;" points="754,597 734,653 763,654 	"/>
	<polygon style="fill:#84AC34;" points="734,653 746,727 769,682 	"/>
	<polygon style="fill:#A1C351;" points="763,654 734,653 769,682 	"/>
	<polygon style="fill:#365A2D;" points="735,847 740,859 771,863 	"/>
	<polygon style="fill:#FEFEFC;" points="725,211 725,245 771,310 	"/>
	<polygon style="fill:#97BC43;" points="725,245 725,288 771,310 	"/>
	<polygon style="fill:#9EC149;" points="725,288 728,318 771,310 	"/>
	<polygon style="fill:#6D9131;" points="744,749 754,790 774,773 	"/>
	<polygon style="fill:#82AD3C;" points="746,727 744,749 774,773 	"/>
	<polygon style="fill:#8CBA41;" points="769,682 746,727 774,773 	"/>
	<polygon style="fill:#99C553;" points="774,773 754,790 786,804 	"/>
	<polygon style="fill:#6C9531;" points="754,790 735,847 786,804 	"/>
	<polygon style="fill:#466530;" points="735,847 771,863 786,804 	"/>
	<polygon style="fill:#687E54;" points="768,558 782,564 788,561 	"/>
	<polygon style="fill:#729932;" points="751,543 768,558 792,532 	"/>
	<polygon style="fill:#7EA937;" points="768,558 788,561 792,532 	"/>
	<polygon style="fill:#B7D069;" points="710,351 750,411 795,374 	"/>
	<polygon style="fill:#B6CF65;" points="728,318 710,351 795,374 	"/>
	<polygon style="fill:#AECC60;" points="771,310 728,318 795,374 	"/>
	<polygon style="fill:#A4CD51;" points="740,427 731,435 795,473 	"/>
	<polygon style="fill:#96BA3E;" points="715,453 751,543 795,473 	"/>
	<polygon style="fill:#8AB73C;" points="751,543 792,532 795,473 	"/>
	<polygon style="fill:#9CC746;" points="731,435 715,453 795,473 	"/>
	<polygon style="fill:#95B947;" points="792,532 788,561 798,537 	"/>
	<polygon style="fill:#9BC047;" points="750,411 740,427 802,420 	"/>
	<polygon style="fill:#94B93E;" points="740,427 795,473 802,420 	"/>
	<polygon style="fill:#A1C34A;" points="795,374 750,411 802,420 	"/>
	<polygon style="fill:#A7C863;" points="795,473 792,532 808,511 	"/>
	<polygon style="fill:#668932;" points="792,532 798,537 808,511 	"/>
	<polygon style="fill:#1C1D1D;" points="740,859 550,870 810,873 	"/>
	<polygon style="fill:#6A9131;" points="786,804 771,863 814,826 	"/>
	<polygon style="fill:#405F2E;" points="771,863 810,873 814,826 	"/>
	<polygon style="fill:#8FBC3E;" points="808,511 798,537 817,517 	"/>
	<polygon style="fill:#AECE5D;" points="798,537 788,561 819,553 	"/>
	<polygon style="fill:#A5C761;" points="817,517 798,537 819,553 	"/>
	<polygon style="fill:#B6CA56;" points="795,374 802,420 821,403 	"/>
	<polygon style="fill:#A2C956;" points="795,473 808,511 822,492 	"/>
	<polygon style="fill:#91B837;" points="821,403 802,420 823,426 	"/>
	<polygon style="fill:#94C144;" points="795,473 822,492 836,461 	"/>
	<polygon style="fill:#678A32;" points="814,826 810,873 842,861 	"/>
	<polygon style="fill:#649233;" points="842,861 810,873 847,870 	"/>
	<polygon style="fill:#AFC555;" points="821,403 823,426 847,415 	"/>
	<polygon style="fill:#AACD52;" points="795,374 821,403 847,415 	"/>
	<polygon style="fill:#7BA132;" points="814,826 842,861 850,851 	"/>
	<polygon style="fill:#6D9531;" points="814,826 850,851 853,828 	"/>
	<polygon style="fill:#477033;" points="853,828 850,851 854,851 	"/>
	<polygon style="fill:#ABA16D;" points="842,861 847,870 854,851 	"/>
	<polygon style="fill:#B29B6E;" points="850,851 842,861 854,851 	"/>
	<polygon style="fill:#8BAA2E;" points="847,415 823,426 861,443 	"/>
	<polygon style="fill:#6C9439;" points="847,870 810,873 861,872 	"/>
	<polygon style="fill:#496E33;" points="853,828 854,851 865,858 	"/>
	<polygon style="fill:#E0DBB6;" points="854,851 847,870 865,858 	"/>
	<polygon style="fill:#F9FAE5;" points="847,870 861,872 865,858 	"/>
	<polygon style="fill:#628B36;" points="865,858 861,872 871,873 	"/>
	<polygon style="fill:#5F8039;" points="861,872 810,873 871,873 	"/>
	<polygon style="fill:#A5CB4E;" points="836,461 822,492 872,451 	"/>
	<polygon style="fill:#B6CB5F;" points="847,415 861,443 894,418 	"/>
	<polygon style="fill:#90B335;" points="861,443 872,451 894,418 	"/>
	<polygon style="fill:#B2D35D;" points="795,374 847,415 894,418 	"/>
	<polygon style="fill:#638B33;" points="853,828 865,858 898,824 	"/>
	<polygon style="fill:#547834;" points="865,858 871,873 899,862 	"/>
	<polygon style="fill:#668C33;" points="899,852 865,858 899,862 	"/>
	<polygon style="fill:#699132;" points="898,824 865,858 902,842 	"/>
	<polygon style="fill:#648E33;" points="865,858 899,852 902,842 	"/>
	<polygon style="fill:#90B937;" points="894,418 872,451 902,448 	"/>
	<polygon style="fill:#6C9837;" points="898,824 902,842 911,842 	"/>
	<polygon style="fill:#968552;" points="902,842 899,852 911,842 	"/>
	<polygon style="fill:#9EC94C;" points="902,448 872,451 912,477 	"/>
	<polygon style="fill:#93C045;" points="872,451 822,492 912,477 	"/>
	<polygon style="fill:#679138;" points="899,862 871,873 914,870 	"/>
	<polygon style="fill:#CBC5A2;" points="911,842 899,852 919,853 	"/>
	<polygon style="fill:#BBB47F;" points="899,852 899,862 919,853 	"/>
	<polygon style="fill:#E7DBB6;" points="899,862 914,870 919,853 	"/>
	<polygon style="fill:#699237;" points="914,870 871,873 920,872 	"/>
	<polygon style="fill:#FDFCEB;" points="919,853 914,870 925,863 	"/>
	<polygon style="fill:#FFF9EE;" points="914,870 920,872 925,863 	"/>
	<polygon style="fill:#B8B58C;" points="911,842 919,853 930,838 	"/>
	<polygon style="fill:#628435;" points="898,824 911,842 930,838 	"/>
	<polygon style="fill:#6F9445;" points="919,853 925,863 932,862 	"/>
	<polygon style="fill:#F1E9C6;" points="930,838 919,853 932,862 	"/>
	<polygon style="fill:#FBFCF4;" points="925,863 920,872 932,862 	"/>
	<polygon style="fill:#A9C755;" points="894,418 902,448 936,457 	"/>
	<polygon style="fill:#98BC42;" points="902,448 912,477 936,457 	"/>
</g>
</svg>
