<?xml version="1.0" encoding="utf-8"?>
<!-- Generator: Adobe Illustrator 19.0.0, SVG Export Plug-In . SVG Version: 6.00 Build 0)  -->
<svg version="1.1" id="图层_1" xmlns="http://www.w3.org/2000/svg" xmlns:xlink="http://www.w3.org/1999/xlink" x="0px" y="0px"
	 width="800px" height="785px" viewBox="300 -292 800 785" style="enable-background:new 300 -292 800 785;" xml:space="preserve">
<g>
	<polygon style="fill:#9BB19A;" points="345,19 348,22 349,22 	"/>
	<polygon style="fill:#75A261;" points="353,-11 346,-4 354,-1 	"/>
	<polygon style="fill:#375F2A;" points="346,-4 343,3 354,-1 	"/>
	<polygon style="fill:#4B7D38;" points="343,3 343,14 357,5 	"/>
	<polygon style="fill:#59873F;" points="354,-1 343,3 357,5 	"/>
	<polygon style="fill:#477334;" points="343,14 345,19 357,5 	"/>
	<polygon style="fill:#456D2F;" points="345,19 349,22 357,5 	"/>
	<polygon style="fill:#556852;" points="349,22 348,22 360,25 	"/>
	<polygon style="fill:#6B7769;" points="348,22 347,22 360,25 	"/>
	<polygon style="fill:#4A7434;" points="357,5 349,22 364,8 	"/>
	<polygon style="fill:#3D662E;" points="349,22 360,25 364,8 	"/>
	<polygon style="fill:#81B563;" points="354,-1 357,5 364,-9 	"/>
	<polygon style="fill:#80B05C;" points="357,5 364,8 364,-9 	"/>
	<polygon style="fill:#8BC26F;" points="353,-11 354,-1 364,-9 	"/>
	<polygon style="fill:#659348;" points="364,-9 364,8 378,-5 	"/>
	<polygon style="fill:#84BA62;" points="378,-5 364,8 383,19 	"/>
	<polygon style="fill:#51803C;" points="364,8 360,25 383,19 	"/>
	<polygon style="fill:#2A5520;" points="360,25 380,29 383,19 	"/>
	<polygon style="fill:#A1D277;" points="378,-5 383,19 384,-6 	"/>
	<polygon style="fill:#ABDC80;" points="364,-9 378,-5 387,-15 	"/>
	<polygon style="fill:#A3E083;" points="378,-5 384,-6 387,-15 	"/>
	<polygon style="fill:#E9FBE5;" points="353,-11 364,-9 390,-23 	"/>
	<polygon style="fill:#E9FBE5;" points="364,-9 387,-15 390,-23 	"/>
	<polygon style="fill:#8AA8A0;" points="390,-23 387,-15 396,-21 	"/>
	<polygon style="fill:#1D331C;" points="394,-29 390,-23 396,-21 	"/>
	<polygon style="fill:#325A38;" points="394,-29 396,-21 400,-30 	"/>
	<polygon style="fill:#2A6127;" points="383,19 380,29 401,34 	"/>
	<polygon style="fill:#6A8A5B;" points="394,-29 400,-30 402,-39 	"/>
	<polygon style="fill:#DCD6BE;" points="400,-30 396,-21 403,-22 	"/>
	<polygon style="fill:#BCD1C0;" points="402,-39 400,-30 406,-36 	"/>
	<polygon style="fill:#7A6A46;" points="396,-21 387,-15 406,-15 	"/>
	<polygon style="fill:#90A390;" points="387,-15 384,-6 406,-15 	"/>
	<polygon style="fill:#000300;" points="403,-22 396,-21 406,-15 	"/>
	<polygon style="fill:#75A374;" points="406,-19 403,-22 406,-15 	"/>
	<polygon style="fill:#83BB60;" points="384,-6 383,19 406,16 	"/>
	<polygon style="fill:#235120;" points="383,19 401,34 406,16 	"/>
	<polygon style="fill:#67742F;" points="406,-15 384,-6 409,-10 	"/>
	<polygon style="fill:#95DB83;" points="384,-6 406,16 409,-10 	"/>
	<polygon style="fill:#85AC7F;" points="403,-22 406,-19 411,-30 	"/>
	<polygon style="fill:#4EA964;" points="400,-30 403,-22 411,-30 	"/>
	<polygon style="fill:#6FBD81;" points="406,-36 400,-30 411,-30 	"/>
	<polygon style="fill:#2B5E25;" points="406,16 401,34 413,28 	"/>
	<polygon style="fill:#74AE71;" points="406,-36 411,-30 416,-41 	"/>
	<polygon style="fill:#BCD1C0;" points="402,-39 406,-36 416,-41 	"/>
	<polygon style="fill:#583B13;" points="406,-19 406,-15 420,-10 	"/>
	<polygon style="fill:#A29166;" points="406,-15 409,-10 420,-10 	"/>
	<polygon style="fill:#386431;" points="406,16 413,28 421,9 	"/>
	<polygon style="fill:#7DC57C;" points="409,-10 406,16 421,9 	"/>
	<polygon style="fill:#7CC97B;" points="420,-10 409,-10 421,9 	"/>
	<polygon style="fill:#F7E9E0;" points="411,-30 406,-19 423,-27 	"/>
	<polygon style="fill:#070918;" points="406,-19 420,-10 423,-27 	"/>
	<polygon style="fill:#85BA86;" points="416,-41 411,-30 424,-36 	"/>
	<polygon style="fill:#66A966;" points="411,-30 423,-27 424,-36 	"/>
	<polygon style="fill:#255521;" points="413,28 401,34 424,40 	"/>
	<polygon style="fill:#3B5C2D;" points="401,34 418,54 424,40 	"/>
	<polygon style="fill:#79C773;" points="420,-10 421,9 427,-4 	"/>
	<polygon style="fill:#FFFEFA;" points="423,-27 420,-10 430,-20 	"/>
	<polygon style="fill:#73B971;" points="420,-10 427,-4 430,-13 	"/>
	<polygon style="fill:#DEE5C4;" points="430,-20 420,-10 430,-13 	"/>
	<polygon style="fill:#64A166;" points="430,-20 430,-13 433,-23 	"/>
	<polygon style="fill:#72A56D;" points="424,-36 423,-27 433,-23 	"/>
	<polygon style="fill:#70AE6B;" points="423,-27 430,-20 433,-23 	"/>
	<polygon style="fill:#61AA59;" points="427,-4 421,9 433,2 	"/>
	<polygon style="fill:#6D6139;" points="430,294 424,313 434,316 	"/>
	<polygon style="fill:#506A43;" points="424,313 431,333 434,316 	"/>
	<polygon style="fill:#6DBB67;" points="430,-13 427,-4 437,-7 	"/>
	<polygon style="fill:#5EA756;" points="427,-4 433,2 437,-7 	"/>
	<polygon style="fill:#8EBA89;" points="433,-23 430,-13 437,-7 	"/>
	<polygon style="fill:#498746;" points="421,9 413,28 438,26 	"/>
	<polygon style="fill:#4C8A4B;" points="413,28 424,40 438,26 	"/>
	<polygon style="fill:#40833C;" points="433,2 421,9 440,5 	"/>
	<polygon style="fill:#51A051;" points="421,9 438,26 440,5 	"/>
	<polygon style="fill:#66A264;" points="437,-7 433,2 440,5 	"/>
	<polygon style="fill:#475D36;" points="434,316 431,333 441,319 	"/>
	<polygon style="fill:#594F2B;" points="434,316 441,319 442,298 	"/>
	<polygon style="fill:#58542E;" points="430,294 434,316 442,298 	"/>
	<polygon style="fill:#C9C69D;" points="441,294 430,294 442,298 	"/>
	<polygon style="fill:#56A552;" points="438,26 424,40 444,50 	"/>
	<polygon style="fill:#5B9153;" points="424,40 418,54 444,50 	"/>
	<polygon style="fill:#538747;" points="418,54 427,82 444,50 	"/>
	<polygon style="fill:#374D26;" points="431,333 436,345 448,332 	"/>
	<polygon style="fill:#445328;" points="441,319 431,333 448,332 	"/>
	<polygon style="fill:#6F975B;" points="427,82 441,109 451,78 	"/>
	<polygon style="fill:#90C67A;" points="444,50 427,82 451,78 	"/>
	<polygon style="fill:#CAC492;" points="441,294 442,298 453,301 	"/>
	<polygon style="fill:#B4A177;" points="442,298 441,319 453,301 	"/>
	<polygon style="fill:#40522A;" points="448,332 436,345 454,337 	"/>
	<polygon style="fill:#8B8A5A;" points="453,301 441,319 456,306 	"/>
	<polygon style="fill:#95CE7F;" points="451,78 441,109 458,99 	"/>
	<polygon style="fill:#6C964E;" points="441,109 454,133 458,99 	"/>
	<polygon style="fill:#35441D;" points="448,332 454,337 460,335 	"/>
	<polygon style="fill:#40502B;" points="454,337 436,345 463,364 	"/>
	<polygon style="fill:#3D4C21;" points="460,335 454,337 463,364 	"/>
	<polygon style="fill:#80B766;" points="458,99 454,133 466,98 	"/>
	<polygon style="fill:#82BD5F;" points="451,78 458,99 466,98 	"/>
	<polygon style="fill:#887B4E;" points="448,332 460,335 467,317 	"/>
	<polygon style="fill:#6E603B;" points="441,319 448,332 467,317 	"/>
	<polygon style="fill:#BCA66A;" points="456,306 441,319 467,317 	"/>
	<polygon style="fill:#92AA5C;" points="453,301 456,306 468,302 	"/>
	<polygon style="fill:#96B46A;" points="456,306 467,317 468,302 	"/>
	<polygon style="fill:#778D4D;" points="467,317 460,335 469,328 	"/>
	<polygon style="fill:#91B26D;" points="468,302 467,317 483,294 	"/>
	<polygon style="fill:#7C9F7F;" points="468,302 483,294 485,278 	"/>
	<polygon style="fill:#779359;" points="454,133 461,146 485,124 	"/>
	<polygon style="fill:#85C06C;" points="466,98 454,133 485,124 	"/>
	<polygon style="fill:#38471E;" points="460,335 463,364 487,364 	"/>
	<polygon style="fill:#5A6D35;" points="469,328 460,335 487,364 	"/>
	<polygon style="fill:#4E6B2B;" points="469,328 487,364 496,340 	"/>
	<polygon style="fill:#608341;" points="461,146 485,174 498,145 	"/>
	<polygon style="fill:#77B061;" points="485,124 461,146 498,145 	"/>
	<polygon style="fill:#658544;" points="483,294 467,317 503,319 	"/>
	<polygon style="fill:#789855;" points="467,317 469,328 503,319 	"/>
	<polygon style="fill:#566F2B;" points="469,328 496,340 503,319 	"/>
	<polygon style="fill:#84C865;" points="485,124 498,145 508,140 	"/>
	<polygon style="fill:#48652D;" points="483,294 503,319 523,290 	"/>
	<polygon style="fill:#496534;" points="485,278 483,294 523,290 	"/>
	<polygon style="fill:#4E7540;" points="494,265 485,278 523,290 	"/>
	<polygon style="fill:#6CA268;" points="514,260 494,265 523,290 	"/>
	<polygon style="fill:#80BA7D;" points="514,260 523,290 535,257 	"/>
	<polygon style="fill:#466E30;" points="503,195 532,214 535,160 	"/>
	<polygon style="fill:#83C875;" points="508,140 498,145 535,160 	"/>
	<polygon style="fill:#66A652;" points="498,145 485,174 535,160 	"/>
	<polygon style="fill:#50783A;" points="485,174 503,195 535,160 	"/>
	<polygon style="fill:#4D6F3D;" points="535,257 523,290 542,284 	"/>
	<polygon style="fill:#617749;" points="548,227 563,237 564,232 	"/>
	<polygon style="fill:#456C37;" points="535,257 542,284 568,275 	"/>
	<polygon style="fill:#70A66A;" points="535,257 568,275 570,245 	"/>
	<polygon style="fill:#536A3C;" points="564,232 563,237 570,245 	"/>
	<polygon style="fill:#5D9A55;" points="535,160 532,214 571,171 	"/>
	<polygon style="fill:#466A2D;" points="532,214 548,227 579,211 	"/>
	<polygon style="fill:#427532;" points="571,171 532,214 579,211 	"/>
	<polygon style="fill:#42652D;" points="548,227 564,232 579,211 	"/>
	<polygon style="fill:#618A4E;" points="564,232 570,245 579,211 	"/>
	<polygon style="fill:#4C6D34;" points="570,245 568,275 588,272 	"/>
	<polygon style="fill:#3D683A;" points="592,332 589,346 594,347 	"/>
	<polygon style="fill:#365E3B;" points="589,346 586,360 594,347 	"/>
	<polygon style="fill:#60B87B;" points="571,171 579,211 596,174 	"/>
	<polygon style="fill:#58865F;" points="592,332 594,347 600,332 	"/>
	<polygon style="fill:#3E5F32;" points="594,347 586,360 600,362 	"/>
	<polygon style="fill:#56934D;" points="596,174 579,211 600,215 	"/>
	<polygon style="fill:#5B904C;" points="579,211 570,245 600,215 	"/>
	<polygon style="fill:#467139;" points="570,245 588,272 606,268 	"/>
	<polygon style="fill:#375227;" points="588,272 595,278 606,268 	"/>
	<polygon style="fill:#4E5B30;" points="606,268 595,278 608,287 	"/>
	<polygon style="fill:#537F5B;" points="592,332 600,332 609,314 	"/>
	<polygon style="fill:#5A5337;" points="611,401 605,405 614,403 	"/>
	<polygon style="fill:#485D36;" points="611,401 614,403 615,398 	"/>
	<polygon style="fill:#545033;" points="605,405 603,412 615,411 	"/>
	<polygon style="fill:#52532B;" points="614,403 605,405 615,411 	"/>
	<polygon style="fill:#4B7754;" points="608,287 609,314 616,297 	"/>
	<polygon style="fill:#5A8B3A;" points="600,215 570,245 616,235 	"/>
	<polygon style="fill:#59883A;" points="570,245 606,268 616,235 	"/>
	<polygon style="fill:#476E42;" points="611,401 615,398 617,388 	"/>
	<polygon style="fill:#3B4C2C;" points="605,405 611,401 617,388 	"/>
	<polygon style="fill:#476F31;" points="616,235 606,268 622,254 	"/>
	<polygon style="fill:#66AB74;" points="596,174 600,215 626,166 	"/>
	<polygon style="fill:#6D7D4E;" points="617,388 615,398 626,400 	"/>
	<polygon style="fill:#7F6D47;" points="615,398 614,403 626,400 	"/>
	<polygon style="fill:#77653D;" points="614,403 615,411 626,400 	"/>
	<polygon style="fill:#4E7943;" points="609,314 600,332 627,342 	"/>
	<polygon style="fill:#496C36;" points="600,362 613,374 627,342 	"/>
	<polygon style="fill:#5B8851;" points="600,332 594,347 627,342 	"/>
	<polygon style="fill:#48703B;" points="594,347 600,362 627,342 	"/>
	<polygon style="fill:#234311;" points="609,314 627,342 633,321 	"/>
	<polygon style="fill:#59653F;" points="608,287 616,297 633,275 	"/>
	<polygon style="fill:#496439;" points="606,268 608,287 633,275 	"/>
	<polygon style="fill:#3A5E32;" points="622,254 606,268 633,275 	"/>
	<polygon style="fill:#817746;" points="626,400 615,411 633,412 	"/>
	<polygon style="fill:#504B2B;" points="615,411 603,412 633,412 	"/>
	<polygon style="fill:#426636;" points="613,374 616,379 635,353 	"/>
	<polygon style="fill:#80B567;" points="627,342 613,374 635,353 	"/>
	<polygon style="fill:#58643E;" points="633,275 616,297 636,310 	"/>
	<polygon style="fill:#2E5328;" points="616,297 609,314 636,310 	"/>
	<polygon style="fill:#233F0F;" points="609,314 633,321 636,310 	"/>
	<polygon style="fill:#60834D;" points="626,400 633,412 648,389 	"/>
	<polygon style="fill:#405625;" points="616,379 617,388 648,389 	"/>
	<polygon style="fill:#749350;" points="617,388 626,400 648,389 	"/>
	<polygon style="fill:#82A85F;" points="635,353 616,379 650,361 	"/>
	<polygon style="fill:#71864E;" points="616,379 648,389 650,361 	"/>
	<polygon style="fill:#65A956;" points="652,158 626,166 653,233 	"/>
	<polygon style="fill:#3B682D;" points="616,235 622,254 653,233 	"/>
	<polygon style="fill:#3D662A;" points="622,254 633,275 653,233 	"/>
	<polygon style="fill:#4D7F38;" points="600,215 616,235 653,233 	"/>
	<polygon style="fill:#75BE6F;" points="626,166 600,215 653,233 	"/>
	<polygon style="fill:#526434;" points="633,275 636,310 653,288 	"/>
	<polygon style="fill:#3C632E;" points="653,233 633,275 653,288 	"/>
	<polygon style="fill:#4D5E32;" points="653,288 636,310 655,309 	"/>
	<polygon style="fill:#92AC63;" points="650,361 648,389 658,382 	"/>
	<polygon style="fill:#607E48;" points="648,389 633,412 668,409 	"/>
	<polygon style="fill:#82AC6C;" points="658,382 648,389 668,409 	"/>
	<polygon style="fill:#9BB683;" points="650,361 658,382 672,369 	"/>
	<polygon style="fill:#516739;" points="653,288 655,309 679,291 	"/>
	<polygon style="fill:#406732;" points="653,233 653,288 679,291 	"/>
	<polygon style="fill:#698E4B;" points="658,382 668,409 683,399 	"/>
	<polygon style="fill:#99CB76;" points="672,369 658,382 686,380 	"/>
	<polygon style="fill:#739D55;" points="658,382 683,399 686,380 	"/>
	<polygon style="fill:#53613D;" points="679,291 655,309 687,313 	"/>
	<polygon style="fill:#519147;" points="652,158 653,233 687,230 	"/>
	<polygon style="fill:#4A7732;" points="653,233 679,291 687,230 	"/>
	<polygon style="fill:#71B562;" points="652,158 687,230 690,154 	"/>
	<polygon style="fill:#475D2F;" points="679,291 687,313 700,291 	"/>
	<polygon style="fill:#466E30;" points="687,230 679,291 700,291 	"/>
	<polygon style="fill:#3C4B20;" points="700,291 687,313 705,313 	"/>
	<polygon style="fill:#33431C;" points="700,291 705,313 707,313 	"/>
	<polygon style="fill:#435F2F;" points="699,343 699,359 712,367 	"/>
	<polygon style="fill:#A6A6A8;" points="668,409 633,412 717,415 	"/>
	<polygon style="fill:#25491D;" points="700,291 707,313 719,287 	"/>
	<polygon style="fill:#47702E;" points="687,230 700,291 721,262 	"/>
	<polygon style="fill:#2B5025;" points="700,291 719,287 721,262 	"/>
	<polygon style="fill:#76B958;" points="690,154 687,230 723,158 	"/>
	<polygon style="fill:#52843D;" points="687,230 721,262 724,248 	"/>
	<polygon style="fill:#555732;" points="720,403 717,415 732,419 	"/>
	<polygon style="fill:#59844C;" points="707,313 702,326 735,324 	"/>
	<polygon style="fill:#81AB6C;" points="702,326 699,343 735,324 	"/>
	<polygon style="fill:#578D4F;" points="719,287 707,313 736,312 	"/>
	<polygon style="fill:#6AA761;" points="707,313 735,324 736,312 	"/>
	<polygon style="fill:#5F5937;" points="731,399 720,403 738,408 	"/>
	<polygon style="fill:#6E5F38;" points="720,403 732,419 738,408 	"/>
	<polygon style="fill:#545430;" points="738,408 732,419 738,413 	"/>
	<polygon style="fill:#516D3C;" points="699,343 712,367 740,345 	"/>
	<polygon style="fill:#98C485;" points="735,324 699,343 740,345 	"/>
	<polygon style="fill:#334E25;" points="712,367 723,376 740,345 	"/>
	<polygon style="fill:#415B2C;" points="723,376 735,384 740,345 	"/>
	<polygon style="fill:#59893D;" points="721,262 719,287 741,275 	"/>
	<polygon style="fill:#475B36;" points="738,408 738,413 747,402 	"/>
	<polygon style="fill:#5A6A43;" points="735,384 731,399 747,402 	"/>
	<polygon style="fill:#586645;" points="731,399 738,408 747,402 	"/>
	<polygon style="fill:#8ACB67;" points="723,158 687,230 748,170 	"/>
	<polygon style="fill:#68A24D;" points="687,230 724,248 748,170 	"/>
	<polygon style="fill:#508239;" points="719,287 736,312 749,306 	"/>
	<polygon style="fill:#609449;" points="741,275 719,287 749,306 	"/>
	<polygon style="fill:#629945;" points="724,248 721,262 753,254 	"/>
	<polygon style="fill:#6BA652;" points="721,262 741,275 753,254 	"/>
	<polygon style="fill:#927F55;" points="747,402 738,413 761,407 	"/>
	<polygon style="fill:#51561E;" points="756,400 747,402 761,407 	"/>
	<polygon style="fill:#6D9455;" points="740,345 735,384 762,365 	"/>
	<polygon style="fill:#637D3E;" points="762,365 735,384 762,385 	"/>
	<polygon style="fill:#4F6332;" points="735,384 747,402 762,385 	"/>
	<polygon style="fill:#708E52;" points="747,402 756,400 762,385 	"/>
	<polygon style="fill:#595530;" points="738,413 732,419 764,417 	"/>
	<polygon style="fill:#9A8252;" points="761,407 738,413 764,417 	"/>
	<polygon style="fill:#86B95D;" points="748,170 724,248 766,233 	"/>
	<polygon style="fill:#6BA551;" points="724,248 753,254 766,233 	"/>
	<polygon style="fill:#81A462;" points="756,400 761,407 767,393 	"/>
	<polygon style="fill:#65824A;" points="762,385 756,400 767,393 	"/>
	<polygon style="fill:#587137;" points="761,407 764,417 774,415 	"/>
	<polygon style="fill:#89AE69;" points="767,393 761,407 774,415 	"/>
	<polygon style="fill:#78AF5E;" points="748,170 766,233 774,197 	"/>
	<polygon style="fill:#2D5026;" points="749,306 759,320 776,295 	"/>
	<polygon style="fill:#3A5220;" points="741,275 749,306 776,295 	"/>
	<polygon style="fill:#4D7831;" points="753,254 741,275 777,258 	"/>
	<polygon style="fill:#416528;" points="741,275 776,295 777,258 	"/>
	<polygon style="fill:#4F843E;" points="766,233 753,254 777,258 	"/>
	<polygon style="fill:#415822;" points="777,258 776,295 780,293 	"/>
	<polygon style="fill:#7FBD5C;" points="774,197 766,233 782,215 	"/>
	<polygon style="fill:#2D5324;" points="776,295 759,320 786,306 	"/>
	<polygon style="fill:#8FB673;" points="767,393 774,415 787,390 	"/>
	<polygon style="fill:#90AF6B;" points="762,385 767,393 787,390 	"/>
	<polygon style="fill:#86AB65;" points="762,365 762,385 787,390 	"/>
	<polygon style="fill:#43613D;" points="763,339 770,355 787,359 	"/>
	<polygon style="fill:#506A2B;" points="777,258 780,293 789,274 	"/>
	<polygon style="fill:#6C8B47;" points="787,390 774,415 794,413 	"/>
	<polygon style="fill:#517D4C;" points="763,339 787,359 795,317 	"/>
	<polygon style="fill:#49713C;" points="759,320 763,339 795,317 	"/>
	<polygon style="fill:#507C47;" points="786,306 759,320 795,317 	"/>
	<polygon style="fill:#7AB559;" points="766,233 777,258 797,221 	"/>
	<polygon style="fill:#6DAB60;" points="782,215 766,233 797,221 	"/>
	<polygon style="fill:#63AA68;" points="774,197 782,215 797,221 	"/>
	<polygon style="fill:#4D6029;" points="774,415 764,417 801,414 	"/>
	<polygon style="fill:#597038;" points="794,413 774,415 801,414 	"/>
	<polygon style="fill:#5B7F42;" points="795,317 787,359 804,359 	"/>
	<polygon style="fill:#77AB61;" points="795,317 804,359 807,320 	"/>
	<polygon style="fill:#607F3C;" points="777,258 789,274 809,266 	"/>
	<polygon style="fill:#7EB24E;" points="797,221 777,258 809,266 	"/>
	<polygon style="fill:#4B6327;" points="809,266 789,274 821,290 	"/>
	<polygon style="fill:#415824;" points="789,274 780,293 821,290 	"/>
	<polygon style="fill:#89C669;" points="797,221 809,266 825,231 	"/>
	<polygon style="fill:#4B6130;" points="807,320 804,359 828,356 	"/>
	<polygon style="fill:#6A8F4C;" points="823,318 807,320 828,356 	"/>
	<polygon style="fill:#394F38;" points="828,356 840,372 841,359 	"/>
	<polygon style="fill:#36491B;" points="823,318 828,356 841,359 	"/>
	<polygon style="fill:#567040;" points="838,310 823,318 841,359 	"/>
	<polygon style="fill:#485A2A;" points="809,266 821,290 848,285 	"/>
	<polygon style="fill:#384C27;" points="841,359 840,372 849,371 	"/>
	<polygon style="fill:#4F4A2D;" points="849,371 840,372 852,380 	"/>
	<polygon style="fill:#78B16D;" points="853,227 825,231 861,251 	"/>
	<polygon style="fill:#7AA150;" points="825,231 809,266 861,251 	"/>
	<polygon style="fill:#718B44;" points="809,266 848,285 861,251 	"/>
	<polygon style="fill:#343C13;" points="841,359 849,371 868,347 	"/>
	<polygon style="fill:#68934B;" points="858,301 838,310 868,324 	"/>
	<polygon style="fill:#536F3E;" points="838,310 841,359 868,324 	"/>
	<polygon style="fill:#5F783E;" points="841,359 868,347 868,324 	"/>
	<polygon style="fill:#363107;" points="849,371 852,380 869,368 	"/>
	<polygon style="fill:#A18C5F;" points="868,347 849,371 869,368 	"/>
	<polygon style="fill:#53692B;" points="861,251 848,285 872,276 	"/>
	<polygon style="fill:#84BA6C;" points="853,227 861,251 892,225 	"/>
	<polygon style="fill:#87B45F;" points="892,225 861,251 893,243 	"/>
	<polygon style="fill:#667437;" points="861,251 872,276 896,267 	"/>
	<polygon style="fill:#75924F;" points="893,243 861,251 896,267 	"/>
	<polygon style="fill:#6B9E59;" points="892,225 893,243 909,220 	"/>
	<polygon style="fill:#535C23;" points="893,243 896,267 917,264 	"/>
	<polygon style="fill:#78A347;" points="909,220 893,243 921,236 	"/>
	<polygon style="fill:#80964B;" points="893,243 917,264 921,236 	"/>
	<polygon style="fill:#6AA257;" points="909,220 921,236 940,214 	"/>
	<polygon style="fill:#545E21;" points="921,236 917,264 948,246 	"/>
	<polygon style="fill:#84A554;" points="940,214 921,236 948,246 	"/>
	<polygon style="fill:#8AA852;" points="940,214 948,246 957,225 	"/>
	<polygon style="fill:#8EB566;" points="940,214 957,225 969,211 	"/>
	<polygon style="fill:#4C5619;" points="957,225 948,246 979,236 	"/>
	<polygon style="fill:#769140;" points="969,211 957,225 979,236 	"/>
	<polygon style="fill:#839D46;" points="969,211 979,236 981,215 	"/>
	<polygon style="fill:#799E50;" points="969,211 981,215 1008,206 	"/>
	<polygon style="fill:#4C551E;" points="981,215 979,236 1012,226 	"/>
	<polygon style="fill:#799642;" points="1008,206 981,215 1012,226 	"/>
	<polygon style="fill:#9DBA60;" points="1008,206 1012,226 1041,204 	"/>
	<polygon style="fill:#5D7332;" points="1041,204 1012,226 1047,220 	"/>
	<polygon style="fill:#93AD52;" points="1041,204 1047,220 1077,217 	"/>
	<polygon style="fill:#4F6117;" points="1077,217 1047,220 1084,224 	"/>
</g>
</svg>
