<?xml version="1.0" encoding="utf-8"?>
<!-- Generator: Adobe Illustrator 19.0.0, SVG Export Plug-In . SVG Version: 6.00 Build 0)  -->
<svg version="1.1" id="图层_1" xmlns="http://www.w3.org/2000/svg" xmlns:xlink="http://www.w3.org/1999/xlink" x="0px" y="0px"
	 width="1200px" height="1000px" viewBox="0 0 1200 1000" style="enable-background:new 0 0 1200 1000;" xml:space="preserve">
<g>
	<polygon style="fill:#99AE98;" points="231,330 234,333 235,333 	"/>
	<polygon style="fill:#739D60;" points="239,300 232,307 240,310 	"/>
	<polygon style="fill:#365E2F;" points="232,307 229,314 240,310 	"/>
	<polygon style="fill:#4A7A37;" points="229,314 229,325 243,316 	"/>
	<polygon style="fill:#58843F;" points="240,310 229,314 243,316 	"/>
	<polygon style="fill:#467134;" points="229,325 231,330 243,316 	"/>
	<polygon style="fill:#446B32;" points="231,330 235,333 243,316 	"/>
	<polygon style="fill:#556751;" points="235,333 234,333 246,336 	"/>
	<polygon style="fill:#6C7668;" points="234,333 233,333 246,336 	"/>
	<polygon style="fill:#497234;" points="243,316 235,333 250,319 	"/>
	<polygon style="fill:#3D6431;" points="235,333 246,336 250,319 	"/>
	<polygon style="fill:#7EAF62;" points="240,310 243,316 250,302 	"/>
	<polygon style="fill:#7DAA5B;" points="243,316 250,319 250,302 	"/>
	<polygon style="fill:#88BB6D;" points="239,300 240,310 250,302 	"/>
	<polygon style="fill:#638F48;" points="250,302 250,319 264,306 	"/>
	<polygon style="fill:#81B361;" points="264,306 250,319 269,330 	"/>
	<polygon style="fill:#507D3C;" points="250,319 246,336 269,330 	"/>
	<polygon style="fill:#2B542B;" points="246,336 266,340 269,330 	"/>
	<polygon style="fill:#9CCA76;" points="264,306 269,330 270,305 	"/>
	<polygon style="fill:#A6D17F;" points="250,302 264,306 273,296 	"/>
	<polygon style="fill:#A1CF81;" points="264,306 270,305 273,296 	"/>
	<polygon style="fill:#E7F2E1;" points="239,300 250,302 276,288 	"/>
	<polygon style="fill:#E7F2E1;" points="250,302 273,296 276,288 	"/>
	<polygon style="fill:#88A59D;" points="276,288 273,296 282,290 	"/>
	<polygon style="fill:#1E321B;" points="280,282 276,288 282,290 	"/>
	<polygon style="fill:#315938;" points="280,282 282,290 286,281 	"/>
	<polygon style="fill:#2D5F31;" points="269,330 266,340 287,345 	"/>
	<polygon style="fill:#69875A;" points="280,282 286,281 288,272 	"/>
	<polygon style="fill:#DAD4BD;" points="286,281 282,290 289,289 	"/>
	<polygon style="fill:#BACEBD;" points="288,272 286,281 292,275 	"/>
	<polygon style="fill:#796946;" points="282,290 273,296 292,296 	"/>
	<polygon style="fill:#8EA18F;" points="273,296 270,305 292,296 	"/>
	<polygon style="fill:#050101;" points="289,289 282,290 292,296 	"/>
	<polygon style="fill:#739E72;" points="292,292 289,289 292,296 	"/>
	<polygon style="fill:#80B45F;" points="270,305 269,330 292,327 	"/>
	<polygon style="fill:#25502A;" points="269,330 287,345 292,327 	"/>
	<polygon style="fill:#66722F;" points="292,296 270,305 295,301 	"/>
	<polygon style="fill:#93CA7F;" points="270,305 292,327 295,301 	"/>
	<polygon style="fill:#83A87D;" points="289,289 292,292 297,281 	"/>
	<polygon style="fill:#4FA262;" points="286,281 289,289 297,281 	"/>
	<polygon style="fill:#6DB67E;" points="292,275 286,281 297,281 	"/>
	<polygon style="fill:#2C5D2F;" points="292,327 287,345 299,339 	"/>
	<polygon style="fill:#72A86F;" points="292,275 297,281 302,270 	"/>
	<polygon style="fill:#BACEBD;" points="288,272 292,275 302,270 	"/>
	<polygon style="fill:#573B1A;" points="292,292 292,296 306,301 	"/>
	<polygon style="fill:#A08F65;" points="292,296 295,301 306,301 	"/>
	<polygon style="fill:#376231;" points="292,327 299,339 307,320 	"/>
	<polygon style="fill:#7BBD7A;" points="295,301 292,327 307,320 	"/>
	<polygon style="fill:#7AC178;" points="306,301 295,301 307,320 	"/>
	<polygon style="fill:#F6E9DF;" points="297,281 292,292 309,284 	"/>
	<polygon style="fill:#080917;" points="292,292 306,301 309,284 	"/>
	<polygon style="fill:#83B583;" points="302,270 297,281 310,275 	"/>
	<polygon style="fill:#65A364;" points="297,281 309,284 310,275 	"/>
	<polygon style="fill:#26542C;" points="299,339 287,345 310,351 	"/>
	<polygon style="fill:#3B5B2D;" points="287,345 304,365 310,351 	"/>
	<polygon style="fill:#76BF71;" points="306,301 307,320 313,307 	"/>
	<polygon style="fill:#FFFEFB;" points="309,284 306,301 316,291 	"/>
	<polygon style="fill:#71B26F;" points="306,301 313,307 316,298 	"/>
	<polygon style="fill:#DBE2C2;" points="316,291 306,301 316,298 	"/>
	<polygon style="fill:#629C64;" points="316,291 316,298 319,288 	"/>
	<polygon style="fill:#70A06B;" points="310,275 309,284 319,288 	"/>
	<polygon style="fill:#6EA769;" points="309,284 316,291 319,288 	"/>
	<polygon style="fill:#60A458;" points="313,307 307,320 319,313 	"/>
	<polygon style="fill:#6C6039;" points="316,605 310,624 320,627 	"/>
	<polygon style="fill:#506842;" points="310,624 317,644 320,627 	"/>
	<polygon style="fill:#6BB365;" points="316,298 313,307 323,304 	"/>
	<polygon style="fill:#5DA155;" points="313,307 319,313 323,304 	"/>
	<polygon style="fill:#8BB586;" points="319,288 316,298 323,304 	"/>
	<polygon style="fill:#488345;" points="307,320 299,339 324,337 	"/>
	<polygon style="fill:#4C864A;" points="299,339 310,351 324,337 	"/>
	<polygon style="fill:#407F3B;" points="319,313 307,320 326,316 	"/>
	<polygon style="fill:#509A51;" points="307,320 324,337 326,316 	"/>
	<polygon style="fill:#659D62;" points="323,304 319,313 326,316 	"/>
	<polygon style="fill:#475C36;" points="320,627 317,644 327,630 	"/>
	<polygon style="fill:#594F2B;" points="320,627 327,630 328,609 	"/>
	<polygon style="fill:#58542E;" points="316,605 320,627 328,609 	"/>
	<polygon style="fill:#C6C39B;" points="327,605 316,605 328,609 	"/>
	<polygon style="fill:#569F52;" points="324,337 310,351 330,361 	"/>
	<polygon style="fill:#598D52;" points="310,351 304,365 330,361 	"/>
	<polygon style="fill:#528346;" points="304,365 313,393 330,361 	"/>
	<polygon style="fill:#374D26;" points="317,644 322,656 334,643 	"/>
	<polygon style="fill:#435228;" points="327,630 317,644 334,643 	"/>
	<polygon style="fill:#6E935A;" points="313,393 327,420 337,389 	"/>
	<polygon style="fill:#8CBE78;" points="330,361 313,393 337,389 	"/>
	<polygon style="fill:#C6C090;" points="327,605 328,609 339,612 	"/>
	<polygon style="fill:#B19F77;" points="328,609 327,630 339,612 	"/>
	<polygon style="fill:#3F5129;" points="334,643 322,656 340,648 	"/>
	<polygon style="fill:#898859;" points="339,612 327,630 342,617 	"/>
	<polygon style="fill:#91C67D;" points="337,389 327,420 344,410 	"/>
	<polygon style="fill:#6B924E;" points="327,420 340,444 344,410 	"/>
	<polygon style="fill:#354421;" points="334,643 340,648 346,646 	"/>
	<polygon style="fill:#3F4F2A;" points="340,648 322,656 349,675 	"/>
	<polygon style="fill:#3D4B25;" points="346,646 340,648 349,675 	"/>
	<polygon style="fill:#7EB165;" points="344,410 340,444 352,409 	"/>
	<polygon style="fill:#7FB65F;" points="337,389 344,410 352,409 	"/>
	<polygon style="fill:#867A4D;" points="334,643 346,646 353,628 	"/>
	<polygon style="fill:#6D5F3B;" points="327,630 334,643 353,628 	"/>
	<polygon style="fill:#B9A36A;" points="342,617 327,630 353,628 	"/>
	<polygon style="fill:#8FA65C;" points="339,612 342,617 354,613 	"/>
	<polygon style="fill:#93AF69;" points="342,617 353,628 354,613 	"/>
	<polygon style="fill:#758A4D;" points="353,628 346,646 355,639 	"/>
	<polygon style="fill:#8FAD6C;" points="354,613 353,628 369,605 	"/>
	<polygon style="fill:#7A9C7D;" points="354,613 369,605 371,589 	"/>
	<polygon style="fill:#759058;" points="340,444 347,457 371,435 	"/>
	<polygon style="fill:#82B96A;" points="352,409 340,444 371,435 	"/>
	<polygon style="fill:#384722;" points="346,646 349,675 373,675 	"/>
	<polygon style="fill:#5A6C35;" points="355,639 346,646 373,675 	"/>
	<polygon style="fill:#4E6930;" points="355,639 373,675 382,651 	"/>
	<polygon style="fill:#5F8141;" points="347,457 371,485 384,456 	"/>
	<polygon style="fill:#74AA60;" points="371,435 347,457 384,456 	"/>
	<polygon style="fill:#638243;" points="369,605 353,628 389,630 	"/>
	<polygon style="fill:#769454;" points="353,628 355,639 389,630 	"/>
	<polygon style="fill:#546D31;" points="355,639 382,651 389,630 	"/>
	<polygon style="fill:#81C065;" points="371,435 384,456 394,451 	"/>
	<polygon style="fill:#47632F;" points="369,605 389,630 409,601 	"/>
	<polygon style="fill:#496434;" points="371,589 369,605 409,601 	"/>
	<polygon style="fill:#4D7340;" points="380,576 371,589 409,601 	"/>
	<polygon style="fill:#6A9D66;" points="400,571 380,576 409,601 	"/>
	<polygon style="fill:#7DB37B;" points="400,571 409,601 421,568 	"/>
	<polygon style="fill:#466C32;" points="389,506 418,525 421,471 	"/>
	<polygon style="fill:#80C073;" points="394,451 384,456 421,471 	"/>
	<polygon style="fill:#65A051;" points="384,456 371,485 421,471 	"/>
	<polygon style="fill:#4F7539;" points="371,485 389,506 421,471 	"/>
	<polygon style="fill:#4C6D3D;" points="421,568 409,601 428,595 	"/>
	<polygon style="fill:#607649;" points="434,538 449,548 450,543 	"/>
	<polygon style="fill:#446A36;" points="421,568 428,595 454,586 	"/>
	<polygon style="fill:#6EA168;" points="421,568 454,586 456,556 	"/>
	<polygon style="fill:#52683C;" points="450,543 449,548 456,556 	"/>
	<polygon style="fill:#5C9554;" points="421,471 418,525 457,482 	"/>
	<polygon style="fill:#466831;" points="418,525 434,538 465,522 	"/>
	<polygon style="fill:#417235;" points="457,482 418,525 465,522 	"/>
	<polygon style="fill:#416330;" points="434,538 450,543 465,522 	"/>
	<polygon style="fill:#60874D;" points="450,543 456,556 465,522 	"/>
	<polygon style="fill:#4B6B33;" points="456,556 454,586 474,583 	"/>
	<polygon style="fill:#3D663A;" points="478,643 475,657 480,658 	"/>
	<polygon style="fill:#365D3B;" points="475,657 472,671 480,658 	"/>
	<polygon style="fill:#60B078;" points="457,482 465,522 482,485 	"/>
	<polygon style="fill:#58835E;" points="478,643 480,658 486,643 	"/>
	<polygon style="fill:#3D5E32;" points="480,658 472,671 486,673 	"/>
	<polygon style="fill:#568E4C;" points="482,485 465,522 486,526 	"/>
	<polygon style="fill:#5A8C4B;" points="465,522 456,556 486,526 	"/>
	<polygon style="fill:#446F38;" points="456,556 474,583 492,579 	"/>
	<polygon style="fill:#375228;" points="474,583 481,589 492,579 	"/>
	<polygon style="fill:#4E5A30;" points="492,579 481,589 494,598 	"/>
	<polygon style="fill:#537D5A;" points="478,643 486,643 495,625 	"/>
	<polygon style="fill:#595337;" points="497,712 491,716 500,714 	"/>
	<polygon style="fill:#485C36;" points="497,712 500,714 501,709 	"/>
	<polygon style="fill:#545033;" points="491,716 489,723 501,722 	"/>
	<polygon style="fill:#51532B;" points="500,714 491,716 501,722 	"/>
	<polygon style="fill:#4B7553;" points="494,598 495,625 502,608 	"/>
	<polygon style="fill:#59873A;" points="486,526 456,556 502,546 	"/>
	<polygon style="fill:#58843A;" points="456,556 492,579 502,546 	"/>
	<polygon style="fill:#456C41;" points="497,712 501,709 503,699 	"/>
	<polygon style="fill:#3B4C2C;" points="491,716 497,712 503,699 	"/>
	<polygon style="fill:#466D33;" points="502,546 492,579 508,565 	"/>
	<polygon style="fill:#65A572;" points="482,485 486,526 512,477 	"/>
	<polygon style="fill:#6C7B4E;" points="503,699 501,709 512,711 	"/>
	<polygon style="fill:#7D6C47;" points="501,709 500,714 512,711 	"/>
	<polygon style="fill:#76653D;" points="500,714 501,722 512,711 	"/>
	<polygon style="fill:#4D7743;" points="495,625 486,643 513,653 	"/>
	<polygon style="fill:#486A35;" points="486,673 499,685 513,653 	"/>
	<polygon style="fill:#598550;" points="486,643 480,658 513,653 	"/>
	<polygon style="fill:#476E3B;" points="480,658 486,673 513,653 	"/>
	<polygon style="fill:#244322;" points="495,625 513,653 519,632 	"/>
	<polygon style="fill:#58643F;" points="494,598 502,608 519,586 	"/>
	<polygon style="fill:#486339;" points="492,579 494,598 519,586 	"/>
	<polygon style="fill:#395D31;" points="508,565 492,579 519,586 	"/>
	<polygon style="fill:#807646;" points="512,711 501,722 519,723 	"/>
	<polygon style="fill:#4F4B2B;" points="501,722 489,723 519,723 	"/>
	<polygon style="fill:#416536;" points="499,685 502,690 521,664 	"/>
	<polygon style="fill:#7EAF66;" points="513,653 499,685 521,664 	"/>
	<polygon style="fill:#57633E;" points="519,586 502,608 522,621 	"/>
	<polygon style="fill:#2E522A;" points="502,608 495,625 522,621 	"/>
	<polygon style="fill:#243F1F;" points="495,625 519,632 522,621 	"/>
	<polygon style="fill:#5E804C;" points="512,711 519,723 534,700 	"/>
	<polygon style="fill:#3F5529;" points="502,690 503,699 534,700 	"/>
	<polygon style="fill:#738F4F;" points="503,699 512,711 534,700 	"/>
	<polygon style="fill:#7FA35E;" points="521,664 502,690 536,672 	"/>
	<polygon style="fill:#70844E;" points="502,690 534,700 536,672 	"/>
	<polygon style="fill:#64A355;" points="538,469 512,477 539,544 	"/>
	<polygon style="fill:#3A6632;" points="502,546 508,565 539,544 	"/>
	<polygon style="fill:#3D6431;" points="508,565 519,586 539,544 	"/>
	<polygon style="fill:#4D7C38;" points="486,526 502,546 539,544 	"/>
	<polygon style="fill:#72B66D;" points="512,477 486,526 539,544 	"/>
	<polygon style="fill:#526234;" points="519,586 522,621 539,599 	"/>
	<polygon style="fill:#3B6130;" points="539,544 519,586 539,599 	"/>
	<polygon style="fill:#4D5D32;" points="539,599 522,621 541,620 	"/>
	<polygon style="fill:#8FA762;" points="536,672 534,700 544,693 	"/>
	<polygon style="fill:#5E7C47;" points="534,700 519,723 554,720 	"/>
	<polygon style="fill:#7FA76B;" points="544,693 534,700 554,720 	"/>
	<polygon style="fill:#98B281;" points="536,672 544,693 558,680 	"/>
	<polygon style="fill:#506639;" points="539,599 541,620 565,602 	"/>
	<polygon style="fill:#406532;" points="539,544 539,599 565,602 	"/>
	<polygon style="fill:#688B4A;" points="544,693 554,720 569,710 	"/>
	<polygon style="fill:#95C374;" points="558,680 544,693 572,691 	"/>
	<polygon style="fill:#719954;" points="544,693 569,710 572,691 	"/>
	<polygon style="fill:#53603D;" points="565,602 541,620 573,624 	"/>
	<polygon style="fill:#518D47;" points="538,469 539,544 573,541 	"/>
	<polygon style="fill:#497435;" points="539,544 565,602 573,541 	"/>
	<polygon style="fill:#6FAE61;" points="538,469 573,541 576,465 	"/>
	<polygon style="fill:#475C2F;" points="565,602 573,624 586,602 	"/>
	<polygon style="fill:#466C32;" points="573,541 565,602 586,602 	"/>
	<polygon style="fill:#3C4B24;" points="586,602 573,624 591,624 	"/>
	<polygon style="fill:#334320;" points="586,602 591,624 593,624 	"/>
	<polygon style="fill:#425E2F;" points="585,654 585,670 598,678 	"/>
	<polygon style="fill:#A6A6A8;" points="554,720 519,723 603,726 	"/>
	<polygon style="fill:#264825;" points="586,602 593,624 605,598 	"/>
	<polygon style="fill:#466E33;" points="573,541 586,602 607,573 	"/>
	<polygon style="fill:#2C4F29;" points="586,602 605,598 607,573 	"/>
	<polygon style="fill:#74B158;" points="576,465 573,541 609,469 	"/>
	<polygon style="fill:#52813D;" points="573,541 607,573 610,559 	"/>
	<polygon style="fill:#545632;" points="606,714 603,726 618,730 	"/>
	<polygon style="fill:#58814B;" points="593,624 588,637 621,635 	"/>
	<polygon style="fill:#7EA66B;" points="588,637 585,654 621,635 	"/>
	<polygon style="fill:#57894E;" points="605,598 593,624 622,623 	"/>
	<polygon style="fill:#68A160;" points="593,624 621,635 622,623 	"/>
	<polygon style="fill:#5E5837;" points="617,710 606,714 624,719 	"/>
	<polygon style="fill:#6D5F38;" points="606,714 618,730 624,719 	"/>
	<polygon style="fill:#535430;" points="624,719 618,730 624,724 	"/>
	<polygon style="fill:#516B3C;" points="585,654 598,678 626,656 	"/>
	<polygon style="fill:#95BE82;" points="621,635 585,654 626,656 	"/>
	<polygon style="fill:#324D27;" points="598,678 609,687 626,656 	"/>
	<polygon style="fill:#405A2C;" points="609,687 621,695 626,656 	"/>
	<polygon style="fill:#57863D;" points="607,573 605,598 627,586 	"/>
	<polygon style="fill:#465A36;" points="624,719 624,724 633,713 	"/>
	<polygon style="fill:#5A6943;" points="621,695 617,710 633,713 	"/>
	<polygon style="fill:#576545;" points="617,710 624,719 633,713 	"/>
	<polygon style="fill:#87C367;" points="609,469 573,541 634,481 	"/>
	<polygon style="fill:#669C4C;" points="573,541 610,559 634,481 	"/>
	<polygon style="fill:#4F7F39;" points="605,598 622,623 635,617 	"/>
	<polygon style="fill:#5E9049;" points="627,586 605,598 635,617 	"/>
	<polygon style="fill:#619545;" points="610,559 607,573 639,565 	"/>
	<polygon style="fill:#69A052;" points="607,573 627,586 639,565 	"/>
	<polygon style="fill:#917E54;" points="633,713 624,724 647,718 	"/>
	<polygon style="fill:#505527;" points="642,711 633,713 647,718 	"/>
	<polygon style="fill:#6C9054;" points="626,656 621,695 648,676 	"/>
	<polygon style="fill:#617B3E;" points="648,676 621,695 648,696 	"/>
	<polygon style="fill:#4E6131;" points="621,695 633,713 648,696 	"/>
	<polygon style="fill:#6F8B52;" points="633,713 642,711 648,696 	"/>
	<polygon style="fill:#585430;" points="624,724 618,730 650,728 	"/>
	<polygon style="fill:#988052;" points="647,718 624,724 650,728 	"/>
	<polygon style="fill:#83B25D;" points="634,481 610,559 652,544 	"/>
	<polygon style="fill:#699F50;" points="610,559 639,565 652,544 	"/>
	<polygon style="fill:#7FA061;" points="642,711 647,718 653,704 	"/>
	<polygon style="fill:#63804A;" points="648,696 642,711 653,704 	"/>
	<polygon style="fill:#576F36;" points="647,718 650,728 660,726 	"/>
	<polygon style="fill:#86A968;" points="653,704 647,718 660,726 	"/>
	<polygon style="fill:#75A95D;" points="634,481 652,544 660,508 	"/>
	<polygon style="fill:#2D4F28;" points="635,617 645,631 662,606 	"/>
	<polygon style="fill:#395128;" points="627,586 635,617 662,606 	"/>
	<polygon style="fill:#4C7534;" points="639,565 627,586 663,569 	"/>
	<polygon style="fill:#416330;" points="627,586 662,606 663,569 	"/>
	<polygon style="fill:#4F803E;" points="652,544 639,565 663,569 	"/>
	<polygon style="fill:#40572A;" points="663,569 662,606 666,604 	"/>
	<polygon style="fill:#7CB55C;" points="660,508 652,544 668,526 	"/>
	<polygon style="fill:#2E522A;" points="662,606 645,631 672,617 	"/>
	<polygon style="fill:#8DB171;" points="653,704 660,726 673,701 	"/>
	<polygon style="fill:#8EAA6A;" points="648,696 653,704 673,701 	"/>
	<polygon style="fill:#83A664;" points="648,676 648,696 673,701 	"/>
	<polygon style="fill:#42603C;" points="649,650 656,666 673,670 	"/>
	<polygon style="fill:#506830;" points="663,569 666,604 675,585 	"/>
	<polygon style="fill:#6B8847;" points="673,701 660,726 680,724 	"/>
	<polygon style="fill:#507A4C;" points="649,650 673,670 681,628 	"/>
	<polygon style="fill:#476F3C;" points="645,631 649,650 681,628 	"/>
	<polygon style="fill:#4F7946;" points="672,617 645,631 681,628 	"/>
	<polygon style="fill:#78AF58;" points="652,544 663,569 683,532 	"/>
	<polygon style="fill:#6BA55F;" points="668,526 652,544 683,532 	"/>
	<polygon style="fill:#62A466;" points="660,508 668,526 683,532 	"/>
	<polygon style="fill:#4C5F2D;" points="660,726 650,728 687,725 	"/>
	<polygon style="fill:#586E38;" points="680,724 660,726 687,725 	"/>
	<polygon style="fill:#5A7C42;" points="681,628 673,670 690,670 	"/>
	<polygon style="fill:#75A560;" points="681,628 690,670 693,631 	"/>
	<polygon style="fill:#5E7C3C;" points="663,569 675,585 695,577 	"/>
	<polygon style="fill:#7BAB4E;" points="683,532 663,569 695,577 	"/>
	<polygon style="fill:#4B622E;" points="695,577 675,585 707,601 	"/>
	<polygon style="fill:#40572A;" points="675,585 666,604 707,601 	"/>
	<polygon style="fill:#86BE67;" points="683,532 695,577 711,542 	"/>
	<polygon style="fill:#4A602F;" points="693,631 690,670 714,667 	"/>
	<polygon style="fill:#698B4C;" points="709,629 693,631 714,667 	"/>
	<polygon style="fill:#394F38;" points="714,667 726,683 727,670 	"/>
	<polygon style="fill:#364923;" points="709,629 714,667 727,670 	"/>
	<polygon style="fill:#556F40;" points="724,621 709,629 727,670 	"/>
	<polygon style="fill:#48592A;" points="695,577 707,601 734,596 	"/>
	<polygon style="fill:#394B27;" points="727,670 726,683 735,682 	"/>
	<polygon style="fill:#4F4A2D;" points="735,682 726,683 738,691 	"/>
	<polygon style="fill:#76AB6C;" points="739,538 711,542 747,562 	"/>
	<polygon style="fill:#789C4F;" points="711,542 695,577 747,562 	"/>
	<polygon style="fill:#708844;" points="695,577 734,596 747,562 	"/>
	<polygon style="fill:#333C1C;" points="727,670 735,682 754,658 	"/>
	<polygon style="fill:#668F4B;" points="744,612 724,621 754,635 	"/>
	<polygon style="fill:#536D3E;" points="724,621 727,670 754,635 	"/>
	<polygon style="fill:#5D763E;" points="727,670 754,658 754,635 	"/>
	<polygon style="fill:#363115;" points="735,682 738,691 755,679 	"/>
	<polygon style="fill:#9F8A5E;" points="754,658 735,682 755,679 	"/>
	<polygon style="fill:#52672F;" points="747,562 734,596 758,587 	"/>
	<polygon style="fill:#81B36A;" points="739,538 747,562 778,536 	"/>
	<polygon style="fill:#83AE5E;" points="778,536 747,562 779,554 	"/>
	<polygon style="fill:#657237;" points="747,562 758,587 782,578 	"/>
	<polygon style="fill:#738E4E;" points="779,554 747,562 782,578 	"/>
	<polygon style="fill:#699A58;" points="778,536 779,554 795,531 	"/>
	<polygon style="fill:#525B2A;" points="779,554 782,578 803,575 	"/>
	<polygon style="fill:#759E48;" points="795,531 779,554 807,547 	"/>
	<polygon style="fill:#7D924A;" points="779,554 803,575 807,547 	"/>
	<polygon style="fill:#689D56;" points="795,531 807,547 826,525 	"/>
	<polygon style="fill:#535D2B;" points="807,547 803,575 834,557 	"/>
	<polygon style="fill:#81A054;" points="826,525 807,547 834,557 	"/>
	<polygon style="fill:#87A352;" points="826,525 834,557 843,536 	"/>
	<polygon style="fill:#8BB065;" points="826,525 843,536 855,522 	"/>
	<polygon style="fill:#4C5628;" points="843,536 834,557 865,547 	"/>
	<polygon style="fill:#748D40;" points="855,522 843,536 865,547 	"/>
	<polygon style="fill:#819946;" points="855,522 865,547 867,526 	"/>
	<polygon style="fill:#77994F;" points="855,522 867,526 894,517 	"/>
	<polygon style="fill:#4B5528;" points="867,526 865,547 898,537 	"/>
	<polygon style="fill:#779242;" points="894,517 867,526 898,537 	"/>
	<polygon style="fill:#99B460;" points="894,517 898,537 927,515 	"/>
	<polygon style="fill:#5C7132;" points="927,515 898,537 933,531 	"/>
	<polygon style="fill:#8FA853;" points="927,515 933,531 963,528 	"/>
	<polygon style="fill:#4F602D;" points="963,528 933,531 970,535 	"/>
</g>
</svg>
