<?xml version="1.0" encoding="utf-8"?>
<!-- Generator: Adobe Illustrator 19.0.0, SVG Export Plug-In . SVG Version: 6.00 Build 0)  -->
<svg version="1.1" id="图层_1" xmlns="http://www.w3.org/2000/svg" xmlns:xlink="http://www.w3.org/1999/xlink" x="0px" y="0px"
	 width="800px" height="760px" viewBox="300 -280 800 760" style="enable-background:new 300 -280 800 760;" xml:space="preserve">
<g>
	<polygon style="fill:#D48D71;" points="417,411 426,429 435,415 	"/>
	<polygon style="fill:#E2A5A4;" points="417,411 435,415 440,394 	"/>
	<polygon style="fill:#D9907F;" points="435,415 426,429 448,421 	"/>
	<polygon style="fill:#E99F94;" points="440,394 435,415 448,407 	"/>
	<polygon style="fill:#F0967E;" points="448,421 426,429 464,438 	"/>
	<polygon style="fill:#FEAC97;" points="440,394 448,407 482,398 	"/>
	<polygon style="fill:#C79F95;" points="448,421 464,438 486,429 	"/>
	<polygon style="fill:#F0A28C;" points="486,429 464,438 491,438 	"/>
	<polygon style="fill:#FFAB93;" points="440,394 482,398 506,380 	"/>
	<polygon style="fill:#BB6F58;" points="506,380 482,398 523,395 	"/>
	<polygon style="fill:#9B593F;" points="506,380 523,395 570,388 	"/>
	<polygon style="fill:#B17158;" points="506,380 570,388 584,363 	"/>
	<polygon style="fill:#76463A;" points="584,363 570,388 597,381 	"/>
	<polygon style="fill:#A7B3B1;" points="586,327 584,363 600,379 	"/>
	<polygon style="fill:#6C443A;" points="584,363 597,381 600,379 	"/>
	<polygon style="fill:#3E4442;" points="600,379 597,381 624,409 	"/>
	<polygon style="fill:#7B7B7B;" points="597,381 570,388 624,409 	"/>
	<polygon style="fill:#2C302F;" points="579,283 586,327 645,282 	"/>
	<polygon style="fill:#29322F;" points="577,245 579,283 645,282 	"/>
	<polygon style="fill:#283130;" points="602,196 577,245 645,282 	"/>
	<polygon style="fill:#7E6C68;" points="637,-48 632,-31 650,-53 	"/>
	<polygon style="fill:#2E3430;" points="586,327 600,379 657,347 	"/>
	<polygon style="fill:#303936;" points="645,282 586,327 657,347 	"/>
	<polygon style="fill:#3A3F39;" points="600,379 624,409 657,347 	"/>
	<polygon style="fill:#985441;" points="636,418 645,427 659,419 	"/>
	<polygon style="fill:#63473B;" points="624,409 636,418 659,419 	"/>
	<polygon style="fill:#494F4B;" points="657,347 624,409 659,419 	"/>
	<polygon style="fill:#FD9383;" points="642,-5 661,9 671,-42 	"/>
	<polygon style="fill:#EE8774;" points="632,-31 642,-5 671,-42 	"/>
	<polygon style="fill:#C3715B;" points="650,-53 632,-31 671,-42 	"/>
	<polygon style="fill:#D6715D;" points="659,419 645,427 671,444 	"/>
	<polygon style="fill:#4D5F63;" points="657,347 659,419 672,415 	"/>
	<polygon style="fill:#FE9486;" points="659,419 671,444 682,436 	"/>
	<polygon style="fill:#C36750;" points="672,415 659,419 682,436 	"/>
	<polygon style="fill:#F39B85;" points="671,-42 661,9 685,-34 	"/>
	<polygon style="fill:#FE9A83;" points="661,9 685,22 685,-34 	"/>
	<polygon style="fill:#262F2E;" points="665,108 627,149 685,161 	"/>
	<polygon style="fill:#2A2E2D;" points="627,149 602,196 685,161 	"/>
	<polygon style="fill:#BE634E;" points="672,415 682,436 689,415 	"/>
	<polygon style="fill:#1A2426;" points="602,196 645,282 689,247 	"/>
	<polygon style="fill:#85726E;" points="682,436 671,444 692,442 	"/>
	<polygon style="fill:#4C605F;" points="657,347 672,415 694,411 	"/>
	<polygon style="fill:#5F4439;" points="672,415 689,415 694,411 	"/>
	<polygon style="fill:#7A240D;" points="694,411 689,415 698,426 	"/>
	<polygon style="fill:#F88B6E;" points="689,415 682,436 698,426 	"/>
	<polygon style="fill:#F08D78;" points="682,436 692,442 698,426 	"/>
	<polygon style="fill:#3E4A4A;" points="685,161 602,196 703,211 	"/>
	<polygon style="fill:#333534;" points="602,196 689,247 703,211 	"/>
	<polygon style="fill:#FAA590;" points="698,426 692,442 704,441 	"/>
	<polygon style="fill:#415355;" points="685,161 703,211 704,172 	"/>
	<polygon style="fill:#3A4443;" points="684,80 665,108 704,88 	"/>
	<polygon style="fill:#273737;" points="665,108 685,161 704,88 	"/>
	<polygon style="fill:#3A4245;" points="684,80 704,88 707,48 	"/>
	<polygon style="fill:#BE8375;" points="671,-42 685,-34 709,-59 	"/>
	<polygon style="fill:#B9826E;" points="650,-53 671,-42 709,-59 	"/>
	<polygon style="fill:#83544C;" points="694,411 698,426 710,412 	"/>
	<polygon style="fill:#425456;" points="657,347 694,411 710,412 	"/>
	<polygon style="fill:#F28A7D;" points="698,426 704,441 712,432 	"/>
	<polygon style="fill:#50312E;" points="710,412 698,426 712,420 	"/>
	<polygon style="fill:#F2A08A;" points="698,426 712,432 712,420 	"/>
	<polygon style="fill:#AB7668;" points="709,-59 685,-34 721,-23 	"/>
	<polygon style="fill:#EC947E;" points="685,-34 685,22 721,-23 	"/>
	<polygon style="fill:#E78C77;" points="685,22 712,25 721,-23 	"/>
	<polygon style="fill:#3B3D3A;" points="703,211 689,247 722,252 	"/>
	<polygon style="fill:#636B6E;" points="712,25 707,48 726,22 	"/>
	<polygon style="fill:#6C5659;" points="704,172 703,211 730,221 	"/>
	<polygon style="fill:#874E3D;" points="703,211 722,252 730,221 	"/>
	<polygon style="fill:#D28B75;" points="721,-23 712,25 732,-11 	"/>
	<polygon style="fill:#B66F5D;" points="712,25 726,22 732,-11 	"/>
	<polygon style="fill:#555D60;" points="689,247 645,282 732,265 	"/>
	<polygon style="fill:#434841;" points="722,252 689,247 732,265 	"/>
	<polygon style="fill:#57666D;" points="645,282 657,347 732,265 	"/>
	<polygon style="fill:#5C6061;" points="709,-59 721,-23 742,-68 	"/>
	<polygon style="fill:#1F2827;" points="707,48 704,88 743,81 	"/>
	<polygon style="fill:#E88371;" points="730,221 722,252 744,257 	"/>
	<polygon style="fill:#CF6C55;" points="722,252 732,265 744,257 	"/>
	<polygon style="fill:#A27A72;" points="704,172 730,221 748,212 	"/>
	<polygon style="fill:#3E4742;" points="704,172 748,212 755,123 	"/>
	<polygon style="fill:#404A49;" points="743,81 704,88 755,123 	"/>
	<polygon style="fill:#2E3734;" points="685,161 704,172 755,123 	"/>
	<polygon style="fill:#4A5551;" points="704,88 685,161 755,123 	"/>
	<polygon style="fill:#959595;" points="712,420 712,432 759,413 	"/>
	<polygon style="fill:#47454A;" points="710,412 712,420 759,413 	"/>
	<polygon style="fill:#2B3944;" points="748,-96 742,-68 760,-85 	"/>
	<polygon style="fill:#233B3F;" points="760,-85 742,-68 760,-72 	"/>
	<polygon style="fill:#B3664C;" points="730,221 744,257 760,248 	"/>
	<polygon style="fill:#F79E8C;" points="748,212 730,221 760,248 	"/>
	<polygon style="fill:#2B3648;" points="748,-96 760,-85 761,-89 	"/>
	<polygon style="fill:#2C343F;" points="760,-72 742,-68 763,-53 	"/>
	<polygon style="fill:#172B2C;" points="721,-23 732,-11 763,-53 	"/>
	<polygon style="fill:#293133;" points="742,-68 721,-23 763,-53 	"/>
	<polygon style="fill:#8A5452;" points="760,-85 760,-72 764,-73 	"/>
	<polygon style="fill:#232D2C;" points="726,22 707,48 766,46 	"/>
	<polygon style="fill:#353938;" points="707,48 743,81 766,46 	"/>
	<polygon style="fill:#51636F;" points="763,-117 747,-106 770,-105 	"/>
	<polygon style="fill:#384A58;" points="747,-106 748,-96 770,-105 	"/>
	<polygon style="fill:#24474D;" points="748,-96 761,-89 770,-105 	"/>
	<polygon style="fill:#7B5C61;" points="760,-72 763,-53 770,-58 	"/>
	<polygon style="fill:#7C423E;" points="764,-73 760,-72 770,-58 	"/>
	<polygon style="fill:#3E3634;" points="710,412 759,413 770,397 	"/>
	<polygon style="fill:#412E32;" points="770,-58 763,-53 771,-50 	"/>
	<polygon style="fill:#64737A;" points="763,-53 732,-11 771,-50 	"/>
	<polygon style="fill:#7D8B8C;" points="732,265 657,347 771,357 	"/>
	<polygon style="fill:#64777B;" points="657,347 710,412 771,357 	"/>
	<polygon style="fill:#566062;" points="710,412 770,397 771,357 	"/>
	<polygon style="fill:#5E6669;" points="744,257 732,265 771,357 	"/>
	<polygon style="fill:#ADBBC8;" points="747,-106 763,-117 773,-133 	"/>
	<polygon style="fill:#865652;" points="770,-105 761,-89 778,-97 	"/>
	<polygon style="fill:#9B594D;" points="761,-89 760,-85 778,-97 	"/>
	<polygon style="fill:#B19C97;" points="770,-58 771,-50 778,-50 	"/>
	<polygon style="fill:#B9AC9C;" points="770,-58 778,-50 781,-68 	"/>
	<polygon style="fill:#C6B4A6;" points="764,-73 770,-58 781,-68 	"/>
	<polygon style="fill:#4B5556;" points="771,-50 732,-11 784,-3 	"/>
	<polygon style="fill:#41545A;" points="778,-50 771,-50 784,-3 	"/>
	<polygon style="fill:#434844;" points="732,-11 726,22 784,-3 	"/>
	<polygon style="fill:#2F342E;" points="726,22 766,46 784,-3 	"/>
	<polygon style="fill:#CDCAB9;" points="764,-73 781,-68 788,-82 	"/>
	<polygon style="fill:#D0C9B7;" points="760,-85 764,-73 788,-82 	"/>
	<polygon style="fill:#F0E3DA;" points="778,-97 760,-85 788,-82 	"/>
	<polygon style="fill:#584443;" points="770,-105 778,-97 791,-116 	"/>
	<polygon style="fill:#364852;" points="763,-117 770,-105 791,-116 	"/>
	<polygon style="fill:#5F7990;" points="773,-133 763,-117 791,-116 	"/>
	<polygon style="fill:#232520;" points="784,-3 766,46 791,8 	"/>
	<polygon style="fill:#4E5C5F;" points="778,-50 784,-3 792,-54 	"/>
	<polygon style="fill:#BC9F91;" points="781,-68 778,-50 792,-54 	"/>
	<polygon style="fill:#FDFDF1;" points="778,-97 788,-82 795,-101 	"/>
	<polygon style="fill:#A56E67;" points="791,-116 778,-97 795,-101 	"/>
	<polygon style="fill:#343631;" points="791,8 766,46 795,11 	"/>
	<polygon style="fill:#6A8694;" points="773,-133 791,-116 797,-136 	"/>
	<polygon style="fill:#616C68;" points="743,81 755,123 798,70 	"/>
	<polygon style="fill:#3D423C;" points="766,46 743,81 798,70 	"/>
	<polygon style="fill:#FCFEF0;" points="795,-101 788,-82 804,-80 	"/>
	<polygon style="fill:#525D5F;" points="748,212 760,248 804,184 	"/>
	<polygon style="fill:#535957;" points="755,123 748,212 804,184 	"/>
	<polygon style="fill:#496370;" points="791,-116 795,-101 805,-115 	"/>
	<polygon style="fill:#839EB1;" points="797,-136 791,-116 805,-115 	"/>
	<polygon style="fill:#F8FAF7;" points="795,-101 804,-80 807,-104 	"/>
	<polygon style="fill:#4E627B;" points="805,-115 795,-101 807,-104 	"/>
	<polygon style="fill:#000008;" points="781,-68 792,-54 807,-71 	"/>
	<polygon style="fill:#020106;" points="788,-82 781,-68 807,-71 	"/>
	<polygon style="fill:#BA9688;" points="804,-80 788,-82 807,-71 	"/>
	<polygon style="fill:#705451;" points="807,-71 792,-54 809,-63 	"/>
	<polygon style="fill:#7B6E80;" points="797,-136 805,-115 811,-128 	"/>
	<polygon style="fill:#49545A;" points="771,357 770,397 814,396 	"/>
	<polygon style="fill:#A36967;" points="811,-128 805,-115 815,-125 	"/>
	<polygon style="fill:#788B8F;" points="804,184 760,248 815,250 	"/>
	<polygon style="fill:#2C322E;" points="795,11 766,46 817,33 	"/>
	<polygon style="fill:#333736;" points="766,46 798,70 817,33 	"/>
	<polygon style="fill:#8991A8;" points="811,-128 815,-125 818,-132 	"/>
	<polygon style="fill:#7690A9;" points="797,-136 811,-128 818,-132 	"/>
	<polygon style="fill:#894731;" points="770,397 759,413 818,414 	"/>
	<polygon style="fill:#A2513C;" points="814,396 770,397 818,414 	"/>
	<polygon style="fill:#6F6A70;" points="807,-71 809,-63 820,-79 	"/>
	<polygon style="fill:#D6CABE;" points="804,-80 807,-71 820,-79 	"/>
	<polygon style="fill:#FFFAF4;" points="807,-104 804,-80 821,-93 	"/>
	<polygon style="fill:#EFE3D3;" points="804,-80 820,-79 821,-93 	"/>
	<polygon style="fill:#A97F73;" points="784,-3 791,8 821,4 	"/>
	<polygon style="fill:#A66C68;" points="791,8 795,11 821,4 	"/>
	<polygon style="fill:#AB827E;" points="795,11 817,33 821,14 	"/>
	<polygon style="fill:#261617;" points="821,4 795,11 821,14 	"/>
	<polygon style="fill:#66788E;" points="818,-132 815,-125 822,-124 	"/>
	<polygon style="fill:#82929F;" points="804,184 815,250 825,198 	"/>
	<polygon style="fill:#687A7E;" points="815,250 760,248 825,308 	"/>
	<polygon style="fill:#828D91;" points="760,248 744,257 825,308 	"/>
	<polygon style="fill:#718488;" points="744,257 771,357 825,308 	"/>
	<polygon style="fill:#F6F6EC;" points="815,-125 805,-115 826,-107 	"/>
	<polygon style="fill:#FDFFFC;" points="822,-124 815,-125 826,-107 	"/>
	<polygon style="fill:#5E5F71;" points="805,-115 807,-104 826,-107 	"/>
	<polygon style="fill:#516E7E;" points="807,-104 821,-93 826,-107 	"/>
	<polygon style="fill:#3B4648;" points="771,357 814,396 827,386 	"/>
	<polygon style="fill:#F78E79;" points="814,396 818,414 827,386 	"/>
	<polygon style="fill:#486177;" points="821,-93 820,-79 828,-99 	"/>
	<polygon style="fill:#5F6B83;" points="826,-107 821,-93 828,-99 	"/>
	<polygon style="fill:#B3C3D0;" points="804,184 825,198 829,150 	"/>
	<polygon style="fill:#56686A;" points="798,70 755,123 829,150 	"/>
	<polygon style="fill:#616C70;" points="755,123 804,184 829,150 	"/>
	<polygon style="fill:#587384;" points="820,-79 809,-63 831,-57 	"/>
	<polygon style="fill:#718E94;" points="825,308 771,357 831,348 	"/>
	<polygon style="fill:#819CA3;" points="771,357 827,386 831,348 	"/>
	<polygon style="fill:#240A00;" points="826,-107 828,-99 834,-111 	"/>
	<polygon style="fill:#FEFEFC;" points="822,-124 826,-107 834,-111 	"/>
	<polygon style="fill:#83969D;" points="818,-132 822,-124 836,-119 	"/>
	<polygon style="fill:#FFFFFF;" points="822,-124 834,-111 836,-119 	"/>
	<polygon style="fill:#738997;" points="809,-63 792,-54 836,-33 	"/>
	<polygon style="fill:#566E7A;" points="831,-57 809,-63 836,-33 	"/>
	<polygon style="fill:#8A939A;" points="792,-54 784,-3 836,-33 	"/>
	<polygon style="fill:#8D9296;" points="784,-3 821,4 836,-33 	"/>
	<polygon style="fill:#222625;" points="817,33 798,70 836,46 	"/>
	<polygon style="fill:#4F2320;" points="821,14 817,33 838,20 	"/>
	<polygon style="fill:#81776B;" points="821,4 821,14 839,10 	"/>
	<polygon style="fill:#B8A18F;" points="821,14 838,20 839,10 	"/>
	<polygon style="fill:#86898E;" points="836,-33 821,4 839,10 	"/>
	<polygon style="fill:#BB8072;" points="817,33 836,46 839,29 	"/>
	<polygon style="fill:#723932;" points="838,20 817,33 839,29 	"/>
	<polygon style="fill:#0B0000;" points="834,-111 828,-99 843,-104 	"/>
	<polygon style="fill:#F8F8F8;" points="836,-119 834,-111 850,-113 	"/>
	<polygon style="fill:#F2FBF6;" points="834,-111 843,-104 850,-113 	"/>
	<polygon style="fill:#FEFEFE;" points="818,-132 836,-119 850,-113 	"/>
	<polygon style="fill:#E59B8E;" points="839,29 836,46 852,52 	"/>
	<polygon style="fill:#333D3E;" points="836,46 798,70 852,52 	"/>
	<polygon style="fill:#6B797C;" points="798,70 829,150 852,133 	"/>
	<polygon style="fill:#505D63;" points="852,52 798,70 852,133 	"/>
	<polygon style="fill:#FF9683;" points="827,386 818,414 852,407 	"/>
	<polygon style="fill:#D6B0AD;" points="818,414 848,419 852,407 	"/>
	<polygon style="fill:#E9F3F2;" points="850,-113 843,-104 857,-104 	"/>
	<polygon style="fill:#596D78;" points="831,-57 836,-33 857,-72 	"/>
	<polygon style="fill:#627383;" points="857,-104 843,-104 857,-72 	"/>
	<polygon style="fill:#6D8994;" points="820,-79 831,-57 857,-72 	"/>
	<polygon style="fill:#4B6572;" points="828,-99 820,-79 857,-72 	"/>
	<polygon style="fill:#5D6E7E;" points="843,-104 828,-99 857,-72 	"/>
	<polygon style="fill:#CBBAAA;" points="838,20 839,29 865,17 	"/>
	<polygon style="fill:#D7C9C0;" points="839,10 838,20 865,17 	"/>
	<polygon style="fill:#FCADA6;" points="839,29 852,52 866,37 	"/>
	<polygon style="fill:#C77F71;" points="865,17 839,29 866,37 	"/>
	<polygon style="fill:#394748;" points="857,-72 836,-33 871,-21 	"/>
	<polygon style="fill:#3B4B4B;" points="836,-33 839,10 871,-21 	"/>
	<polygon style="fill:#2F4143;" points="839,10 865,17 871,-21 	"/>
	<polygon style="fill:#374649;" points="871,-21 865,17 873,14 	"/>
	<polygon style="fill:#5A6D71;" points="852,52 852,133 878,61 	"/>
	<polygon style="fill:#D9E3E4;" points="866,37 852,52 878,61 	"/>
	<polygon style="fill:#8496A2;" points="850,-113 857,-104 883,-109 	"/>
	<polygon style="fill:#3A4E4F;" points="857,-72 871,-21 891,-81 	"/>
	<polygon style="fill:#314C57;" points="857,-104 857,-72 891,-81 	"/>
	<polygon style="fill:#5B6E7D;" points="883,-109 857,-104 891,-81 	"/>
	<polygon style="fill:#465051;" points="871,-21 873,14 891,-4 	"/>
	<polygon style="fill:#63777E;" points="878,61 852,133 904,118 	"/>
	<polygon style="fill:#5B6C7E;" points="883,-109 891,-81 908,-105 	"/>
	<polygon style="fill:#384B4F;" points="891,-4 873,14 908,2 	"/>
	<polygon style="fill:#5A6A7A;" points="908,-105 891,-81 910,-80 	"/>
	<polygon style="fill:#475150;" points="871,-21 891,-4 915,-57 	"/>
	<polygon style="fill:#3B4547;" points="891,-81 871,-21 915,-57 	"/>
	<polygon style="fill:#2C353C;" points="910,-80 891,-81 915,-57 	"/>
	<polygon style="fill:#3B464C;" points="891,-4 908,2 915,-57 	"/>
	<polygon style="fill:#7D8F99;" points="878,61 904,118 928,68 	"/>
	<polygon style="fill:#595D66;" points="908,-105 910,-80 929,-100 	"/>
	<polygon style="fill:#8E5452;" points="910,-80 915,-57 929,-100 	"/>
	<polygon style="fill:#B47161;" points="929,-100 915,-57 936,-46 	"/>
	<polygon style="fill:#202932;" points="915,-57 908,2 936,-46 	"/>
	<polygon style="fill:#CA7D6D;" points="929,-100 936,-46 949,-99 	"/>
	<polygon style="fill:#415762;" points="928,68 904,118 950,95 	"/>
	<polygon style="fill:#374B54;" points="942,59 928,68 950,95 	"/>
	<polygon style="fill:#CA6E55;" points="938,-8 950,23 951,-8 	"/>
	<polygon style="fill:#D79684;" points="953,-22 951,-8 960,-13 	"/>
	<polygon style="fill:#F19377;" points="951,-8 950,23 961,4 	"/>
	<polygon style="fill:#FE8E80;" points="960,-13 951,-8 961,4 	"/>
	<polygon style="fill:#CC7C71;" points="949,-99 936,-46 962,-92 	"/>
	<polygon style="fill:#DF857A;" points="936,-46 956,-44 962,-92 	"/>
	<polygon style="fill:#FE9F89;" points="961,4 950,23 962,15 	"/>
	<polygon style="fill:#41545B;" points="942,59 950,95 966,69 	"/>
	<polygon style="fill:#FA947D;" points="960,-13 961,4 969,6 	"/>
	<polygon style="fill:#FCAA94;" points="962,15 950,23 970,23 	"/>
	<polygon style="fill:#CD795F;" points="950,23 942,59 970,23 	"/>
	<polygon style="fill:#AD5643;" points="942,59 966,69 970,23 	"/>
	<polygon style="fill:#B08177;" points="962,15 970,23 973,20 	"/>
	<polygon style="fill:#CE7972;" points="962,-92 956,-44 977,-74 	"/>
	<polygon style="fill:#DDA2A6;" points="956,-44 977,-60 977,-74 	"/>
	<polygon style="fill:#FCBAA4;" points="960,-13 969,6 982,-6 	"/>
	<polygon style="fill:#EDE4D5;" points="960,-13 982,-6 987,-10 	"/>
	<polygon style="fill:#B9654D;" points="969,6 973,20 987,7 	"/>
	<polygon style="fill:#FDA18A;" points="982,-6 969,6 987,7 	"/>
	<polygon style="fill:#F7FFFF;" points="987,-10 982,-6 988,2 	"/>
	<polygon style="fill:#F8FEFA;" points="982,-6 987,7 988,2 	"/>
	<polygon style="fill:#F29B87;" points="970,23 966,69 988,56 	"/>
	<polygon style="fill:#CB735D;" points="973,20 970,23 988,56 	"/>
	<polygon style="fill:#F59E8A;" points="987,7 973,20 1001,15 	"/>
	<polygon style="fill:#ED957D;" points="988,2 987,7 1001,15 	"/>
	<polygon style="fill:#F99C7D;" points="990,-27 987,-10 1002,-21 	"/>
	<polygon style="fill:#E8A48D;" points="973,20 988,56 1007,30 	"/>
	<polygon style="fill:#DD8874;" points="1001,15 973,20 1007,30 	"/>
	<polygon style="fill:#C4917E;" points="988,2 1001,15 1012,0 	"/>
	<polygon style="fill:#DB7C68;" points="987,-10 988,2 1012,0 	"/>
	<polygon style="fill:#FEA994;" points="1002,-21 987,-10 1012,0 	"/>
	<polygon style="fill:#EF9175;" points="1001,15 1007,30 1014,6 	"/>
	<polygon style="fill:#EE816A;" points="1012,0 1001,15 1014,6 	"/>
</g>
</svg>
