<?xml version="1.0" encoding="utf-8"?>
<!-- Generator: Adobe Illustrator 19.0.0, SVG Export Plug-In . SVG Version: 6.00 Build 0)  -->
<svg version="1.1" id="图层_1" xmlns="http://www.w3.org/2000/svg" xmlns:xlink="http://www.w3.org/1999/xlink" x="0px" y="0px"
	 width="1200px" height="1000px" viewBox="0 0 1200 1000" style="enable-background:new 0 0 1200 1000;" xml:space="preserve">
<g>
	<polygon style="fill:#CD8A6F;" points="301,757 310,775 319,761 	"/>
	<polygon style="fill:#DCA2A1;" points="301,757 319,761 324,740 	"/>
	<polygon style="fill:#D28D7D;" points="319,761 310,775 332,767 	"/>
	<polygon style="fill:#E29C91;" points="324,740 319,761 332,753 	"/>
	<polygon style="fill:#E7927C;" points="332,767 310,775 348,784 	"/>
	<polygon style="fill:#F4A894;" points="324,740 332,753 366,744 	"/>
	<polygon style="fill:#C39D94;" points="332,767 348,784 370,775 	"/>
	<polygon style="fill:#E89E89;" points="370,775 348,784 375,784 	"/>
	<polygon style="fill:#F4A791;" points="324,740 366,744 390,726 	"/>
	<polygon style="fill:#B56D57;" points="390,726 366,744 407,741 	"/>
	<polygon style="fill:#97583F;" points="390,726 407,741 454,734 	"/>
	<polygon style="fill:#AD6F57;" points="390,726 454,734 468,709 	"/>
	<polygon style="fill:#744539;" points="468,709 454,734 481,727 	"/>
	<polygon style="fill:#A6B2B0;" points="470,673 468,709 484,725 	"/>
	<polygon style="fill:#6B443A;" points="468,709 481,727 484,725 	"/>
	<polygon style="fill:#3E4542;" points="484,725 481,727 508,755 	"/>
	<polygon style="fill:#7B7B7B;" points="481,727 454,734 508,755 	"/>
	<polygon style="fill:#2C302F;" points="463,629 470,673 529,628 	"/>
	<polygon style="fill:#29322F;" points="461,591 463,629 529,628 	"/>
	<polygon style="fill:#283130;" points="486,542 461,591 529,628 	"/>
	<polygon style="fill:#7D6C68;" points="521,298 516,315 534,293 	"/>
	<polygon style="fill:#2D3430;" points="470,673 484,725 541,693 	"/>
	<polygon style="fill:#2F3936;" points="529,628 470,673 541,693 	"/>
	<polygon style="fill:#3A3F39;" points="484,725 508,755 541,693 	"/>
	<polygon style="fill:#955340;" points="520,764 529,773 543,765 	"/>
	<polygon style="fill:#63473B;" points="508,755 520,764 543,765 	"/>
	<polygon style="fill:#494F4B;" points="541,693 508,755 543,765 	"/>
	<polygon style="fill:#F08F80;" points="526,341 545,355 555,304 	"/>
	<polygon style="fill:#E48372;" points="516,315 526,341 555,304 	"/>
	<polygon style="fill:#BD6F59;" points="534,293 516,315 555,304 	"/>
	<polygon style="fill:#CD6F5B;" points="543,765 529,773 555,790 	"/>
	<polygon style="fill:#4D5E63;" points="541,693 543,765 556,761 	"/>
	<polygon style="fill:#F09083;" points="543,765 555,790 566,782 	"/>
	<polygon style="fill:#BC654F;" points="556,761 543,765 566,782 	"/>
	<polygon style="fill:#EA9782;" points="555,304 545,355 569,312 	"/>
	<polygon style="fill:#F19581;" points="545,355 569,368 569,312 	"/>
	<polygon style="fill:#262F2E;" points="549,454 511,495 569,507 	"/>
	<polygon style="fill:#2A2E2D;" points="511,495 486,542 569,507 	"/>
	<polygon style="fill:#B8614D;" points="556,761 566,782 573,761 	"/>
	<polygon style="fill:#192426;" points="486,542 529,628 573,593 	"/>
	<polygon style="fill:#85726E;" points="566,782 555,790 576,788 	"/>
	<polygon style="fill:#4C605F;" points="541,693 556,761 578,757 	"/>
	<polygon style="fill:#5F4439;" points="556,761 573,761 578,757 	"/>
	<polygon style="fill:#76261C;" points="578,757 573,761 582,772 	"/>
	<polygon style="fill:#EE876C;" points="573,761 566,782 582,772 	"/>
	<polygon style="fill:#E68975;" points="566,782 576,788 582,772 	"/>
	<polygon style="fill:#3E4A4A;" points="569,507 486,542 587,557 	"/>
	<polygon style="fill:#323534;" points="486,542 573,593 587,557 	"/>
	<polygon style="fill:#F2A28D;" points="582,772 576,788 588,787 	"/>
	<polygon style="fill:#415355;" points="569,507 587,557 588,518 	"/>
	<polygon style="fill:#3A4443;" points="568,426 549,454 588,434 	"/>
	<polygon style="fill:#283737;" points="549,454 569,507 588,434 	"/>
	<polygon style="fill:#3B4245;" points="568,426 588,434 591,394 	"/>
	<polygon style="fill:#B98073;" points="555,304 569,312 593,287 	"/>
	<polygon style="fill:#B5806C;" points="534,293 555,304 593,287 	"/>
	<polygon style="fill:#81534C;" points="578,757 582,772 594,758 	"/>
	<polygon style="fill:#415456;" points="541,693 578,757 594,758 	"/>
	<polygon style="fill:#E8867A;" points="582,772 588,787 596,778 	"/>
	<polygon style="fill:#4F312D;" points="594,758 582,772 596,766 	"/>
	<polygon style="fill:#EA9C87;" points="582,772 596,778 596,766 	"/>
	<polygon style="fill:#A87467;" points="593,287 569,312 605,323 	"/>
	<polygon style="fill:#E3907B;" points="569,312 569,368 605,323 	"/>
	<polygon style="fill:#DE8974;" points="569,368 596,371 605,323 	"/>
	<polygon style="fill:#3B3D3A;" points="587,557 573,593 606,598 	"/>
	<polygon style="fill:#636B6E;" points="596,371 591,394 610,368 	"/>
	<polygon style="fill:#6B5659;" points="588,518 587,557 614,567 	"/>
	<polygon style="fill:#854D3D;" points="587,557 606,598 614,567 	"/>
	<polygon style="fill:#CC8873;" points="605,323 596,371 616,335 	"/>
	<polygon style="fill:#B16D5C;" points="596,371 610,368 616,335 	"/>
	<polygon style="fill:#555D60;" points="573,593 529,628 616,611 	"/>
	<polygon style="fill:#434841;" points="606,598 573,593 616,611 	"/>
	<polygon style="fill:#57656C;" points="529,628 541,693 616,611 	"/>
	<polygon style="fill:#5C6061;" points="593,287 605,323 626,278 	"/>
	<polygon style="fill:#1F2827;" points="591,394 588,434 627,427 	"/>
	<polygon style="fill:#DE806E;" points="614,567 606,598 628,603 	"/>
	<polygon style="fill:#C76A54;" points="606,598 616,611 628,603 	"/>
	<polygon style="fill:#A07971;" points="588,518 614,567 632,558 	"/>
	<polygon style="fill:#3E4742;" points="588,518 632,558 639,469 	"/>
	<polygon style="fill:#404A49;" points="627,427 588,434 639,469 	"/>
	<polygon style="fill:#2E3734;" points="569,507 588,518 639,469 	"/>
	<polygon style="fill:#4A5551;" points="588,434 569,507 639,469 	"/>
	<polygon style="fill:#969595;" points="596,766 596,778 643,759 	"/>
	<polygon style="fill:#46454A;" points="594,758 596,766 643,759 	"/>
	<polygon style="fill:#2B3844;" points="632,250 626,278 644,261 	"/>
	<polygon style="fill:#223B3F;" points="644,261 626,278 644,274 	"/>
	<polygon style="fill:#AE644B;" points="614,567 628,603 644,594 	"/>
	<polygon style="fill:#EE9A89;" points="632,558 614,567 644,594 	"/>
	<polygon style="fill:#2C3647;" points="632,250 644,261 645,257 	"/>
	<polygon style="fill:#2D343F;" points="644,274 626,278 647,293 	"/>
	<polygon style="fill:#162B2C;" points="605,323 616,335 647,293 	"/>
	<polygon style="fill:#293133;" points="626,278 605,323 647,293 	"/>
	<polygon style="fill:#875351;" points="644,261 644,274 648,273 	"/>
	<polygon style="fill:#232D2C;" points="610,368 591,394 650,392 	"/>
	<polygon style="fill:#343938;" points="591,394 627,427 650,392 	"/>
	<polygon style="fill:#50626D;" points="647,229 631,240 654,241 	"/>
	<polygon style="fill:#374957;" points="631,240 632,250 654,241 	"/>
	<polygon style="fill:#23464C;" points="632,250 645,257 654,241 	"/>
	<polygon style="fill:#795C60;" points="644,274 647,293 654,288 	"/>
	<polygon style="fill:#7A413D;" points="648,273 644,274 654,288 	"/>
	<polygon style="fill:#3E3634;" points="594,758 643,759 654,743 	"/>
	<polygon style="fill:#412E32;" points="654,288 647,293 655,296 	"/>
	<polygon style="fill:#63737A;" points="647,293 616,335 655,296 	"/>
	<polygon style="fill:#7C8A8B;" points="616,611 541,693 655,703 	"/>
	<polygon style="fill:#63767A;" points="541,693 594,758 655,703 	"/>
	<polygon style="fill:#555F62;" points="594,758 654,743 655,703 	"/>
	<polygon style="fill:#5E6669;" points="628,603 616,611 655,703 	"/>
	<polygon style="fill:#ABB9C6;" points="631,240 647,229 657,213 	"/>
	<polygon style="fill:#845551;" points="654,241 645,257 662,249 	"/>
	<polygon style="fill:#97574C;" points="645,257 644,261 662,249 	"/>
	<polygon style="fill:#B09B96;" points="654,288 655,296 662,296 	"/>
	<polygon style="fill:#B8AB9C;" points="654,288 662,296 665,278 	"/>
	<polygon style="fill:#C4B2A6;" points="648,273 654,288 665,278 	"/>
	<polygon style="fill:#4A5556;" points="655,296 616,335 668,343 	"/>
	<polygon style="fill:#41545A;" points="662,296 655,296 668,343 	"/>
	<polygon style="fill:#434844;" points="616,335 610,368 668,343 	"/>
	<polygon style="fill:#2F342E;" points="610,368 650,392 668,343 	"/>
	<polygon style="fill:#CDC9B9;" points="648,273 665,278 672,264 	"/>
	<polygon style="fill:#CFC8B6;" points="644,261 648,273 672,264 	"/>
	<polygon style="fill:#EEE2D9;" points="662,249 644,261 672,264 	"/>
	<polygon style="fill:#574443;" points="654,241 662,249 675,230 	"/>
	<polygon style="fill:#354752;" points="647,229 654,241 675,230 	"/>
	<polygon style="fill:#5D778D;" points="657,213 647,229 675,230 	"/>
	<polygon style="fill:#232520;" points="668,343 650,392 675,354 	"/>
	<polygon style="fill:#4E5C5F;" points="662,296 668,343 676,292 	"/>
	<polygon style="fill:#B99D90;" points="665,278 662,296 676,292 	"/>
	<polygon style="fill:#FDFDF2;" points="662,249 672,264 679,245 	"/>
	<polygon style="fill:#A26C66;" points="675,230 662,249 679,245 	"/>
	<polygon style="fill:#343631;" points="675,354 650,392 679,357 	"/>
	<polygon style="fill:#698491;" points="657,213 675,230 681,210 	"/>
	<polygon style="fill:#616C68;" points="627,427 639,469 682,416 	"/>
	<polygon style="fill:#3E423C;" points="650,392 627,427 682,416 	"/>
	<polygon style="fill:#FBFCEF;" points="679,245 672,264 688,266 	"/>
	<polygon style="fill:#515C5F;" points="632,558 644,594 688,530 	"/>
	<polygon style="fill:#535957;" points="639,469 632,558 688,530 	"/>
	<polygon style="fill:#49626E;" points="675,230 679,245 689,231 	"/>
	<polygon style="fill:#819BAD;" points="681,210 675,230 689,231 	"/>
	<polygon style="fill:#F9FAF7;" points="679,245 688,266 691,242 	"/>
	<polygon style="fill:#4E6179;" points="689,231 679,245 691,242 	"/>
	<polygon style="fill:#04030A;" points="665,278 676,292 691,275 	"/>
	<polygon style="fill:#050306;" points="672,264 665,278 691,275 	"/>
	<polygon style="fill:#B79487;" points="688,266 672,264 691,275 	"/>
	<polygon style="fill:#6F5350;" points="691,275 676,292 693,283 	"/>
	<polygon style="fill:#7A6D7E;" points="681,210 689,231 695,218 	"/>
	<polygon style="fill:#485459;" points="655,703 654,743 698,742 	"/>
	<polygon style="fill:#9F6866;" points="695,218 689,231 699,221 	"/>
	<polygon style="fill:#778A8E;" points="688,530 644,594 699,596 	"/>
	<polygon style="fill:#2C322E;" points="679,357 650,392 701,379 	"/>
	<polygon style="fill:#323736;" points="650,392 682,416 701,379 	"/>
	<polygon style="fill:#888FA5;" points="695,218 699,221 702,214 	"/>
	<polygon style="fill:#748DA4;" points="681,210 695,218 702,214 	"/>
	<polygon style="fill:#864630;" points="654,743 643,759 702,760 	"/>
	<polygon style="fill:#9D503C;" points="698,742 654,743 702,760 	"/>
	<polygon style="fill:#6F6A6F;" points="691,275 693,283 704,267 	"/>
	<polygon style="fill:#D5C9BD;" points="688,266 691,275 704,267 	"/>
	<polygon style="fill:#FFFAF4;" points="691,242 688,266 705,253 	"/>
	<polygon style="fill:#EDE1D2;" points="688,266 704,267 705,253 	"/>
	<polygon style="fill:#A67D72;" points="668,343 675,354 705,350 	"/>
	<polygon style="fill:#A26A66;" points="675,354 679,357 705,350 	"/>
	<polygon style="fill:#A9817D;" points="679,357 701,379 705,360 	"/>
	<polygon style="fill:#251617;" points="705,350 679,357 705,360 	"/>
	<polygon style="fill:#65768B;" points="702,214 699,221 706,222 	"/>
	<polygon style="fill:#80909D;" points="688,530 699,596 709,544 	"/>
	<polygon style="fill:#67797D;" points="699,596 644,594 709,654 	"/>
	<polygon style="fill:#818C90;" points="644,594 628,603 709,654 	"/>
	<polygon style="fill:#708287;" points="628,603 655,703 709,654 	"/>
	<polygon style="fill:#F5F5EB;" points="699,221 689,231 710,239 	"/>
	<polygon style="fill:#FEFEFC;" points="706,222 699,221 710,239 	"/>
	<polygon style="fill:#5E5F70;" points="689,231 691,242 710,239 	"/>
	<polygon style="fill:#506C7B;" points="691,242 705,253 710,239 	"/>
	<polygon style="fill:#3A4648;" points="655,703 698,742 711,732 	"/>
	<polygon style="fill:#ED8B76;" points="698,742 702,760 711,732 	"/>
	<polygon style="fill:#476075;" points="705,253 704,267 712,247 	"/>
	<polygon style="fill:#5E6A80;" points="710,239 705,253 712,247 	"/>
	<polygon style="fill:#B2C1CD;" points="688,530 709,544 713,496 	"/>
	<polygon style="fill:#56676A;" points="682,416 639,469 713,496 	"/>
	<polygon style="fill:#616B6F;" points="639,469 688,530 713,496 	"/>
	<polygon style="fill:#587182;" points="704,267 693,283 715,289 	"/>
	<polygon style="fill:#708C92;" points="709,654 655,703 715,694 	"/>
	<polygon style="fill:#7F9AA1;" points="655,703 711,732 715,694 	"/>
	<polygon style="fill:#230C04;" points="710,239 712,247 718,235 	"/>
	<polygon style="fill:#FFFFFD;" points="706,222 710,239 718,235 	"/>
	<polygon style="fill:#82949B;" points="702,214 706,222 720,227 	"/>
	<polygon style="fill:#FFFFFF;" points="706,222 718,235 720,227 	"/>
	<polygon style="fill:#728795;" points="693,283 676,292 720,313 	"/>
	<polygon style="fill:#556D79;" points="715,289 693,283 720,313 	"/>
	<polygon style="fill:#8A9299;" points="676,292 668,343 720,313 	"/>
	<polygon style="fill:#8D9295;" points="668,343 705,350 720,313 	"/>
	<polygon style="fill:#222624;" points="701,379 682,416 720,392 	"/>
	<polygon style="fill:#4E2320;" points="705,360 701,379 722,366 	"/>
	<polygon style="fill:#80776B;" points="705,350 705,360 723,356 	"/>
	<polygon style="fill:#B6A08E;" points="705,360 722,366 723,356 	"/>
	<polygon style="fill:#86898E;" points="720,313 705,350 723,356 	"/>
	<polygon style="fill:#B77E70;" points="701,379 720,392 723,375 	"/>
	<polygon style="fill:#703832;" points="722,366 701,379 723,375 	"/>
	<polygon style="fill:#0C0205;" points="718,235 712,247 727,242 	"/>
	<polygon style="fill:#F8F8F8;" points="720,227 718,235 734,233 	"/>
	<polygon style="fill:#F1F8F4;" points="718,235 727,242 734,233 	"/>
	<polygon style="fill:#FFFFFF;" points="702,214 720,227 734,233 	"/>
	<polygon style="fill:#DE978B;" points="723,375 720,392 736,398 	"/>
	<polygon style="fill:#333D3E;" points="720,392 682,416 736,398 	"/>
	<polygon style="fill:#6B787B;" points="682,416 713,496 736,479 	"/>
	<polygon style="fill:#505D63;" points="736,398 682,416 736,479 	"/>
	<polygon style="fill:#F09180;" points="711,732 702,760 736,753 	"/>
	<polygon style="fill:#D2AEAB;" points="702,760 732,765 736,753 	"/>
	<polygon style="fill:#E9F2F1;" points="734,233 727,242 741,242 	"/>
	<polygon style="fill:#586C77;" points="715,289 720,313 741,274 	"/>
	<polygon style="fill:#607281;" points="741,242 727,242 741,274 	"/>
	<polygon style="fill:#6C8791;" points="704,267 715,289 741,274 	"/>
	<polygon style="fill:#4A6370;" points="712,247 704,267 741,274 	"/>
	<polygon style="fill:#5C6D7C;" points="727,242 712,247 741,274 	"/>
	<polygon style="fill:#C9B9A9;" points="722,366 723,375 749,363 	"/>
	<polygon style="fill:#D6C8BF;" points="723,356 722,366 749,363 	"/>
	<polygon style="fill:#F3A9A3;" points="723,375 736,398 750,383 	"/>
	<polygon style="fill:#C17C6F;" points="749,363 723,375 750,383 	"/>
	<polygon style="fill:#394748;" points="741,274 720,313 755,325 	"/>
	<polygon style="fill:#3B4B4B;" points="720,313 723,356 755,325 	"/>
	<polygon style="fill:#2F4143;" points="723,356 749,363 755,325 	"/>
	<polygon style="fill:#374649;" points="755,325 749,363 757,360 	"/>
	<polygon style="fill:#5A6C70;" points="736,398 736,479 762,407 	"/>
	<polygon style="fill:#D8E2E2;" points="750,383 736,398 762,407 	"/>
	<polygon style="fill:#83949F;" points="734,233 741,242 767,237 	"/>
	<polygon style="fill:#3A4E4F;" points="741,274 755,325 775,265 	"/>
	<polygon style="fill:#314B56;" points="741,242 741,274 775,265 	"/>
	<polygon style="fill:#5B6D7B;" points="767,237 741,242 775,265 	"/>
	<polygon style="fill:#455051;" points="755,325 757,360 775,342 	"/>
	<polygon style="fill:#62767D;" points="762,407 736,479 788,464 	"/>
	<polygon style="fill:#5B6B7C;" points="767,237 775,265 792,241 	"/>
	<polygon style="fill:#374B4F;" points="775,342 757,360 792,348 	"/>
	<polygon style="fill:#596978;" points="792,241 775,265 794,266 	"/>
	<polygon style="fill:#475150;" points="755,325 775,342 799,289 	"/>
	<polygon style="fill:#3B4547;" points="775,265 755,325 799,289 	"/>
	<polygon style="fill:#2C353C;" points="794,266 775,265 799,289 	"/>
	<polygon style="fill:#3A464C;" points="775,342 792,348 799,289 	"/>
	<polygon style="fill:#7B8D97;" points="762,407 788,464 812,414 	"/>
	<polygon style="fill:#595C65;" points="792,241 794,266 813,246 	"/>
	<polygon style="fill:#8B5351;" points="794,266 799,289 813,246 	"/>
	<polygon style="fill:#B06F60;" points="813,246 799,289 820,300 	"/>
	<polygon style="fill:#202932;" points="799,289 792,348 820,300 	"/>
	<polygon style="fill:#C47A6B;" points="813,246 820,300 833,247 	"/>
	<polygon style="fill:#405661;" points="812,414 788,464 834,441 	"/>
	<polygon style="fill:#364A53;" points="826,405 812,414 834,441 	"/>
	<polygon style="fill:#C36C54;" points="822,338 834,369 835,338 	"/>
	<polygon style="fill:#D19382;" points="837,324 835,338 844,333 	"/>
	<polygon style="fill:#E88F74;" points="835,338 834,369 845,350 	"/>
	<polygon style="fill:#EF8A7D;" points="844,333 835,338 845,350 	"/>
	<polygon style="fill:#C6796F;" points="833,247 820,300 846,254 	"/>
	<polygon style="fill:#D78278;" points="820,300 840,302 846,254 	"/>
	<polygon style="fill:#F29A86;" points="845,350 834,369 846,361 	"/>
	<polygon style="fill:#41545B;" points="826,405 834,441 850,415 	"/>
	<polygon style="fill:#F0907A;" points="844,333 845,350 853,352 	"/>
	<polygon style="fill:#F3A691;" points="846,361 834,369 854,369 	"/>
	<polygon style="fill:#C6775E;" points="834,369 826,405 854,369 	"/>
	<polygon style="fill:#A75542;" points="826,405 850,415 854,369 	"/>
	<polygon style="fill:#AD7F76;" points="846,361 854,369 857,366 	"/>
	<polygon style="fill:#C7766F;" points="846,254 840,302 861,272 	"/>
	<polygon style="fill:#D79FA2;" points="840,302 861,286 861,272 	"/>
	<polygon style="fill:#F5B7A2;" points="844,333 853,352 866,340 	"/>
	<polygon style="fill:#ECE3D4;" points="844,333 866,340 871,336 	"/>
	<polygon style="fill:#B3634C;" points="853,352 857,366 871,353 	"/>
	<polygon style="fill:#F29D87;" points="866,340 853,352 871,353 	"/>
	<polygon style="fill:#F7FBFC;" points="871,336 866,340 872,348 	"/>
	<polygon style="fill:#F8FBF8;" points="866,340 871,353 872,348 	"/>
	<polygon style="fill:#E99784;" points="854,369 850,415 872,402 	"/>
	<polygon style="fill:#C4715B;" points="857,366 854,369 872,402 	"/>
	<polygon style="fill:#ED9A88;" points="871,353 857,366 885,361 	"/>
	<polygon style="fill:#E4917A;" points="872,348 871,353 885,361 	"/>
	<polygon style="fill:#F0987B;" points="874,319 871,336 886,325 	"/>
	<polygon style="fill:#E1A18B;" points="857,366 872,402 891,376 	"/>
	<polygon style="fill:#D58571;" points="885,361 857,366 891,376 	"/>
	<polygon style="fill:#C08E7C;" points="872,348 885,361 896,346 	"/>
	<polygon style="fill:#D27966;" points="871,336 872,348 896,346 	"/>
	<polygon style="fill:#F3A491;" points="886,325 871,336 896,346 	"/>
	<polygon style="fill:#E68E73;" points="885,361 891,376 898,352 	"/>
	<polygon style="fill:#E47E68;" points="896,346 885,361 898,352 	"/>
</g>
</svg>
