<?xml version="1.0" encoding="utf-8"?>
<!-- Generator: Adobe Illustrator 19.0.0, SVG Export Plug-In . SVG Version: 6.00 Build 0)  -->
<svg version="1.1" id="图层_1" xmlns="http://www.w3.org/2000/svg" xmlns:xlink="http://www.w3.org/1999/xlink" x="0px" y="0px"
	 width="200px" height="200px" viewBox="0 0 200 200" style="enable-background:new 0 0 200 200;" xml:space="preserve">
<g id="XMLID_2_">
	<path id="XMLID_3_" d="M72.1,137.8V62.1h26.9c8.2,0,14.6,1.6,19,4.7c4.5,3.1,6.7,7.5,6.7,13c0,4.1-1.4,7.7-4.2,10.8
		c-2.8,3.1-6.3,5.2-10.4,6.4v0.2c5.3,0.7,9.5,2.6,12.8,5.9c3.2,3.3,4.9,7.3,4.9,12.3c0,6.9-2.4,12.3-7.3,16.4
		c-4.9,4.1-11.6,6.1-20,6.1H72.1V137.8z M88.3,74.2v18.7h7.7c3.7,0,6.6-0.9,8.7-2.6c2.1-1.8,3.2-4.2,3.2-7.4c0-5.8-4.2-8.7-12.7-8.7
		C95.1,74.2,88.3,74.2,88.3,74.2z M88.3,105v20.8h9.6c4.1,0,7.3-0.9,9.5-2.8s3.4-4.5,3.4-7.9c0-3.2-1.1-5.7-3.4-7.4
		c-2.3-1.8-5.5-2.6-9.7-2.6L88.3,105L88.3,105z"/>
</g>
</svg>
