<?xml version="1.0" encoding="utf-8"?>
<!-- Generator: Adobe Illustrator 19.0.0, SVG Export Plug-In . SVG Version: 6.00 Build 0)  -->
<svg version="1.1" id="图层_1" xmlns="http://www.w3.org/2000/svg" xmlns:xlink="http://www.w3.org/1999/xlink" x="0px" y="0px"
	 width="200px" height="200px" viewBox="0 0 200 200" style="enable-background:new 0 0 200 200;" xml:space="preserve">
<g id="XMLID_2_">
	<path id="XMLID_3_" d="M129.3,135c-5.5,2.7-12.7,4.1-21.5,4.1c-11.4,0-20.4-3.4-27.1-10.2s-10-15.9-10-27.3
		c0-11.9,3.7-21.7,11.2-29.3s17.1-11.4,28.9-11.4c7.4,0,13.6,1,18.6,2.9v15.6c-5.1-3-10.9-4.5-17.4-4.5c-7.4,0-13.3,2.4-17.7,7.1
		c-4.4,4.7-6.6,10.9-6.6,18.5c0,7.4,2.1,13.4,6.3,17.9s9.9,6.8,17,6.8c6.7,0,12.9-1.6,18.4-4.9V135H129.3z"/>
</g>
</svg>
