<?xml version="1.0" encoding="utf-8"?>
<!-- Generator: Adobe Illustrator 19.0.0, SVG Export Plug-In . SVG Version: 6.00 Build 0)  -->
<svg version="1.1" id="图层_1" xmlns="http://www.w3.org/2000/svg" xmlns:xlink="http://www.w3.org/1999/xlink" x="0px" y="0px"
	 width="200px" height="200px" viewBox="0 0 200 200" style="enable-background:new 0 0 200 200;" xml:space="preserve">
<g id="XMLID_2_">
	<path id="XMLID_3_" d="M133.1,132.8c-7.4,4.3-16.5,6.4-27.2,6.4c-12,0-21.6-3.4-28.5-10.2c-7-6.8-10.4-16-10.4-27.8
		c0-11.9,3.8-21.6,11.5-29.1s17.8-11.2,30.3-11.2c8.1,0,15.1,1.1,21.1,3.4v15.3c-5.9-3.4-13-5.1-21.5-5.1c-7.3,0-13.2,2.4-17.7,7.1
		c-4.5,4.8-6.8,11-6.8,18.8c0,7.9,2,14.1,6.1,18.5c4.1,4.4,9.7,6.6,16.7,6.6c4.2,0,7.6-0.7,10.3-2v-15.5h-15.3V95.2h31.4V132.8z"/>
</g>
</svg>
