<?xml version="1.0" encoding="utf-8"?>
<!-- Generator: Adobe Illustrator 19.0.0, SVG Export Plug-In . SVG Version: 6.00 Build 0)  -->
<svg version="1.1" id="图层_1" xmlns="http://www.w3.org/2000/svg" xmlns:xlink="http://www.w3.org/1999/xlink" x="0px" y="0px"
	 width="200px" height="200px" viewBox="0 0 200 200" style="enable-background:new 0 0 200 200;" xml:space="preserve">
<g id="XMLID_2_">
	<path id="XMLID_3_" d="M126.7,137.8V91.9c0-4.2,0.2-9.6,0.6-16h-0.4c-1,4.9-1.8,8.1-2.3,9.7l-18.7,52.1H93.1L74.2,86.2
		c-0.5-1.2-1.3-4.6-2.4-10.2h-0.4c0.4,6.3,0.6,12.7,0.6,19.1v42.8H57.4V62.2h23.4l16.3,45.7c1.4,3.8,2.3,7.3,2.8,10.6h0.3
		c1-4.1,2.1-7.7,3.1-10.7l16.4-45.6h22.8v75.6H126.7z"/>
</g>
</svg>
