<?xml version="1.0" encoding="utf-8"?>
<!-- Generator: Adobe Illustrator 19.0.0, SVG Export Plug-In . SVG Version: 6.00 Build 0)  -->
<svg version="1.1" id="图层_1" xmlns="http://www.w3.org/2000/svg" xmlns:xlink="http://www.w3.org/1999/xlink" x="0px" y="0px"
	 width="200px" height="200px" viewBox="0 0 200 200" style="enable-background:new 0 0 200 200;" xml:space="preserve">
<g id="XMLID_3_">
	<path id="XMLID_4_" d="M63.1,93.1c0-11.8,3.5-21.5,10.4-28.9C80.4,56.7,89.5,53,100.9,53c10.8,0,19.5,3.6,26.1,10.8
		c6.6,7.2,9.9,16.4,9.9,27.7c0,11.8-3.4,21.3-10.3,28.7c-6.9,7.3-15.8,11-26.9,11c-10.8,0-19.6-3.6-26.4-10.7
		C66.5,113.5,63.1,104.3,63.1,93.1z M80,92.2c0,7.4,1.8,13.4,5.3,18c3.5,4.7,8.4,7,14.6,7c6.3,0,11.2-2.2,14.7-6.7s5.3-10.5,5.3-18
		c0-7.9-1.7-14.1-5.1-18.7c-3.4-4.6-8.2-6.9-14.5-6.9c-6.3,0-11.3,2.3-14.9,7C81.8,78.7,80,84.8,80,92.2z"/>
</g>
</svg>
