<?xml version="1.0" encoding="utf-8"?>
<!-- Generator: Adobe Illustrator 19.0.0, SVG Export Plug-In . SVG Version: 6.00 Build 0)  -->
<svg version="1.1" id="图层_1" xmlns="http://www.w3.org/2000/svg" xmlns:xlink="http://www.w3.org/1999/xlink" x="0px" y="0px"
	 width="200px" height="200px" viewBox="0 0 200 200" style="enable-background:new 0 0 200 200;" xml:space="preserve">
<g id="XMLID_3_">
	<path id="XMLID_4_" d="M59.3,96.5c0-11.8,3.5-21.5,10.4-28.9c6.9-7.5,16-11.2,27.4-11.2c10.8,0,19.5,3.6,26.1,10.8
		c6.6,7.2,9.9,16.4,9.9,27.7c0,11.8-3.4,21.4-10.3,28.7c-0.4,0.5-0.8,0.9-1.3,1.3l19.2,18.6h-23.9l-10.1-10.3
		c-3.4,0.9-7,1.4-10.9,1.4c-10.8,0-19.6-3.6-26.4-10.7C62.7,116.9,59.3,107.8,59.3,96.5z M76.2,95.6c0,7.4,1.8,13.4,5.3,18
		c3.5,4.7,8.4,7,14.6,7c6.3,0,11.2-2.2,14.7-6.7s5.3-10.5,5.3-18c0-7.9-1.7-14.1-5.1-18.7s-8.2-6.8-14.4-6.8c-6.3,0-11.3,2.3-14.9,7
		C78,82.1,76.2,88.3,76.2,95.6z"/>
</g>
</svg>
