<?xml version="1.0" encoding="utf-8"?>
<!-- Generator: Adobe Illustrator 19.0.0, SVG Export Plug-In . SVG Version: 6.00 Build 0)  -->
<svg version="1.1" id="图层_1" xmlns="http://www.w3.org/2000/svg" xmlns:xlink="http://www.w3.org/1999/xlink" x="0px" y="0px"
	 width="200px" height="200px" viewBox="0 0 200 200" style="enable-background:new 0 0 200 200;" xml:space="preserve">
<g id="XMLID_2_">
	<path id="XMLID_3_" d="M131.2,137.8h-18.6l-11.9-19.7c-2.4-4.1-4.4-6.7-6-7.9s-3.2-1.8-5-1.8h-4.9v29.3H68.8V62.2h26.5
		c18,0,27,6.8,27,20.5c0,5.1-1.5,9.6-4.5,13.2c-3,3.7-7.2,6.3-12.4,7.8v0.2c3.5,1.2,7.3,5,11.6,11.5L131.2,137.8z M84.9,74.4v21.8
		h7.9c3.8,0,6.8-1.1,9.1-3.3s3.4-4.9,3.4-8.2c0-6.8-4.1-10.3-12.3-10.3H84.9z"/>
</g>
</svg>
