<?xml version="1.0" encoding="utf-8"?>
<!-- Generator: Adobe Illustrator 19.0.0, SVG Export Plug-In . SVG Version: 6.00 Build 0)  -->
<svg version="1.1" id="图层_1" xmlns="http://www.w3.org/2000/svg" xmlns:xlink="http://www.w3.org/1999/xlink" x="0px" y="0px"
	 width="200px" height="200px" viewBox="0 0 200 200" style="enable-background:new 0 0 200 200;" xml:space="preserve">
<g id="XMLID_2_">
	<path id="XMLID_3_" d="M74.7,118.8c6.1,5,13,7.6,20.8,7.6c4.4,0,7.7-0.8,9.9-2.3c2.2-1.5,3.3-3.5,3.3-5.8c0-2.1-0.9-4-2.6-5.8
		c-1.8-1.8-6.4-4.3-13.9-7.4c-11.8-5-17.7-12.3-17.7-21.9c0-7,2.7-12.5,8-16.4c5.4-3.9,12.4-5.8,21.3-5.8c7.4,0,13.6,1,18.6,2.9
		v15.1c-5.1-3.5-11-5.2-17.8-5.2c-4,0-7.1,0.7-9.5,2.2c-2.4,1.4-3.6,3.4-3.6,5.8c0,2,0.8,3.8,2.4,5.4c1.6,1.6,5.6,3.9,12.1,6.7
		c7.5,3.2,12.7,6.6,15.5,10.2c2.8,3.6,4.2,7.8,4.2,12.8c0,7.3-2.6,12.8-7.7,16.6s-12.5,5.7-21.9,5.7c-8.7,0-15.8-1.4-21.3-4.2V118.8
		z"/>
</g>
</svg>
