<?xml version="1.0" encoding="utf-8"?>
<!-- Generator: Adobe Illustrator 19.0.0, SVG Export Plug-In . SVG Version: 6.00 Build 0)  -->
<svg version="1.1" id="图层_1" xmlns="http://www.w3.org/2000/svg" xmlns:xlink="http://www.w3.org/1999/xlink" x="0px" y="0px"
	 width="200px" height="200px" viewBox="0 0 200 200" style="enable-background:new 0 0 200 200;" xml:space="preserve">
<g id="XMLID_2_">
	<path id="XMLID_3_" d="M152.9,62.2l-20.2,75.6h-17.9l-12.9-49.3c-0.7-2.7-1.1-5.5-1.2-8.3h-0.2c-0.3,3.4-0.8,6.2-1.4,8.3
		l-13.2,49.3H67.3L47.1,62.2h17.7l11.2,51.3c0.5,2.2,0.8,5.1,1,8.5h0.3c0.2-2.7,0.7-5.6,1.5-8.7l14.1-51h17.1l12.8,51.7
		c0.5,2.1,0.9,4.7,1.2,8h0.2c0.1-2.8,0.5-5.6,1.1-8.3l11-51.4H152.9z"/>
</g>
</svg>
